<svg xmlns="http://www.w3.org/2000/svg" viewBox="0 0 500 500"><g id="freepik--background-complete--inject-25"><path d="M47.35,354.09a40.54,40.54,0,0,0-17.38-6c-2.84-.29-5.95-.21-8.23,1.51a1.7,1.7,0,0,0-.84,1.5,1.84,1.84,0,0,0,.8,1c7.07,5.4,17.77,6.08,25.65,1.94" style="fill:#e0e0e0"></path><path d="M46.91,353.6a83.87,83.87,0,0,1-11.23-9.88,28.33,28.33,0,0,1-7-13c-.3-1.48-.4-3.18.55-4.36,9,7,16,16,17.72,27.26" style="fill:#e0e0e0"></path><path d="M47.26,354a40.56,40.56,0,0,1,.21-14.74c1.12-4.81,3.74-9.42,7.85-12.16,1.55,3.61.88,7.78-.21,11.55a56.17,56.17,0,0,1-7.78,16.4" style="fill:#e0e0e0"></path><path d="M56,369.75c-5.32.65-10,3.45-13.94,7.05a26.39,26.39,0,0,0-8,13.7c5.22-.33,9.65-4,12.87-8.14s5.44-8.67,9-12.53" style="fill:#e0e0e0"></path><path d="M57.94,372.26a34.38,34.38,0,0,1,4-32.53c3,10.8,1.92,23-4,32.53" style="fill:#e0e0e0"></path><path d="M69.53,386.07a24.88,24.88,0,0,0-23.77,13.68c-.3.59-.56,1.34-.16,1.87a1.74,1.74,0,0,0,1.57.46c4.69-.3,8.84-3.12,12.27-6.33s6.41-6.92,10.2-9.7" style="fill:#e0e0e0"></path><path d="M69.16,385.32a44.39,44.39,0,0,1-.44-24.74c.87-3.18,2.34-6.54,5.28-8a1,1,0,0,1,.81-.14,1.07,1.07,0,0,1,.51.59,14.85,14.85,0,0,1,1.24,7.1,43.74,43.74,0,0,1-1.11,7.18c-.93,4.39-1.42,9.11-3.83,12.9A27.56,27.56,0,0,0,70.09,383c-.45,1-.46,1.3-.87,2.07" style="fill:#e0e0e0"></path><path d="M99.85,389.89c-2.27-8.65.14-19.14,5.59-26.23.41-.52.94-1.08,1.59-1,1,.1,1.27,1.43,1.22,2.44a47.31,47.31,0,0,1-8.4,24.81" style="fill:#e0e0e0"></path><path d="M102.62,391.78c10.51,2.73,22.56.08,31.3-6.37A25.39,25.39,0,0,0,117,383.33c-5.66,1.3-10.84,3.83-14.36,8.45" style="fill:#e0e0e0"></path><path d="M105,386c5.89-9.59,17.17-15.86,28.41-16.43-1.29,4.58-5.05,8.13-9.29,10.28s-9,3.08-13.64,4c-1.81.35-4.3.74-5.48,2.16" style="fill:#e0e0e0"></path><path d="M100.44,358.08c1.59-5.46,3.19-11,3.63-16.64s-.37-11.59-3.31-16.46c-5.5,10.64-6.05,23.07-.49,33.67" style="fill:#e0e0e0"></path><path d="M119,348.72c6.42-11.68,19.54-21,32.81-22.32-5.12,12.75-19.08,22.6-32.81,22.32" style="fill:#e0e0e0"></path><path d="M114.9,351c9.59,1.46,17.76,7.59,26.72,11.3a12,12,0,0,0,6,1.15,4.73,4.73,0,0,0,3-8.36,13,13,0,0,0-4.39-2.66c-9.76-4.06-20.22-4.16-30.5-1.7" style="fill:#e0e0e0"></path><path d="M109.35,357.74c2.17.62,2.92,1.74,4.63,3.21a50,50,0,0,0,20.26,10.4c.78.2,1.79.27,2.18-.43s-.09-1.35-.53-1.89a27.89,27.89,0,0,0-12.23-8.31c-4.68-1.74-8.73-3.83-14.31-3.38" style="fill:#e0e0e0"></path><path d="M103.09,317.12a38.36,38.36,0,0,0,29.4,10,2,2,0,0,0,1.33-.49c.74-.8-.14-2-1-2.71-8.64-6.74-19.1-9.54-29.72-6.81" style="fill:#e0e0e0"></path><path d="M110.52,314.41a40.93,40.93,0,0,1,36.67-6.05c-4.62,4.55-11,7-17.47,7.67a55.29,55.29,0,0,1-19.2-1.62" style="fill:#e0e0e0"></path><path d="M107.57,295.75c-.85-8.63-.3-15.44-.9-24.1,0-.7-.2-1.53-.85-1.78-.9-.35-1.65.76-1.94,1.68a27.64,27.64,0,0,0,3.67,24" style="fill:#e0e0e0"></path><path d="M107,296.7c5.84-3.62,10.23-8.34,14.28-13.89,2.83-3.86,5.2-8.48,4.56-13.22-4-.08-7.73,2.1-10.3,5.11a28.85,28.85,0,0,0-5.26,10.57c-1.14,3.8-1.94,7.7-3.28,11.43" style="fill:#e0e0e0"></path><path d="M121,292.8a115.45,115.45,0,0,0,35.17-20.73c-4.2-1.7-9-.68-13.21,1-9.6,3.87-17.43,10.41-22.14,19.63" style="fill:#e0e0e0"></path><path d="M110.89,301.42c6.49.71,13.09,1.17,19.53.09s12.31-3.56,18.22-6.05a2.17,2.17,0,0,0,1.24-.94,1.41,1.41,0,0,0-.44-1.56,3.7,3.7,0,0,0-1.55-.73c-6.44-1.8-13.38-1-19.7,1.18a90.78,90.78,0,0,0-17.3,8" style="fill:#e0e0e0"></path><path d="M73.83,317.42c-4.43-8.94-4.14-19.37-.32-28.58,2.7,4.1,3,9.32,2.53,14.21s-2,9.91-2.07,14.81" style="fill:#e0e0e0"></path><path d="M56.14,308.5a39.88,39.88,0,0,0-29.63,12.62c5.52.86,11.2-.56,16.22-3s9.48-5.89,13.9-9.31" style="fill:#e0e0e0"></path><path d="M44.24,304.52c-5.41-.44-10.61-1.11-15.81.48s-9.94,5.22-12.06,10.22a28.5,28.5,0,0,0,14.83-2.79,86.29,86.29,0,0,0,13-7.91" style="fill:#e0e0e0"></path><path d="M61.85,304.7c-4.86-3.19-9.86-6.43-15.53-7.76s-12.23-.34-16.18,3.93c4.59,2.69,10.15,3,15.47,3s11.84-.07,16.85,1.71" style="fill:#e0e0e0"></path><path d="M61.88,305c-8.32-8.17-11.47-22.85-8.12-34a51.81,51.81,0,0,1,8.12,34" style="fill:#e0e0e0"></path><path d="M84.76,281.81c1.57-3.65,2.67-7.47,4.08-11.19a32,32,0,0,1,5.81-10.31A15.33,15.33,0,0,1,105,255a41.53,41.53,0,0,1-20,26.9" style="fill:#e0e0e0"></path><path d="M80.62,286.64c-2.6-3.58-5.6-8.43-9.12-11.1s-8.1-4.28-12.4-3.25a28.92,28.92,0,0,0,21.52,14.35" style="fill:#e0e0e0"></path><path d="M81.45,282.11a61.21,61.21,0,0,1-4.11-13.29c-.69-4.6-.27-9.51,2.08-13.51,4.57,8.63,6,17.89,2.26,26.9" style="fill:#e0e0e0"></path><path d="M84.8,255.31c2.59-8.56,10.42-14.86,18.88-17.75a7,7,0,0,1,3.31-.5,2.85,2.85,0,0,1,2.44,2c.31,1.45-.89,2.76-2,3.72A64.28,64.28,0,0,1,84.8,255.31" style="fill:#e0e0e0"></path><path d="M84.89,248.31c.33-5.52.68-11.12,2.47-16.35s5.25-10.13,10.28-12.42c.86,5.58-1.6,11.12-4.56,15.92s-6.54,9.32-8.32,14.67" style="fill:#e0e0e0"></path><path d="M84.76,252.1c-2.14-6.23-2.36-14.15-6.1-19.59-2.61-3.79-6.79-6.38-9-10.4a15.86,15.86,0,0,0,.53,11.81,34,34,0,0,0,6.91,9.89c2.76,2.95,5.13,5.17,7.7,8.29" style="fill:#e0e0e0"></path><path d="M84.8,435.76c-.17,0-.31-41.6-.32-92.91s.11-92.92.28-92.92.31,41.6.32,92.92S85,435.76,84.8,435.76Z" style="fill:#e0e0e0"></path><path d="M121.16,311.14a8.9,8.9,0,0,1-1.57.59l-4.3,1.45c-3.63,1.24-8.62,3-14,5.25S90.85,322.59,88,325.08a9.86,9.86,0,0,0-2.67,3.54c-.41,1-.49,1.57-.54,1.56s0-.15,0-.44a6.68,6.68,0,0,1,.31-1.21,9.31,9.31,0,0,1,2.61-3.76,23.34,23.34,0,0,1,5.76-3.59c2.31-1.07,4.87-2.19,7.58-3.31,5.43-2.22,10.45-4,14.12-5.09,1.84-.57,3.34-1,4.37-1.27A8.34,8.34,0,0,1,121.16,311.14Z" style="fill:#e0e0e0"></path><path d="M133.07,281.87s-.14.18-.44.47l-1.33,1.25-5,4.53-16.58,14.77c-6.48,5.76-12.07,11.27-16,15.42-1.94,2.07-3.47,3.78-4.52,5l-1.2,1.38c-.28.31-.44.47-.45.45a2.9,2.9,0,0,1,.35-.53c.26-.33.62-.83,1.12-1.45,1-1.25,2.48-3,4.39-5.12a209.38,209.38,0,0,1,15.86-15.58c6.49-5.75,12.41-10.91,16.7-14.64l5.11-4.38,1.41-1.17A3.63,3.63,0,0,1,133.07,281.87Z" style="fill:#e0e0e0"></path><path d="M102.74,308.75c-.17-.08,1.18-3.2,2.53-7.15s2-7.28,2.17-7.25-.23,3.44-1.6,7.44a47.7,47.7,0,0,1-2,5A8.16,8.16,0,0,1,102.74,308.75Z" style="fill:#e0e0e0"></path><path d="M84.84,333.93a6.67,6.67,0,0,1-1-1.16l-2.56-3.28c-2.14-2.77-5.11-6.6-8.44-10.79s-6.39-8-8.6-10.68l-2.61-3.23a7.83,7.83,0,0,1-.91-1.24,7,7,0,0,1,1.08,1.09c.67.72,1.61,1.78,2.76,3.11,2.3,2.65,5.42,6.37,8.75,10.57s6.25,8.08,8.31,10.92c1,1.42,1.86,2.58,2.41,3.39A8.69,8.69,0,0,1,84.84,333.93Z" style="fill:#e0e0e0"></path><path d="M76.87,323.7a14.63,14.63,0,0,1-3.34-6.25,17.76,17.76,0,0,1-.76-6.31l.26,0c-.11.49-.2.74-.25.73s0-.27,0-.77l.27,0a28.06,28.06,0,0,0,1.06,6.13C75.18,321,77,323.6,76.87,323.7Z" style="fill:#e0e0e0"></path><path d="M66.57,310.75a10.2,10.2,0,0,0-2.33-1.35,15.44,15.44,0,0,0-6.47-.52,40.58,40.58,0,0,0-6.52,1.05,21.22,21.22,0,0,1-2.68.65,9.23,9.23,0,0,1,2.57-1.06,30.4,30.4,0,0,1,6.58-1.24,14.25,14.25,0,0,1,6.68.72A4.15,4.15,0,0,1,66.57,310.75Z" style="fill:#e0e0e0"></path><path d="M64.13,307.61c0,.1-1.35-.54-3.57-1.3a37,37,0,0,0-8.91-1.83,36.45,36.45,0,0,0-9.09.46c-2.3.41-3.7.84-3.73.75a3.32,3.32,0,0,1,1-.41,23.86,23.86,0,0,1,2.7-.76,31.87,31.87,0,0,1,18.23,1.39,24.2,24.2,0,0,1,2.55,1.16A3.84,3.84,0,0,1,64.13,307.61Z" style="fill:#e0e0e0"></path><path d="M84.76,294.35c-.16,0-1.33-4-2.61-9.05s-2.18-9.16-2-9.2,1.33,4,2.6,9S84.92,294.31,84.76,294.35Z" style="fill:#e0e0e0"></path><path d="M84.92,294.35c-.18.06-.93-2.65-2.88-5.42a24,24,0,0,0-4.25-4.39,4.12,4.12,0,0,1,1.64.85,13.14,13.14,0,0,1,3.1,3.19C84.56,291.47,85.07,294.34,84.92,294.35Z" style="fill:#e0e0e0"></path><path d="M84.8,413.58c-.07,0-.19-1-.66-2.76a38.59,38.59,0,0,0-2.78-7.2c-2.87-5.88-8.1-13.33-14.75-20.79-3.29-3.76-6.49-7.31-9.2-10.71a75.63,75.63,0,0,1-6.58-9.48,46,46,0,0,1-3.32-7.05c-.3-.86-.53-1.54-.65-2a3.31,3.31,0,0,1-.17-.72c.05,0,.36.95,1,2.65a51.83,51.83,0,0,0,3.47,6.91,81.29,81.29,0,0,0,6.64,9.36c2.73,3.36,5.93,6.89,9.23,10.66,6.66,7.48,11.88,15,14.68,21a36.48,36.48,0,0,1,2.62,7.33c.19.9.32,1.6.37,2.09A3.35,3.35,0,0,1,84.8,413.58Z" style="fill:#e0e0e0"></path><path d="M117.65,376.48a16.15,16.15,0,0,1-1.72,1,38,38,0,0,0-4.47,3,51.17,51.17,0,0,0-5.86,5.35c-2.06,2.17-4.18,4.7-6.34,7.4-4.33,5.43-8.38,10.24-10.8,14.07-1.23,1.9-2.13,3.51-2.71,4.63a15,15,0,0,1-1,1.73,1.85,1.85,0,0,1,.16-.48c.13-.31.3-.78.58-1.35A42.51,42.51,0,0,1,88.1,407c2.35-3.92,6.37-8.79,10.69-14.21,2.16-2.72,4.31-5.25,6.41-7.42a46.68,46.68,0,0,1,6-5.3,31.5,31.5,0,0,1,4.61-2.82c.57-.29,1-.47,1.35-.6A1.73,1.73,0,0,1,117.65,376.48Z" style="fill:#e0e0e0"></path><path d="M118.29,388.52a27,27,0,0,1-3.63.52,48.48,48.48,0,0,0-8.64,1.7,26.12,26.12,0,0,0-7.72,4.06c-1.79,1.38-2.62,2.52-2.71,2.45a2.92,2.92,0,0,1,.54-.84,13.8,13.8,0,0,1,1.9-1.94,23.3,23.3,0,0,1,7.81-4.3,38.77,38.77,0,0,1,8.77-1.55A20,20,0,0,1,118.29,388.52Z" style="fill:#e0e0e0"></path><path d="M96.65,395.93c-.19-.11,1.45-2.62,2.73-6s1.47-6.38,1.68-6.34a5.51,5.51,0,0,1-.06,1.95,21,21,0,0,1-1.06,4.6,22.25,22.25,0,0,1-2.11,4.22A6,6,0,0,1,96.65,395.93Z" style="fill:#e0e0e0"></path><path d="M128.29,344.16a2.33,2.33,0,0,1-.58.31l-1.71.78c-.75.32-1.66.73-2.68,1.27s-2.23,1.07-3.48,1.82l-2,1.13c-.68.4-1.37.87-2.09,1.32-1.46.89-2.93,2-4.5,3.1a84,84,0,0,0-9.38,8.25A85,85,0,0,0,94,371.8c-1.06,1.6-2.1,3.11-2.94,4.6-.43.74-.87,1.44-1.25,2.14s-.72,1.37-1.06,2c-.7,1.27-1.21,2.49-1.7,3.54s-.88,2-1.18,2.72l-.72,1.74a2.65,2.65,0,0,1-.29.59,2.49,2.49,0,0,1,.18-.63l.61-1.78c.27-.78.61-1.72,1.09-2.78s1-2.3,1.63-3.59l1-2.05c.36-.72.8-1.42,1.22-2.17.83-1.52,1.86-3,2.92-4.66a74.24,74.24,0,0,1,17.43-18.05c1.59-1.11,3.08-2.19,4.56-3.07.74-.45,1.43-.91,2.13-1.3l2-1.1c1.27-.73,2.49-1.25,3.54-1.76s2-.89,2.74-1.18l1.75-.67A2.71,2.71,0,0,1,128.29,344.16Z" style="fill:#e0e0e0"></path><path d="M102.29,361.58a4.23,4.23,0,0,1,1.43-2.13,9,9,0,0,1,5.76-2.21,15.81,15.81,0,0,1,6.06,1.19,8.37,8.37,0,0,1,2.29,1.11,15.5,15.5,0,0,1-2.43-.71,18.12,18.12,0,0,0-5.9-1,9.36,9.36,0,0,0-5.5,1.93A18,18,0,0,0,102.29,361.58Z" style="fill:#e0e0e0"></path><path d="M98.4,365.59c-.16-.09,1.31-2.24,1.64-5.32s-.55-5.51-.37-5.56a3.48,3.48,0,0,1,.68,1.55,11.12,11.12,0,0,1,.29,4.08,10.93,10.93,0,0,1-1.22,3.9C98.91,365.16,98.46,365.63,98.4,365.59Z" style="fill:#e0e0e0"></path><path d="M56.07,419.55C57,435.44,61.75,451.61,69.12,468h32.05c7-16.18,11.49-32.33,12.28-48.41Z" style="fill:#e0e0e0"></path><path d="M108.26,445.27c0,.17-10.56.3-23.57.3s-23.56-.13-23.56-.3,10.54-.3,23.56-.3S108.26,445.11,108.26,445.27Z" style="fill:#fafafa"></path><path d="M107.54,451c0,.17-9.89.3-22.09.3s-22.09-.13-22.09-.3,9.89-.3,22.09-.3S107.54,450.87,107.54,451Z" style="fill:#fafafa"></path><path d="M69.64,430c.17,0,.3,3.31.3,7.39s-.13,7.38-.3,7.38-.3-3.31-.3-7.38S69.47,430,69.64,430Z" style="fill:#fafafa"></path><path d="M86.81,430c.17,0,.3,3.43.3,7.65s-.13,7.64-.3,7.64-.3-3.42-.3-7.64S86.64,430,86.81,430Z" style="fill:#fafafa"></path><path d="M102.93,429.85a101.55,101.55,0,0,1,0,15.6c-.17,0-.3-3.49-.3-7.8S102.76,429.85,102.93,429.85Z" style="fill:#fafafa"></path><path d="M112.43,430c0,.17-12.37.31-27.64.31s-27.64-.14-27.64-.31,12.38-.3,27.64-.3S112.43,429.82,112.43,430Z" style="fill:#fafafa"></path><rect x="47.92" y="38.83" width="79.75" height="83.13" style="fill:#e0e0e0"></rect><rect x="42.52" y="38.83" width="79.75" height="83.13" style="fill:#f5f5f5"></rect><path d="M122.29,122H42.49V38.81h79.8Zm-79.75,0h79.7V38.86H42.54Z" style="fill:#e0e0e0"></path><rect x="53.24" y="50.01" width="58.31" height="60.78" style="fill:#fff"></rect><path d="M53.24,111.19a10.13,10.13,0,0,1-1.44,1.67c-.93,1-2.24,2.32-3.71,3.76s-2.81,2.73-3.81,3.65a9.32,9.32,0,0,1-1.68,1.4A9.58,9.58,0,0,1,44,120c.93-1,2.24-2.31,3.71-3.76s2.83-2.74,3.82-3.65A8.8,8.8,0,0,1,53.24,111.19Z" style="fill:#e0e0e0"></path><path d="M111.55,111a9.54,9.54,0,0,1,1.67,1.44c1,.93,2.31,2.24,3.76,3.71s2.73,2.81,3.64,3.8a9.38,9.38,0,0,1,1.41,1.69,8.78,8.78,0,0,1-1.67-1.43c-1-.93-2.32-2.24-3.77-3.72s-2.73-2.82-3.65-3.81A8.81,8.81,0,0,1,111.55,111Z" style="fill:#e0e0e0"></path><path d="M111.39,50.17a9,9,0,0,1,1.43-1.68c.94-1,2.24-2.31,3.71-3.75s2.82-2.73,3.81-3.65a8.77,8.77,0,0,1,1.69-1.4,9.2,9.2,0,0,1-1.44,1.66c-.93,1-2.24,2.32-3.71,3.77s-2.82,2.74-3.82,3.65A10,10,0,0,1,111.39,50.17Z" style="fill:#e0e0e0"></path><path d="M53.08,50.32a9.67,9.67,0,0,1-1.67-1.44c-1-.93-2.32-2.24-3.76-3.71S44.92,42.36,44,41.36a9.32,9.32,0,0,1-1.4-1.68,9.35,9.35,0,0,1,1.66,1.43c1,.93,2.32,2.24,3.77,3.71s2.74,2.83,3.65,3.82A8.8,8.8,0,0,1,53.08,50.32Z" style="fill:#e0e0e0"></path><path d="M111.39,110.79a2,2,0,0,1,0-.3c0-.21,0-.49,0-.85,0-.76,0-1.86,0-3.28,0-2.88,0-7.07-.06-12.39,0-10.64-.06-25.81-.11-44l.23.22-58.15,0h0L53.5,50c0,22.3,0,43.17,0,60.78l-.22-.23,42.1.12,11.83,0,3.13,0h.8l.29,0h-1l-3.08,0-11.78,0L53.24,111H53v-.22C53,93.18,53,72.31,53,50v-.26h.26l58.15,0h.22V50c0,18.21-.09,33.43-.11,44.11,0,5.29,0,9.47-.06,12.33q0,2.11,0,3.24c0,.35,0,.62,0,.83S111.39,110.79,111.39,110.79Z" style="fill:#e0e0e0"></path><rect x="72.66" y="70.67" width="19.46" height="19.46" style="fill:#ebebeb"></rect><rect x="396.19" y="38.81" width="79.75" height="83.13" style="fill:#e0e0e0"></rect><rect x="390.79" y="38.81" width="79.75" height="83.13" style="fill:#f5f5f5"></rect><path d="M470.57,122h-79.8V38.79h79.8Zm-79.75,0h79.7V38.84h-79.7Z" style="fill:#e0e0e0"></path><rect x="401.51" y="49.99" width="58.31" height="60.78" style="fill:#fff"></rect><path d="M401.51,111.17a8.78,8.78,0,0,1-1.43,1.67c-.94,1-2.24,2.32-3.71,3.76s-2.82,2.73-3.81,3.65a9.14,9.14,0,0,1-1.69,1.4,9.2,9.2,0,0,1,1.44-1.66c.93-1,2.24-2.32,3.71-3.77s2.82-2.74,3.82-3.65A9.36,9.36,0,0,1,401.51,111.17Z" style="fill:#e0e0e0"></path><path d="M459.82,111a9.67,9.67,0,0,1,1.67,1.44c1,.93,2.32,2.24,3.76,3.71S468,119,468.9,120a9.32,9.32,0,0,1,1.4,1.68,9.35,9.35,0,0,1-1.66-1.43c-1-.93-2.32-2.24-3.77-3.71s-2.74-2.83-3.65-3.82A8.8,8.8,0,0,1,459.82,111Z" style="fill:#e0e0e0"></path><path d="M459.66,50.15a10.13,10.13,0,0,1,1.44-1.67c.93-1,2.24-2.32,3.71-3.76s2.81-2.73,3.81-3.65a9.32,9.32,0,0,1,1.68-1.4,9.58,9.58,0,0,1-1.43,1.67c-.93,1-2.24,2.31-3.71,3.76s-2.83,2.74-3.82,3.65A8.8,8.8,0,0,1,459.66,50.15Z" style="fill:#e0e0e0"></path><path d="M401.35,50.3a10.13,10.13,0,0,1-1.67-1.44c-1-.93-2.31-2.24-3.76-3.71s-2.73-2.81-3.64-3.81a9.16,9.16,0,0,1-1.41-1.68,8.78,8.78,0,0,1,1.67,1.43c1,.93,2.32,2.24,3.77,3.72S399,47.63,400,48.62A8.81,8.81,0,0,1,401.35,50.3Z" style="fill:#e0e0e0"></path><path d="M459.66,110.77s0-.11,0-.3,0-.48,0-.85c0-.76,0-1.85,0-3.28,0-2.88,0-7.07-.06-12.38,0-10.65-.07-25.81-.11-44l.22.22-58.14,0h0l.26-.26c0,22.31,0,43.18,0,60.78l-.23-.22,42.11.11,11.82.06,3.13,0,.81,0h-.76l-3.09,0-11.77.06-42.25.11h-.22v-.22c0-17.6,0-38.47,0-60.78v-.26h.26l58.14,0h.23V50c-.05,18.21-.09,33.43-.12,44.11,0,5.3,0,9.47-.06,12.34,0,1.4,0,2.48,0,3.23,0,.36,0,.63,0,.83A1.1,1.1,0,0,1,459.66,110.77Z" style="fill:#e0e0e0"></path><rect x="420.94" y="70.65" width="19.46" height="19.46" style="fill:#ebebeb"></rect></g><g id="freepik--screen-2--inject-25"><rect x="175.29" y="27.66" width="180.54" height="382.97" rx="19.96" style="fill:#fafafa"></rect><path d="M335.87,410.63l.71-.05a14.6,14.6,0,0,0,2.1-.19,19.32,19.32,0,0,0,7.69-2.83,19.8,19.8,0,0,0,8.23-10.27,14.56,14.56,0,0,0,.57-1.94,15.29,15.29,0,0,0,.38-2.06,32,32,0,0,0,.19-4.43c0-3.06,0-6.33,0-9.78,0-27.65-.05-67.66-.09-117.09s0-108.3-.05-173.66q0-12.26,0-24.81V50.9a39,39,0,0,0-.26-6.31,18.65,18.65,0,0,0-1.94-6,19.65,19.65,0,0,0-9-8.72,18.7,18.7,0,0,0-6.13-1.81,63.49,63.49,0,0,0-6.49-.16H195.28a19.9,19.9,0,0,0-12.79,4.71,19.6,19.6,0,0,0-6.66,11.79,44.22,44.22,0,0,0-.28,6.92v75c0,35.57,0,69.88,0,102.57s0,63.74,0,92.81q0,21.8,0,42.06,0,10.13,0,19.83v4.82a37.21,37.21,0,0,0,.18,4.74,19.94,19.94,0,0,0,3.26,8.61,20.38,20.38,0,0,0,6.63,6.08,19.29,19.29,0,0,0,8.41,2.49c1.45.11,2.92.05,4.37.07h12.79l31.45,0,50.37,0,31.83.05,8.28,0c1.86,0,2.82,0,2.82,0l-2.82,0-8.28,0-31.83,0-50.37,0-31.45,0H198.33c-1.46,0-2.91,0-4.39-.07a19.6,19.6,0,0,1-8.57-2.53,20.78,20.78,0,0,1-6.76-6.18,20.5,20.5,0,0,1-3.32-8.77,36.54,36.54,0,0,1-.19-4.79v-4.82q0-9.7,0-19.83,0-20.24,0-42.06c0-29.07,0-60.13,0-92.81s0-67,0-102.57q0-26.67,0-54.25V51.35a43.3,43.3,0,0,1,.29-7,20.08,20.08,0,0,1,6.83-12.11,20.46,20.46,0,0,1,13.13-4.84H331.8a65.46,65.46,0,0,1,6.56.17,19.25,19.25,0,0,1,6.27,1.86,20.1,20.1,0,0,1,9.19,8.94,19.09,19.09,0,0,1,2,6.13,39.23,39.23,0,0,1,.26,6.39V88.33c0,65.36,0,124.22-.06,173.66s-.06,89.44-.08,117.09c0,3.45,0,6.72,0,9.78a32.33,32.33,0,0,1-.2,4.45,17.37,17.37,0,0,1-.39,2.08,14.74,14.74,0,0,1-.59,1.95,19.89,19.89,0,0,1-8.31,10.31,19.27,19.27,0,0,1-7.75,2.79,15.46,15.46,0,0,1-2.1.17Z" style="fill:#263238"></path><path d="M332.94,157.18H196.38a20,20,0,0,0-20,20V389.24A20.76,20.76,0,0,0,197.17,410H332.79a20.78,20.78,0,0,0,20.77-20.83l-.64-212.08A20,20,0,0,0,332.94,157.18Z" style="fill:#ebebeb"></path><path d="M196.83,55.41h-6a.73.73,0,0,1-.72-.73h0a.72.72,0,0,1,.72-.72h6a.73.73,0,0,1,.73.72h0A.73.73,0,0,1,196.83,55.41Z" style="fill:#263238"></path><path d="M196.83,62.73h-6a.72.72,0,0,1-.72-.72h0a.73.73,0,0,1,.72-.73h6a.73.73,0,0,1,.73.73h0A.73.73,0,0,1,196.83,62.73Z" style="fill:#263238"></path><path d="M199,59.21h-8.19a.72.72,0,0,1-.72-.72h0a.73.73,0,0,1,.72-.73H199a.73.73,0,0,1,.72.73h0A.72.72,0,0,1,199,59.21Z" style="fill:#263238"></path><path d="M330,60.46a4.77,4.77,0,1,1,3-1.07A4.79,4.79,0,0,1,330,60.46Zm0-8.56a3.78,3.78,0,1,0,3.78,3.78A3.78,3.78,0,0,0,330,51.9Z" style="fill:#263238"></path><path d="M336,62.46a.5.5,0,0,1-.33-.12l-3.31-3a.5.5,0,1,1,.67-.74l3.3,3a.5.5,0,0,1,0,.71A.49.49,0,0,1,336,62.46Z" style="fill:#263238"></path><path d="M199.74,85.09v5.7h-1.32V88.45h-2.59v2.34h-1.32v-5.7h1.32v2.25h2.59V85.09Z" style="fill:#263238"></path><path d="M205.28,89H202a1.17,1.17,0,0,0,1.25.88,1.46,1.46,0,0,0,1.1-.43l.68.74a2.32,2.32,0,0,1-1.81.71,2.28,2.28,0,0,1-2.5-2.26A2.23,2.23,0,0,1,203,86.34a2.17,2.17,0,0,1,2.28,2.28C205.3,88.71,205.28,88.85,205.28,89Zm-3.34-.74h2.16a1.09,1.09,0,0,0-2.16,0Z" style="fill:#263238"></path><path d="M206.15,84.75h1.27v6h-1.27Z" style="fill:#263238"></path><path d="M208.61,84.75h1.27v6h-1.27Z" style="fill:#263238"></path><path d="M210.73,88.6a2.41,2.41,0,1,1,2.42,2.26A2.26,2.26,0,0,1,210.73,88.6Zm3.53,0a1.12,1.12,0,1,0-1.11,1.21A1.1,1.1,0,0,0,214.26,88.6Z" style="fill:#263238"></path><path d="M216.21,90.12a.79.79,0,0,1,1.57,0,.79.79,0,0,1-1.57,0Zm0-5h1.51l-.25,3.72h-1Z" style="fill:#263238"></path><path d="M304.79,66.07H215.05a9.4,9.4,0,0,1-9.39-9.39h0a9.39,9.39,0,0,1,9.39-9.39h89.74a9.38,9.38,0,0,1,9.38,9.39h0A9.39,9.39,0,0,1,304.79,66.07Z" style="fill:#ebebeb"></path><rect x="188.5" y="183.5" width="154.12" height="62.63" rx="14.42" style="fill:#f5f5f5"></rect><rect x="200.43" y="194.44" width="40.75" height="40.75" rx="10.86" style="fill:#455a64"></rect><path d="M259.3,207.14h1.21v2.32a4,4,0,0,1-2.31.72,3,3,0,1,1,0-5.9,3,3,0,0,1,2.39,1l-.85.78a1.91,1.91,0,0,0-1.47-.64,1.83,1.83,0,1,0,0,3.65,2.09,2.09,0,0,0,1-.25Z" style="fill:#263238"></path><path d="M264.36,205.64v1.17l-.28,0a1.09,1.09,0,0,0-1.17,1.23v2.07h-1.27V205.7h1.22v.58A1.77,1.77,0,0,1,264.36,205.64Z" style="fill:#263238"></path><path d="M269,207.58v2.51h-1.19v-.55a1.44,1.44,0,0,1-1.34.61c-1,0-1.63-.57-1.63-1.33s.54-1.31,1.88-1.31h1c0-.54-.33-.86-1-.86a2.08,2.08,0,0,0-1.26.4l-.46-.88a3.31,3.31,0,0,1,1.89-.53C268.21,205.64,269,206.26,269,207.58Zm-1.27,1.12v-.45h-.87c-.6,0-.79.22-.79.52s.27.53.72.53A1,1,0,0,0,267.71,208.7Z" style="fill:#263238"></path><path d="M274.91,207.89a2.14,2.14,0,0,1-2.19,2.26,1.71,1.71,0,0,1-1.32-.53v2h-1.27v-6h1.22v.51a1.67,1.67,0,0,1,1.37-.57A2.13,2.13,0,0,1,274.91,207.89Zm-1.29,0a1.12,1.12,0,1,0-1.12,1.22A1.11,1.11,0,0,0,273.62,207.89Z" style="fill:#263238"></path><path d="M280.24,207.58v2.51H279v-2.32c0-.71-.33-1-.89-1s-1.05.37-1.05,1.18v2.17h-1.27V204H277v2.12a1.93,1.93,0,0,1,1.39-.52A1.72,1.72,0,0,1,280.24,207.58Z" style="fill:#263238"></path><path d="M281.24,204.38a.73.73,0,0,1,.79-.71.72.72,0,0,1,.79.69.79.79,0,0,1-1.58,0Zm.15,1.32h1.27v4.39h-1.27Z" style="fill:#263238"></path><path d="M283.52,207.89a2.26,2.26,0,0,1,2.45-2.25,2,2,0,0,1,2,1.11l-1,.53a1.08,1.08,0,0,0-1-.6,1.22,1.22,0,0,0,0,2.43,1.07,1.07,0,0,0,1-.6l1,.53a2,2,0,0,1-2,1.11A2.27,2.27,0,0,1,283.52,207.89Z" style="fill:#263238"></path><path d="M291.07,204.38h2.59a2.87,2.87,0,1,1,0,5.71h-2.59Zm2.52,4.62a1.77,1.77,0,1,0,0-3.53h-1.21V209Z" style="fill:#263238"></path><path d="M302,208.25h-3.32a1.18,1.18,0,0,0,1.26.88,1.51,1.51,0,0,0,1.1-.42l.67.73a2.25,2.25,0,0,1-1.8.71,2.28,2.28,0,0,1-2.51-2.26,2.23,2.23,0,0,1,2.34-2.25,2.16,2.16,0,0,1,2.28,2.27C302,208,302,208.15,302,208.25Zm-3.33-.74h2.16a1,1,0,0,0-1.08-.91A1,1,0,0,0,298.65,207.51Z" style="fill:#263238"></path><path d="M302.43,209.68l.43-.91a3,3,0,0,0,1.52.42c.59,0,.81-.16.81-.4,0-.72-2.65,0-2.65-1.74,0-.83.75-1.41,2-1.41a3.62,3.62,0,0,1,1.68.38l-.42.9a2.54,2.54,0,0,0-1.26-.32c-.57,0-.82.18-.82.41,0,.75,2.65,0,2.65,1.75,0,.81-.76,1.39-2.07,1.39A3.77,3.77,0,0,1,302.43,209.68Z" style="fill:#263238"></path><path d="M307,204.38a.73.73,0,0,1,.79-.71.72.72,0,0,1,.79.69.79.79,0,0,1-1.58,0Zm.16,1.32h1.27v4.39h-1.27Z" style="fill:#263238"></path><path d="M314.16,205.7v3.65a2.15,2.15,0,0,1-2.46,2.38,3.62,3.62,0,0,1-2.15-.6l.51-.91a2.6,2.6,0,0,0,1.55.49c.89,0,1.28-.4,1.28-1.19v-.19a1.81,1.81,0,0,1-1.38.54,2.12,2.12,0,1,1,0-4.23,1.77,1.77,0,0,1,1.45.62v-.56Zm-1.25,2.06a1.16,1.16,0,1,0-1.15,1.07A1.06,1.06,0,0,0,312.91,207.76Z" style="fill:#263238"></path><path d="M319.83,207.58v2.51h-1.27v-2.32c0-.71-.33-1-.89-1s-1.05.37-1.05,1.18v2.17h-1.27V205.7h1.21v.52a1.9,1.9,0,0,1,1.45-.58A1.72,1.72,0,0,1,319.83,207.58Z" style="fill:#263238"></path><path d="M331.16,216.75c0,.14-16.91.26-37.76.26s-37.76-.12-37.76-.26,16.9-.26,37.76-.26S331.16,216.6,331.16,216.75Z" style="fill:#263238"></path><path d="M331.57,223.06c0,.14-17.2.26-38.4.26s-38.4-.12-38.4-.26,17.19-.26,38.4-.26S331.57,222.91,331.57,223.06Z" style="fill:#263238"></path><path d="M272.21,230.08a74.21,74.21,0,0,1-8.72.26,74.21,74.21,0,0,1-8.72-.26,71.69,71.69,0,0,1,8.72-.26A71.69,71.69,0,0,1,272.21,230.08Z" style="fill:#263238"></path><polygon points="221.21 202.77 214.22 218.94 217.53 222.34 217.52 225 225.9 224.88 225.82 222.16 228.88 218.4 221.21 202.77" style="fill:#fafafa"></polygon><path d="M221.21,202.77c.22.43,3.18,6.43,7.72,15.6v0l0,0-3.06,3.77,0,0c0,.86.05,1.79.08,2.72v.06h-.06l-4.27.06-4.11.06h-.06V225c0-.9,0-1.79,0-2.66l0,0L214.18,219l0,0v0c4.13-9.45,6.86-15.69,7.05-16.14L214.27,219l0-.06,3.32,3.4,0,0v0c0,.87,0,1.75,0,2.66l-.06-.06,4.1-.07,4.28-.06-.06.06c0-.93-.05-1.85-.08-2.72v0h0l3.07-3.77v.06Z" style="fill:#263238"></path><path d="M224.38,215.71a2.51,2.51,0,0,1-2.49,2.58,2.6,2.6,0,0,1-2.64-2.51,2.5,2.5,0,0,1,2.49-2.58A2.6,2.6,0,0,1,224.38,215.71Z" style="fill:#263238"></path><path d="M221.21,202.77s.2,2.9.36,6.48.28,6.49.25,6.49-.2-2.9-.37-6.48S221.18,202.77,221.21,202.77Z" style="fill:#263238"></path><polygon points="226.65 227.72 217.04 227.86 216.94 224.54 226.56 224.4 226.65 227.72" style="fill:#4F46E5"></polygon><polygon points="221.75 202.76 220.7 202.78 220.67 201.66 221.71 201.64 221.75 202.76" style="fill:#4F46E5"></polygon><path d="M229.66,202.27c0,.07-3.68.17-8.22.22s-8.22,0-8.22-.05,3.67-.18,8.21-.22S229.66,202.19,229.66,202.27Z" style="fill:#4F46E5"></path><path d="M229.92,202.2a.38.38,0,0,1-.39.4.41.41,0,0,1-.42-.38.41.41,0,0,1,.81,0Z" style="fill:#4F46E5"></path><path d="M213.43,202.34a.4.4,0,0,1-.39.41.42.42,0,0,1-.42-.39A.4.4,0,0,1,213,202,.41.41,0,0,1,213.43,202.34Z" style="fill:#4F46E5"></path><g style="opacity:0.5"><polygon points="219.58 224.5 222.58 227.69 223.85 227.76 220.77 224.48 219.58 224.5" style="fill:#fff"></polygon></g><rect x="188.5" y="257.6" width="154.12" height="62.63" rx="14.1" style="fill:#f5f5f5"></rect><path d="M260.68,278.48v5.71h-1.32v-2.34h-2.59v2.34h-1.32v-5.71h1.32v2.25h2.59v-2.25Z" style="fill:#263238"></path><path d="M264.77,284a1.86,1.86,0,0,1-1,.27,1.44,1.44,0,0,1-1.64-1.57v-1.8h-.68v-1h.68v-1.06h1.27v1.06h1.09v1h-1.09v1.79a.51.51,0,0,0,.55.57.84.84,0,0,0,.51-.16Z" style="fill:#263238"></path><path d="M272.9,281.68v2.51h-1.27v-2.32c0-.7-.32-1-.83-1s-1,.37-1,1.15v2.2h-1.27v-2.32c0-.7-.31-1-.84-1s-1,.37-1,1.15v2.2h-1.27v-4.38h1.22v.5a1.77,1.77,0,0,1,1.37-.57,1.66,1.66,0,0,1,1.45.72,2,2,0,0,1,1.58-.72A1.7,1.7,0,0,1,272.9,281.68Z" style="fill:#263238"></path><path d="M274.05,278.14h1.27v6.05h-1.27Z" style="fill:#263238"></path><path d="M282.69,281.69v2.5H281.5v-.55a1.45,1.45,0,0,1-1.34.61c-1,0-1.64-.57-1.64-1.32s.55-1.32,1.88-1.32h1c0-.54-.33-.86-1-.86a2.07,2.07,0,0,0-1.26.41l-.45-.89a3.39,3.39,0,0,1,1.89-.53C281.91,279.74,282.69,280.36,282.69,281.69Zm-1.27,1.11v-.44h-.88c-.59,0-.78.22-.78.51s.27.53.72.53A1,1,0,0,0,281.42,282.8Z" style="fill:#263238"></path><path d="M288.32,281.68v2.51h-1.27v-2.32c0-.7-.33-1-.89-1s-1.05.38-1.05,1.18v2.17h-1.27v-4.38h1.21v.51a1.92,1.92,0,0,1,1.45-.58A1.72,1.72,0,0,1,288.32,281.68Z" style="fill:#263238"></path><path d="M294,278.14v6.05h-1.21v-.51a1.68,1.68,0,0,1-1.37.57,2.26,2.26,0,0,1,0-4.51,1.69,1.69,0,0,1,1.31.53v-2.13ZM292.74,282a1.12,1.12,0,1,0-1.11,1.21A1.11,1.11,0,0,0,292.74,282Z" style="fill:#263238"></path><path d="M297.2,281.34a3.15,3.15,0,0,1,5.45-1.94l-.85.78a1.82,1.82,0,0,0-1.43-.67,1.83,1.83,0,1,0,0,3.65,1.82,1.82,0,0,0,1.43-.67l.85.78a3.14,3.14,0,0,1-5.45-1.93Z" style="fill:#263238"></path><path d="M303,283.63l.45-1a3.36,3.36,0,0,0,1.88.6c.79,0,1.1-.26,1.1-.61,0-1.07-3.31-.34-3.31-2.46,0-1,.78-1.77,2.4-1.77a3.86,3.86,0,0,1,2,.5l-.41,1a3.18,3.18,0,0,0-1.58-.44c-.78,0-1.08.29-1.08.65,0,1,3.32.32,3.32,2.42,0,1-.79,1.77-2.42,1.77A4.1,4.1,0,0,1,303,283.63Z" style="fill:#263238"></path><path d="M308.25,283.63l.44-1a3.4,3.4,0,0,0,1.89.6c.78,0,1.1-.26,1.1-.61,0-1.07-3.32-.34-3.32-2.46,0-1,.78-1.77,2.4-1.77a3.86,3.86,0,0,1,2,.5l-.4,1a3.24,3.24,0,0,0-1.58-.44c-.79,0-1.09.29-1.09.65,0,1,3.32.32,3.32,2.42,0,1-.79,1.77-2.42,1.77A4,4,0,0,1,308.25,283.63Z" style="fill:#263238"></path><path d="M331.16,290.85c0,.14-16.91.26-37.76.26s-37.76-.12-37.76-.26,16.9-.26,37.76-.26S331.16,290.7,331.16,290.85Z" style="fill:#263238"></path><path d="M331.57,297.16c0,.14-17.2.26-38.4.26s-38.4-.12-38.4-.26,17.19-.26,38.4-.26S331.57,297,331.57,297.16Z" style="fill:#263238"></path><path d="M272.21,304.18a74.21,74.21,0,0,1-8.72.26,74.21,74.21,0,0,1-8.72-.26,71.69,71.69,0,0,1,8.72-.26A71.69,71.69,0,0,1,272.21,304.18Z" style="fill:#263238"></path><rect x="188.5" y="331.7" width="154.12" height="62.63" rx="16.85" style="fill:#f5f5f5"></rect><path d="M255.45,352.58h1.32v5.71h-1.32Z" style="fill:#263238"></path><path d="M258,352.24h1.27v6.05H258Z" style="fill:#263238"></path><path d="M260.49,352.24h1.27v6.05h-1.27Z" style="fill:#263238"></path><path d="M267.36,353.9v4.39h-1.21v-.52a1.77,1.77,0,0,1-1.36.58,1.74,1.74,0,0,1-1.87-2V353.9h1.27v2.29c0,.74.32,1.06.88,1.06s1-.37,1-1.18V353.9Z" style="fill:#263238"></path><path d="M268.12,357.88l.42-.91a3,3,0,0,0,1.53.42c.58,0,.8-.15.8-.4,0-.71-2.65,0-2.65-1.73,0-.83.75-1.42,2-1.42a3.67,3.67,0,0,1,1.69.38l-.42.91a2.51,2.51,0,0,0-1.27-.33c-.57,0-.81.18-.81.41,0,.75,2.65,0,2.65,1.75,0,.81-.76,1.39-2.07,1.39A3.77,3.77,0,0,1,268.12,357.88Z" style="fill:#263238"></path><path d="M275.7,358.08a1.87,1.87,0,0,1-1,.27,1.44,1.44,0,0,1-1.63-1.57V355h-.68v-1H273v-1.07h1.27V354h1.09v1H274.3v1.78a.51.51,0,0,0,.54.58.85.85,0,0,0,.52-.16Z" style="fill:#263238"></path><path d="M279.14,353.84V355h-.28a1.07,1.07,0,0,0-1.17,1.22v2.07h-1.27V353.9h1.21v.58A1.78,1.78,0,0,1,279.14,353.84Z" style="fill:#263238"></path><path d="M283.75,355.79v2.5h-1.18v-.55a1.45,1.45,0,0,1-1.34.61c-1,0-1.64-.57-1.64-1.32s.55-1.32,1.88-1.32h1c0-.54-.32-.86-1-.86a2.07,2.07,0,0,0-1.26.41l-.46-.89a3.41,3.41,0,0,1,1.89-.53C283,353.84,283.75,354.46,283.75,355.79Zm-1.27,1.11v-.44h-.87c-.59,0-.78.22-.78.51s.27.53.72.53A.93.93,0,0,0,282.48,356.9Z" style="fill:#263238"></path><path d="M287.74,358.08a1.92,1.92,0,0,1-1,.27,1.45,1.45,0,0,1-1.64-1.57V355h-.67v-1h.67v-1.07h1.27V354h1.1v1h-1.1v1.78a.51.51,0,0,0,.55.58.82.82,0,0,0,.51-.16Z" style="fill:#263238"></path><path d="M288.3,352.58a.73.73,0,0,1,.79-.7.71.71,0,0,1,.79.68.79.79,0,0,1-1.58,0Zm.16,1.32h1.27v4.39h-1.27Z" style="fill:#263238"></path><path d="M290.58,356.1a2.42,2.42,0,1,1,2.42,2.25A2.26,2.26,0,0,1,290.58,356.1Zm3.53,0a1.12,1.12,0,1,0-1.11,1.21A1.11,1.11,0,0,0,294.11,356.1Z" style="fill:#263238"></path><path d="M300.73,355.78v2.51h-1.27V356c0-.71-.32-1-.89-1s-1.05.37-1.05,1.18v2.17h-1.27V353.9h1.22v.52a1.89,1.89,0,0,1,1.45-.58A1.71,1.71,0,0,1,300.73,355.78Z" style="fill:#263238"></path><path d="M331.16,365c0,.14-16.91.26-37.76.26s-37.76-.12-37.76-.26,16.9-.26,37.76-.26S331.16,364.8,331.16,365Z" style="fill:#263238"></path><path d="M331.57,371.26c0,.14-17.2.26-38.4.26s-38.4-.12-38.4-.26S272,371,293.17,371,331.57,371.12,331.57,371.26Z" style="fill:#263238"></path><path d="M272.21,378.28a74.21,74.21,0,0,1-8.72.26,74.21,74.21,0,0,1-8.72-.26,71.69,71.69,0,0,1,8.72-.26A71.69,71.69,0,0,1,272.21,378.28Z" style="fill:#263238"></path><path d="M203.74,108.67l0-5.23-2.54,4.26h-1.24l-2.53-4.12v5.09h-2.58V98.79h2.3l3.47,5.71L204,98.79h2.3l0,9.88Z" style="fill:#4F46E5"></path><path d="M216.22,101l-3.3,8c-.81,2-1.93,2.56-3.45,2.56a3.75,3.75,0,0,1-2.21-.69l.93-1.88a1.83,1.83,0,0,0,1.19.45,1,1,0,0,0,1-.65L207.15,101h2.75l1.88,4.68,1.89-4.68Z" style="fill:#4F46E5"></path><path d="M220.64,103.73a5.11,5.11,0,0,1,5.44-5.13,5.23,5.23,0,0,1,4.25,1.86l-1.78,1.61a2.93,2.93,0,0,0-2.33-1.16,2.83,2.83,0,0,0,0,5.65,2.93,2.93,0,0,0,2.33-1.16l1.78,1.61a5.23,5.23,0,0,1-4.25,1.86A5.11,5.11,0,0,1,220.64,103.73Z" style="fill:#4F46E5"></path><path d="M230.73,104.83A4,4,0,0,1,235,100.9c2.53,0,4.32,1.63,4.32,3.93a4.33,4.33,0,0,1-8.63,0Zm5.92,0a1.62,1.62,0,1,0-3.21,0,1.62,1.62,0,1,0,3.21,0Z" style="fill:#4F46E5"></path><path d="M248.65,101v7.65H246.1v-.82a3,3,0,0,1-2.27,1c-1.88,0-3.25-1.07-3.25-3.5V101h2.68v3.84c0,1.19.47,1.65,1.27,1.65s1.44-.52,1.44-1.8V101Z" style="fill:#4F46E5"></path><path d="M255.5,100.9v2.41a4.52,4.52,0,0,0-.6,0,1.67,1.67,0,0,0-1.84,1.89v3.51h-2.68V101h2.55v.92A3.13,3.13,0,0,1,255.5,100.9Z" style="fill:#4F46E5"></path><path d="M256,108l.81-1.83a5.41,5.41,0,0,0,2.67.7c.9,0,1.2-.2,1.2-.52,0-1-4.52.14-4.52-2.92,0-1.44,1.33-2.54,3.73-2.54a6.65,6.65,0,0,1,3,.65l-.81,1.82a4.4,4.4,0,0,0-2.2-.57c-.9,0-1.23.26-1.23.54,0,1.06,4.5-.09,4.5,3,0,1.41-1.29,2.51-3.78,2.51A7,7,0,0,1,256,108Z" style="fill:#4F46E5"></path><path d="M272.12,105.53h-5.56a1.77,1.77,0,0,0,1.88,1.22,2.44,2.44,0,0,0,1.76-.66l1.41,1.47a4.12,4.12,0,0,1-3.26,1.24c-2.72,0-4.49-1.68-4.49-4a4,4,0,0,1,4.21-3.93,3.83,3.83,0,0,1,4.09,4C272.16,105.06,272.14,105.31,272.12,105.53Zm-5.6-1.42h3.13a1.59,1.59,0,0,0-3.13,0Z" style="fill:#4F46E5"></path><path d="M272.8,108l.81-1.83a5.41,5.41,0,0,0,2.67.7c.9,0,1.19-.2,1.19-.52,0-1-4.51.14-4.51-2.92,0-1.44,1.32-2.54,3.72-2.54a6.6,6.6,0,0,1,3,.65l-.8,1.82a4.4,4.4,0,0,0-2.2-.57c-.91,0-1.23.26-1.23.54,0,1.06,4.5-.09,4.5,3,0,1.41-1.3,2.51-3.78,2.51A7,7,0,0,1,272.8,108Z" style="fill:#4F46E5"></path><path d="M336,118.14c0,.14-31.82.26-71.07.26s-71.07-.12-71.07-.26,31.82-.26,71.07-.26S336,118,336,118.14Z" style="fill:#263238"></path><path d="M335.65,126.27c0,.14-31.83.26-71.07.26s-71.08-.12-71.08-.26,31.82-.26,71.08-.26S335.65,126.13,335.65,126.27Z" style="fill:#263238"></path><path d="M271.94,134.53c0,.15-17.56.26-39.22.26s-39.22-.11-39.22-.26,17.56-.26,39.22-.26S271.94,134.39,271.94,134.53Z" style="fill:#263238"></path><rect x="201.45" y="341.1" width="40.75" height="40.75" rx="10.86" style="fill:#455a64"></rect><polygon points="222.23 349.43 215.23 365.6 218.55 369 218.54 371.66 226.91 371.54 226.84 368.82 229.9 365.06 222.23 349.43" style="fill:#fafafa"></polygon><path d="M222.23,349.43l7.71,15.6,0,0,0,0-3.06,3.77v0c0,.86.06,1.78.08,2.72v.06h-.06l-4.28.06-4.1.06h-.06v-.06c0-.9,0-1.79,0-2.66l0,0c-1.15-1.18-2.26-2.31-3.32-3.41l0,0v0c4.13-9.45,6.85-15.7,7-16.14-.2.45-2.88,6.71-6.95,16.19v-.06l3.32,3.4,0,0v0c0,.87,0,1.75,0,2.66l-.06-.07,4.1-.06,4.27-.06,0,.06c0-.93-.06-1.85-.08-2.72v0h0l3.06-3.77v.06Z" style="fill:#263238"></path><path d="M225.4,362.37a2.52,2.52,0,0,1-2.49,2.58,2.6,2.6,0,0,1-2.64-2.51,2.5,2.5,0,0,1,2.49-2.58A2.61,2.61,0,0,1,225.4,362.37Z" style="fill:#263238"></path><path d="M222.23,349.43s.19,2.9.36,6.48.27,6.49.24,6.49-.19-2.9-.36-6.48S222.19,349.43,222.23,349.43Z" style="fill:#263238"></path><polygon points="227.67 374.38 218.06 374.52 217.96 371.2 227.57 371.06 227.67 374.38" style="fill:#4F46E5"></polygon><polygon points="222.76 349.42 221.72 349.44 221.68 348.32 222.72 348.3 222.76 349.42" style="fill:#4F46E5"></polygon><path d="M230.67,348.92c0,.08-3.67.18-8.21.23s-8.23,0-8.23,0,3.68-.18,8.22-.23S230.67,348.85,230.67,348.92Z" style="fill:#4F46E5"></path><path d="M230.94,348.86a.39.39,0,0,1-.39.4.41.41,0,0,1-.42-.38.4.4,0,0,1,.39-.41A.42.42,0,0,1,230.94,348.86Z" style="fill:#4F46E5"></path><path d="M214.45,349a.41.41,0,0,1-.81,0,.39.39,0,0,1,.39-.41A.42.42,0,0,1,214.45,349Z" style="fill:#4F46E5"></path><g style="opacity:0.5"><polygon points="220.59 371.16 223.59 374.35 224.87 374.42 221.78 371.14 220.59 371.16" style="fill:#fff"></polygon></g><rect x="201.45" y="266.88" width="40.75" height="40.75" rx="10.86" style="fill:#263238"></rect><polygon points="222.23 275.21 215.23 291.38 218.55 294.79 218.54 297.45 226.91 297.32 226.84 294.61 229.9 290.84 222.23 275.21" style="fill:#fafafa"></polygon><path d="M222.23,275.21c.21.44,3.18,6.43,7.71,15.61l0,0,0,0-3.06,3.76v0c0,.86.06,1.78.08,2.71v.06h-.06l-4.28.07-4.1.06h-.06v-.06c0-.9,0-1.79,0-2.66l0,0-3.32-3.41,0,0v0l7-16.15c-.2.45-2.88,6.71-6.95,16.19v-.06l3.32,3.41,0,0v0c0,.87,0,1.76,0,2.66l-.06-.06,4.1-.06,4.27-.06,0,.06c0-.94-.06-1.86-.08-2.72v0l3.06-3.76v.05Z" style="fill:#263238"></path><path d="M225.4,288.15a2.51,2.51,0,0,1-2.49,2.58,2.6,2.6,0,0,1-2.64-2.51,2.51,2.51,0,0,1,2.49-2.58A2.61,2.61,0,0,1,225.4,288.15Z" style="fill:#263238"></path><path d="M222.23,275.21s.19,2.9.36,6.49.27,6.49.24,6.49-.19-2.91-.36-6.49S222.19,275.21,222.23,275.21Z" style="fill:#263238"></path><polygon points="227.67 300.16 218.06 300.3 217.96 296.98 227.57 296.84 227.67 300.16" style="fill:#4F46E5"></polygon><polygon points="222.76 275.2 221.72 275.22 221.68 274.1 222.72 274.08 222.76 275.2" style="fill:#4F46E5"></polygon><path d="M230.67,274.71c0,.07-3.67.17-8.21.22s-8.23,0-8.23-.05,3.68-.17,8.22-.22S230.67,274.63,230.67,274.71Z" style="fill:#4F46E5"></path><path d="M230.94,274.64a.4.4,0,0,1-.39.41.42.42,0,0,1-.42-.39.4.4,0,0,1,.39-.41A.42.42,0,0,1,230.94,274.64Z" style="fill:#4F46E5"></path><path d="M214.45,274.79a.39.39,0,0,1-.39.4.4.4,0,0,1-.42-.39.38.38,0,0,1,.39-.4A.41.41,0,0,1,214.45,274.79Z" style="fill:#4F46E5"></path><g style="opacity:0.5"><polygon points="220.59 296.94 223.59 300.13 224.87 300.2 221.78 296.93 220.59 296.94" style="fill:#fff"></polygon></g></g><g id="freepik--screen-1--inject-25"><rect x="274.68" y="84.62" width="180.54" height="382.97" rx="19.96" style="fill:#f5f5f5"></rect><path d="M294.1,84.62H435.79A19.23,19.23,0,0,1,455,103.85v171a0,0,0,0,1,0,0H274.87a0,0,0,0,1,0,0v-171A19.23,19.23,0,0,1,294.1,84.62Z" style="fill:#fff"></path><path d="M293.53,111.57a.49.49,0,0,1-.3-.1l-4.32-3.23a.5.5,0,0,1-.2-.39.51.51,0,0,1,.19-.4l4.32-3.46a.5.5,0,0,1,.63.78L290,107.83l3.8,2.84a.5.5,0,0,1,.1.7A.48.48,0,0,1,293.53,111.57Z" style="fill:#263238"></path><path d="M323.87,356.43a1.37,1.37,0,0,1,1.44-1.39,1.33,1.33,0,0,1,1,.43l-.26.24a1,1,0,0,0-.76-.32,1,1,0,1,0,0,2.09,1,1,0,0,0,.76-.33l.26.25a1.45,1.45,0,0,1-2.48-1Z" style="fill:#263238"></path><path d="M329.24,355.07v2.73h-.39v-1.22h-1.56v1.22h-.39v-2.73h.39v1.17h1.56v-1.17Z" style="fill:#263238"></path><path d="M331.79,357.12h-1.45l-.3.68h-.4l1.24-2.73h.38l1.24,2.73h-.41Zm-.13-.32-.59-1.33-.59,1.33Z" style="fill:#263238"></path><path d="M335.1,356c0,.59-.43,1-1.13,1h-.68v.83h-.39v-2.73H334C334.67,355.07,335.1,355.43,335.1,356Zm-.39,0c0-.39-.26-.61-.76-.61h-.66v1.22H334C334.45,356.63,334.71,356.41,334.71,356Z" style="fill:#263238"></path><path d="M336.13,355.41h-.94v-.34h2.26v.34h-.94v2.39h-.38Z" style="fill:#263238"></path><path d="M339.84,357.46v.34h-2v-2.73h1.92v.34h-1.53v.84h1.36v.33h-1.36v.88Z" style="fill:#263238"></path><path d="M342.29,357.8l-.58-.84h-.85v.83h-.39v-2.73h1.06c.71,0,1.14.36,1.14.95a.86.86,0,0,1-.6.86l.65.92Zm0-1.78c0-.39-.26-.61-.76-.61h-.66v1.23h.66C342,356.64,342.28,356.41,342.28,356Z" style="fill:#263238"></path><path d="M346,357.46v.34h-2v-.27l1.11-1.07c.29-.28.34-.45.34-.62s-.2-.45-.58-.45a.84.84,0,0,0-.69.29l-.27-.23a1.26,1.26,0,0,1,1-.41c.57,0,.93.29.93.76a1.13,1.13,0,0,1-.45.86l-.83.8Z" style="fill:#263238"></path><path d="M333.12,362.24l-1.9,5.79h-1.44l-1.27-3.92L327.19,368h-1.43l-1.9-5.79h1.39l1.31,4.07,1.36-4.07h1.24l1.33,4.1,1.34-4.1Z" style="fill:#263238"></path><path d="M338.44,365.48V368h-1.29v-2.35c0-.72-.33-1.05-.9-1.05s-1.07.38-1.07,1.2V368h-1.29v-6.14h1.29V364a1.94,1.94,0,0,1,1.41-.53A1.74,1.74,0,0,1,338.44,365.48Z" style="fill:#263238"></path><path d="M343.54,365.49V368h-1.21v-.56a1.44,1.44,0,0,1-1.35.62c-1.05,0-1.67-.58-1.67-1.34s.56-1.34,1.91-1.34h1c0-.55-.33-.87-1-.87a2.11,2.11,0,0,0-1.28.41l-.46-.9a3.41,3.41,0,0,1,1.92-.54C342.75,363.51,343.54,364.14,343.54,365.49Zm-1.29,1.13v-.45h-.89c-.6,0-.79.22-.79.52s.27.54.73.54A1,1,0,0,0,342.25,366.62Z" style="fill:#263238"></path><path d="M347.57,367.81a1.83,1.83,0,0,1-1.05.28,1.46,1.46,0,0,1-1.66-1.59v-1.83h-.69v-1h.69v-1.09h1.29v1.09h1.11v1h-1.11v1.81a.52.52,0,0,0,.55.59.9.9,0,0,0,.53-.17Z" style="fill:#263238"></path><path d="M350.48,362.24a.81.81,0,0,1,1.61,0,.75.75,0,0,1-.81.75A.74.74,0,0,1,350.48,362.24Zm.16,1.34h1.29V368h-1.29Z" style="fill:#263238"></path><path d="M352.7,367.61l.43-.92a3.08,3.08,0,0,0,1.54.43c.6,0,.82-.16.82-.41,0-.73-2.69,0-2.69-1.76,0-.84.76-1.44,2.06-1.44a3.6,3.6,0,0,1,1.71.39l-.42.92a2.56,2.56,0,0,0-1.29-.33c-.58,0-.82.18-.82.41,0,.76,2.68,0,2.68,1.78,0,.83-.77,1.41-2.1,1.41A3.72,3.72,0,0,1,352.7,367.61Z" style="fill:#263238"></path><path d="M364.39,361.89V368h-1.24v-.52a1.69,1.69,0,0,1-1.38.58,2.29,2.29,0,0,1,0-4.58,1.74,1.74,0,0,1,1.33.54v-2.16Zm-1.27,3.91A1.14,1.14,0,1,0,362,367,1.12,1.12,0,0,0,363.12,365.8Z" style="fill:#263238"></path><path d="M369.91,366.17h-3.37a1.2,1.2,0,0,0,1.28.89,1.48,1.48,0,0,0,1.11-.43l.69.74a2.6,2.6,0,0,1-4.38-1.57,2.27,2.27,0,0,1,2.38-2.29,2.2,2.2,0,0,1,2.31,2.31C369.93,365.92,369.92,366.06,369.91,366.17Zm-3.38-.76h2.19a1.11,1.11,0,0,0-2.19,0Z" style="fill:#263238"></path><path d="M370.36,367.61l.43-.92a3.12,3.12,0,0,0,1.55.43c.59,0,.82-.16.82-.41,0-.73-2.69,0-2.69-1.76,0-.84.76-1.44,2.06-1.44a3.63,3.63,0,0,1,1.71.39l-.43.92a2.54,2.54,0,0,0-1.28-.33c-.58,0-.83.18-.83.41,0,.76,2.69,0,2.69,1.78,0,.83-.77,1.41-2.1,1.41A3.79,3.79,0,0,1,370.36,367.61Z" style="fill:#263238"></path><path d="M375,362.24a.74.74,0,0,1,.81-.72.72.72,0,0,1,.8.69.81.81,0,0,1-1.61,0Zm.16,1.34h1.29V368h-1.29Z" style="fill:#263238"></path><path d="M382.26,363.58v3.7a2.18,2.18,0,0,1-2.5,2.42,3.7,3.7,0,0,1-2.18-.61l.51-.93a2.63,2.63,0,0,0,1.57.5c.91,0,1.31-.41,1.31-1.21v-.19a1.85,1.85,0,0,1-1.41.55,2.15,2.15,0,1,1,0-4.3,1.81,1.81,0,0,1,1.48.64v-.57ZM381,365.66a1.17,1.17,0,1,0-1.17,1.09A1.08,1.08,0,0,0,381,365.66Z" style="fill:#263238"></path><path d="M388,365.48V368h-1.29v-2.35c0-.72-.33-1.05-.9-1.05s-1.06.38-1.06,1.2V368h-1.29v-4.45h1.23v.52a1.94,1.94,0,0,1,1.47-.59A1.74,1.74,0,0,1,388,365.48Z" style="fill:#263238"></path><path d="M391.29,363.88c0-.4-.35-.66-.89-.66a1.41,1.41,0,0,0-1.2.61l-1-.58a2.63,2.63,0,0,1,2.34-1.11c1.24,0,2.1.55,2.1,1.53,0,1.32-1.39,1.47-1.39,2.35H390C390,364.86,391.29,364.6,391.29,363.88Zm-1.45,3.46a.8.8,0,0,1,1.59,0,.8.8,0,0,1-1.59,0Z" style="fill:#263238"></path><path d="M410.79,450.28H322.53a12.62,12.62,0,0,1-12.61-12.61h0a12.62,12.62,0,0,1,12.61-12.61h88.26a12.61,12.61,0,0,1,12.61,12.61h0A12.61,12.61,0,0,1,410.79,450.28Z" style="fill:#4F46E5"></path><path d="M342,435.39v5.33h-1l-2.66-3.23v3.23H337.1v-5.33h1l2.65,3.24v-3.24Z" style="fill:#fff"></path><path d="M347.38,439.73v1h-4.13v-5.33h4v1h-2.8v1.16H347v1h-2.47v1.23Z" style="fill:#fff"></path><path d="M351.67,440.72l-1.29-1.85-1.26,1.85H347.7l2-2.71-1.87-2.62h1.4l1.23,1.73,1.2-1.73H353L351.11,438l2,2.75Z" style="fill:#fff"></path><path d="M354.62,436.4h-1.7v-1h4.64v1h-1.7v4.32h-1.24Z" style="fill:#fff"></path><path d="M360,438.06a2.94,2.94,0,0,1,5.09-1.82l-.79.74a1.7,1.7,0,0,0-1.34-.63,1.71,1.71,0,1,0,0,3.41,1.7,1.7,0,0,0,1.34-.63l.79.73a2.93,2.93,0,0,1-5.09-1.8Z" style="fill:#fff"></path><path d="M370.85,435.39v5.33h-1.23v-2.18h-2.43v2.18H366v-5.33h1.23v2.1h2.43v-2.1Z" style="fill:#fff"></path><path d="M375.62,439.58h-2.47l-.47,1.14h-1.27l2.38-5.33H375l2.38,5.33H376.1Zm-.39-.94-.84-2-.85,2Z" style="fill:#fff"></path><path d="M382.57,437.33c0,1.18-.89,1.92-2.32,1.92h-1.07v1.47h-1.24v-5.33h2.31C381.68,435.39,382.57,436.13,382.57,437.33Zm-1.25,0c0-.59-.38-.93-1.14-.93h-1v1.85h1C380.94,438.25,381.32,437.9,381.32,437.33Z" style="fill:#fff"></path><path d="M384.4,436.4h-1.7v-1h4.64v1h-1.7v4.32H384.4Z" style="fill:#fff"></path><path d="M392.13,439.73v1H388v-5.33h4v1h-2.8v1.16h2.47v1h-2.47v1.23Z" style="fill:#fff"></path><path d="M396.51,440.72l-1-1.48h-1.13v1.48h-1.24v-5.33h2.31c1.42,0,2.31.74,2.31,1.94a1.73,1.73,0,0,1-1.09,1.68l1.19,1.71Zm-1.16-4.32h-1v1.86h1c.76,0,1.14-.36,1.14-.93S396.11,436.4,395.35,436.4Z" style="fill:#fff"></path><path d="M291.56,298.78a1.37,1.37,0,0,1,1.44-1.39,1.36,1.36,0,0,1,1,.42l-.26.25a1,1,0,0,0-.76-.32,1,1,0,1,0,0,2.09,1,1,0,0,0,.76-.33l.26.25a1.45,1.45,0,0,1-2.48-1Z" style="fill:#263238"></path><path d="M296.94,297.42v2.72h-.39v-1.21H295v1.21h-.39v-2.72H295v1.17h1.57v-1.17Z" style="fill:#263238"></path><path d="M299.48,299.46H298l-.3.68h-.4l1.23-2.72H299l1.23,2.72h-.41Zm-.13-.31-.59-1.33-.59,1.33Z" style="fill:#263238"></path><path d="M302.79,298.37c0,.59-.42.95-1.13.95H301v.82h-.38v-2.72h1.06C302.37,297.42,302.79,297.78,302.79,298.37Zm-.39,0c0-.39-.26-.61-.75-.61H301V299h.67C302.14,299,302.4,298.76,302.4,298.37Z" style="fill:#263238"></path><path d="M303.82,297.76h-.93v-.34h2.25v.34h-.94v2.38h-.38Z" style="fill:#263238"></path><path d="M307.54,299.81v.33h-2v-2.72h1.92v.34H306v.84h1.36v.33H306v.88Z" style="fill:#263238"></path><path d="M310,300.14l-.59-.83h-.85v.83h-.39v-2.72h1.07c.71,0,1.13.36,1.13.95a.85.85,0,0,1-.6.86l.65.91Zm0-1.77c0-.39-.26-.61-.75-.61h-.67V299h.67C309.71,299,310,298.76,310,298.37Z" style="fill:#263238"></path><path d="M312.66,297.42v2.72h-.38v-2.38h-.62v-.34Z" style="fill:#263238"></path><path d="M292,305.71h1.2v5.16H292Z" style="fill:#263238"></path><path d="M299.13,305.71v5.16h-1l-2.57-3.13v3.13H294.4v-5.16h1l2.56,3.14v-3.14Z" style="fill:#263238"></path><path d="M301.42,306.69h-1.65v-1h4.5v1h-1.65v4.18h-1.2Z" style="fill:#263238"></path><path d="M308.19,310.87l-1-1.44h-1.1v1.44h-1.19v-5.16h2.23c1.38,0,2.24.72,2.24,1.88a1.66,1.66,0,0,1-1.06,1.62l1.16,1.66Zm-1.12-4.18h-1v1.79h1c.73,0,1.1-.33,1.1-.89S307.8,306.69,307.07,306.69Z" style="fill:#263238"></path><path d="M310,308.29a2.82,2.82,0,1,1,2.82,2.67A2.66,2.66,0,0,1,310,308.29Zm4.44,0a1.62,1.62,0,1,0-1.62,1.65A1.58,1.58,0,0,0,314.44,308.29Z" style="fill:#263238"></path><path d="M316.54,305.71h2.34a2.59,2.59,0,1,1,0,5.16h-2.34Zm2.28,4.18a1.6,1.6,0,1,0,0-3.2h-1.09v3.2Z" style="fill:#263238"></path><path d="M322.58,308.6v-2.89h1.2v2.85c0,1,.42,1.38,1.15,1.38s1.14-.4,1.14-1.38v-2.85h1.18v2.89a2.34,2.34,0,1,1-4.67,0Z" style="fill:#263238"></path><path d="M328.11,308.29a2.84,2.84,0,0,1,4.92-1.75l-.77.71a1.64,1.64,0,0,0-1.29-.61,1.65,1.65,0,0,0,0,3.3,1.61,1.61,0,0,0,1.29-.61l.77.71a2.83,2.83,0,0,1-4.92-1.75Z" style="fill:#263238"></path><path d="M334.85,306.69H333.2v-1h4.49v1H336v4.18h-1.19Z" style="fill:#263238"></path><path d="M338.33,305.71h1.2v5.16h-1.2Z" style="fill:#263238"></path><path d="M340.43,308.29a2.82,2.82,0,1,1,2.82,2.67A2.66,2.66,0,0,1,340.43,308.29Zm4.43,0a1.62,1.62,0,1,0-1.61,1.65A1.57,1.57,0,0,0,344.86,308.29Z" style="fill:#263238"></path><path d="M351.7,305.71v5.16h-1l-2.57-3.13v3.13H347v-5.16h1l2.56,3.14v-3.14Z" style="fill:#263238"></path><path d="M366.14,332.15h2.08a.49.49,0,0,1,.38.78l-1.06,1.46a.46.46,0,0,1-.76,0l-1-1.46A.48.48,0,0,1,366.14,332.15Z" style="fill:#e0e0e0"></path><path d="M434.8,318.17s.19,0,.58,0l1.83,0v.13c-7.78.11-36.84.2-71.46.2l-52.23-.08-15.83-.08-4.31,0-1.12,0a1.59,1.59,0,0,1-.38,0l.38,0,1.12,0,4.31-.05,15.83-.09,52.23-.07c34.62,0,63.68.08,71.46.19v.13l-1.83,0C435,318.19,434.8,318.17,434.8,318.17Z" style="fill:#263238"></path><path d="M437.34,326.32c0,.14-32.38.26-72.3.26s-72.31-.12-72.31-.26,32.37-.26,72.31-.26S437.34,326.18,437.34,326.32Z" style="fill:#263238"></path><path d="M436.85,337.62c0,.14-32.38.26-72.3.26s-72.31-.12-72.31-.26,32.37-.26,72.31-.26S436.85,337.48,436.85,337.62Z" style="fill:#e0e0e0"></path><path d="M437.44,199.23l4.27-5.83,4.82-7.86,3.14-7.14s.11-.84-1-.92-2.8,3.84-2.8,3.84L444.2,184s-1.84,1.68-1.87,1.41,1.87-4.11,1.87-4.11l3.72-8.5a1.22,1.22,0,0,0-.91-1.39c-.63-.19-1.47.33-2.17,1.48s-1.51,3.37-1.9,4-2.47,4.6-2.47,4.6l3.24-10.14s1.41-3,0-3.44-2,2.09-2.53,3-2.81,7.73-4.05,9.23-.94.53-.94.53l2.06-5.52c.9-2.43.95-4.17.15-4.94s-2.89,4.87-2.89,4.87l-3.1,7.76-1.85,1.88-.17-3s1.69-2.55.84-4.68-2.07-1.23-2.07-1.23l-3.78,11.77c-.4,2.07,2.6,7.89,2.6,7.89l-6,10.35s9.91,6.49,10.35,6.35S437.44,199.23,437.44,199.23Z" style="fill:#ffbf9d"></path><path d="M436.36,193.3a11.78,11.78,0,0,1-.57-2,6.61,6.61,0,0,0-2.61-4,3.5,3.5,0,0,0-2.26-.58l-.27,0v-.3c-.06-1.28-.24-2.49-.28-3.3s0-1.33,0-1.33a6.7,6.7,0,0,1,.27,1.29,32.4,32.4,0,0,1,.48,3.37l-.28-.26a3.88,3.88,0,0,1,2.6.63,5.46,5.46,0,0,1,2,2.16,8.48,8.48,0,0,1,.75,2.23A6.39,6.39,0,0,1,436.36,193.3Z" style="fill:#ff9a6c"></path><path d="M346.79,107a4.5,4.5,0,0,1,4.61-2.38,6.14,6.14,0,0,1,7.55,0,5.45,5.45,0,0,1,8.31,4.29,4.55,4.55,0,0,1,4.14,7.59,4.38,4.38,0,0,1-1.67,8.55l-22-12.94A4.47,4.47,0,0,1,346.79,107Z" style="fill:#263238"></path><path d="M370.38,125.64a18.58,18.58,0,0,0-18.87-16.7l-1,0c-10.36.82-15.45,10.08-14.34,20.41l2.21,34.5,1.51,4.32,17.84,22.36,4.5-20.15.09-9.35s9.94-1.76,9.85-11.73C372.17,144.51,371.29,134.6,370.38,125.64Z" style="fill:#ffbf9d"></path><path d="M362.35,161.06a24.11,24.11,0,0,1-13.05-3.58s3.2,7.13,13,6.06Z" style="fill:#ff9a6c"></path><path d="M366.42,135.47a1.43,1.43,0,0,1-1.35,1.47,1.36,1.36,0,0,1-1.49-1.25,1.43,1.43,0,0,1,1.34-1.47A1.37,1.37,0,0,1,366.42,135.47Z" style="fill:#263238"></path><path d="M368.46,131.07c-.18.19-1.27-.59-2.8-.55s-2.64.82-2.81.64.09-.42.57-.79a3.84,3.84,0,0,1,2.24-.74,3.73,3.73,0,0,1,2.24.67C368.38,130.65,368.54,131,368.46,131.07Z" style="fill:#263238"></path><path d="M353.14,135.86a1.42,1.42,0,0,1-1.34,1.46,1.36,1.36,0,0,1-1.49-1.25,1.43,1.43,0,0,1,1.34-1.47A1.37,1.37,0,0,1,353.14,135.86Z" style="fill:#263238"></path><path d="M353.8,131.16c-.17.18-1.27-.59-2.8-.56s-2.64.83-2.81.64.09-.42.57-.78a3.85,3.85,0,0,1,2.25-.74,3.72,3.72,0,0,1,2.23.67C353.72,130.74,353.88,131.07,353.8,131.16Z" style="fill:#263238"></path><path d="M359.08,142.4a10.61,10.61,0,0,1,2.48-.5c.39,0,.75-.13.81-.4a1.94,1.94,0,0,0-.28-1.15c-.39-.94-.79-1.93-1.22-3-1.69-4.2-2.93-7.67-2.76-7.73s1.68,3.29,3.38,7.49l1.17,3a2.29,2.29,0,0,1,.23,1.53,1,1,0,0,1-.63.58,3,3,0,0,1-.66.11A9.89,9.89,0,0,1,359.08,142.4Z" style="fill:#263238"></path><path d="M353.73,126.78c-.18.4-1.5.07-3.11.13s-2.93.42-3.1,0c-.08-.19.19-.56.74-.91a4.72,4.72,0,0,1,2.37-.67,4.55,4.55,0,0,1,2.36.55C353.54,126.23,353.8,126.59,353.73,126.78Z" style="fill:#263238"></path><path d="M368,126.87c-.23.38-1.32.13-2.58.24s-2.31.47-2.59.13c-.13-.16,0-.52.44-.9a3.58,3.58,0,0,1,2-.78,3.53,3.53,0,0,1,2.13.48C367.94,126.35,368.12,126.69,368,126.87Z" style="fill:#263238"></path><path d="M369.32,121.09s-2.75-6.19-5.79-7.58c-3.68-1.69-5.17,2.34-8.66,1.44s-7-2.52-10.5.24c-3.83,3-2,5-2.11,9.47-.61,18-3.78,23.09-4.88,14.66-.12-.92-2.71-1.6-3.17-5.51-.6-5.06-.92-11.21.14-14.83.89-3,2.58-5.18,5.63-7.55,4.82-3.75,11.54-4,16.11-3.6S369.58,113.26,369.32,121.09Z" style="fill:#263238"></path><path d="M338,139a2.71,2.71,0,0,0-3-2.55c-1.85.22-3.9,1.31-3.7,5.15.36,6.81,7.12,5.05,7.12,4.85S338.18,141.89,338,139Z" style="fill:#ffbf9d"></path><path d="M336.84,144s-.12.09-.31.19a1.17,1.17,0,0,1-.89.06,2.91,2.91,0,0,1-1.49-2.56,3.81,3.81,0,0,1,.24-1.71,1.36,1.36,0,0,1,.84-1,.6.6,0,0,1,.72.29c.1.18.07.32.1.33s.14-.12.07-.4a.71.71,0,0,0-.29-.41.86.86,0,0,0-.66-.14,1.67,1.67,0,0,0-1.19,1.12,4.14,4.14,0,0,0-.31,1.92c.12,1.37.89,2.62,1.89,2.85a1.27,1.27,0,0,0,1.07-.24C336.83,144.17,336.86,144,336.84,144Z" style="fill:#ff9a6c"></path><path d="M337.87,125.83a6.38,6.38,0,0,0,2.91,1.27,2.22,2.22,0,0,0,2.44-1.61c.07-.48-.06-1,.24-1.4s1.06-.32,1.63-.27a4.35,4.35,0,0,0,4.45-3.21,1.83,1.83,0,0,0,2.45.18,10,10,0,0,0,1.82-2,2.79,2.79,0,0,1,2.31-1.22,6.65,6.65,0,0,0,1.49.29c.9-.1,1.31-1.15,1.43-2s.2-1.93.95-2.43a3.59,3.59,0,0,1,2.43-.12c.83.11,1.89-.11,2.08-.92a1.64,1.64,0,0,0-.33-1.23,4.4,4.4,0,0,0-5.24-1.56,6,6,0,0,0-11-.94,6.07,6.07,0,0,0-9.66,2.42,4.4,4.4,0,0,0-4.83,6.5,4.19,4.19,0,0,0-2.23,3.38c0,1.41,1.41,2.78,2.76,2.38a2.44,2.44,0,0,0,4.27,2.35" style="fill:#263238"></path><path d="M333.45,123.28a1.66,1.66,0,0,0,.46,1.3,2.15,2.15,0,0,0,1.38.79,2.37,2.37,0,0,0,1.93-.61l-.29,0a7.14,7.14,0,0,0,1.39,1.67,3.84,3.84,0,0,0,1.26.74,2.63,2.63,0,0,0,1.38.1,2.67,2.67,0,0,0,1.94-1.17,3.83,3.83,0,0,0,.52-1.42c.06-.35.07-.55,0-.56a2.13,2.13,0,0,0-.19.52,4.27,4.27,0,0,1-.6,1.31,2.78,2.78,0,0,1-4.09.18,6.69,6.69,0,0,1-1.33-1.57l-.13-.2-.16.16a2.05,2.05,0,0,1-1.63.56,2,2,0,0,1-1.25-.62A3.39,3.39,0,0,1,333.45,123.28Z" style="fill:#455a64"></path><path d="M346,107.45s.18,0,.49.17a2.27,2.27,0,0,1,1.07.88l.09.12.09-.12a8.46,8.46,0,0,1,3.24-2.74,6.4,6.4,0,0,1,2.67-.64,5.48,5.48,0,0,1,2.9.76,5.59,5.59,0,0,1,1.75,1.59,4.67,4.67,0,0,1,.8,2l0,.22.21-.06a3.73,3.73,0,0,1,4.42,1.91,5.27,5.27,0,0,1,.47,2,1.78,1.78,0,0,0,.07-.56,3.8,3.8,0,0,0-.34-1.54,3.91,3.91,0,0,0-1.64-1.8,4.08,4.08,0,0,0-3.09-.37l.24.15a4.93,4.93,0,0,0-.84-2.21,5.84,5.84,0,0,0-1.87-1.72,5.76,5.76,0,0,0-3.11-.8,6.66,6.66,0,0,0-2.81.71,8.31,8.31,0,0,0-3.27,2.93h.18a2.36,2.36,0,0,0-1.22-.87A1.15,1.15,0,0,0,346,107.45Z" style="fill:#455a64"></path><path d="M355,144.8s-2,4.11,2.24,5.09a2,2,0,0,0,1.11-.06h0a2,2,0,0,0,1.32-1.42l.58-2.23C360.09,146.23,355,144.8,355,144.8Z" style="fill:#ff9a6c"></path><path d="M358.73,149.67c0,.06-.1.24-.47.37a2.82,2.82,0,0,1-1.59,0,3.65,3.65,0,0,1-2.05-1.3,3.86,3.86,0,0,1-.53-1.37,4.09,4.09,0,0,1,0-1.56,5.45,5.45,0,0,1,.49-1.41l.2-.4.43.14c3,.93,5.16,1.8,5.09,2s-2.4-.23-5.42-1.08l.62-.26a5.28,5.28,0,0,0-.39,1.16,3.34,3.34,0,0,0,0,1.18,3.13,3.13,0,0,0,.32,1,3.3,3.3,0,0,0,1.48,1.13,3.74,3.74,0,0,0,1.29.31C358.51,149.65,358.69,149.61,358.73,149.67Z" style="fill:#263238"></path><polygon points="383.66 273.48 373.9 184.21 365.7 166.73 362.46 163.52 360.49 171.29 357.74 181.2 350.21 171.65 338.32 162.33 338.05 166.93 332.34 183.79 337.07 227.8 337.07 273.38 383.66 273.48" style="fill:#fff"></polygon><path d="M362.34,273.38s0-.08,0-.23,0-.41,0-.7c0-.63-.06-1.53-.1-2.67-.08-2.35-.19-5.71-.33-9.85-.29-8.31-.75-19.78-1.4-32.45s-1.39-24.14-2-32.43c-.29-4.13-.52-7.49-.69-9.83-.07-1.14-.13-2-.18-2.67q0-.44,0-.69a.73.73,0,0,1,0-.24l0,.23c0,.18,0,.41.07.7.06.63.14,1.52.25,2.66.2,2.32.48,5.67.79,9.82.64,8.29,1.41,19.76,2.06,32.43s1.08,24.15,1.3,32.47c.12,4.15.19,7.52.22,9.84,0,1.15,0,2.05,0,2.68v.7A1,1,0,0,1,362.34,273.38Z" style="fill:#263238"></path><path d="M343.09,273.15a84.55,84.55,0,0,1,.2-10.29c.37-7,.77-19.54.14-27-1.18-14-3.83-37-4-43.11s-1.24-29-1.24-29l-1.72,3-2.75,3.78L309,182.38l13.66,42.75,4.5,16.87-7.83,31.48" style="fill:#455a64"></path><path d="M379.49,273.82c-.17-4.38-4.79-40.93-4.79-40.93l-6.08-57.2-4.57-11.22,7.45,4.35,24.12,7.93-1.93,17.06L392.58,238l5.1,35.53" style="fill:#455a64"></path><path d="M372,168.8a2.5,2.5,0,0,1,.31.34l.83,1,3.09,3.88.07.08-.08.07-2.63,2,0-.22,3.07,1,.1,0v.1c-.06,5.49-.13,12.4-.21,19.89-.14,9.14-.26,17.41-.34,23.43-.06,3-.11,5.4-.15,7.1l-.05,1.93,0,.51c0,.11,0,.17,0,.17a1.15,1.15,0,0,1,0-.17v-.51c0-.47,0-1.11,0-1.93,0-1.7,0-4.12,0-7.1.06-6,.15-14.3.24-23.44.11-7.49.21-14.4.28-19.88l.1.13-3.07-1-.23-.08.19-.14,2.65-2,0,.15-3-3.94-.79-1A4.13,4.13,0,0,1,372,168.8Z" style="fill:#263238"></path><path d="M342,228.67l-.06-.17c0-.13-.1-.29-.16-.49-.15-.46-.35-1.09-.62-1.89-.53-1.64-1.33-4-2.36-6.92l-1.7-4.76a56.69,56.69,0,0,1-1.73-5.54,128,128,0,0,1-2.42-13.07c-.83-6.09-1.37-11.82-1.7-16.76V179l.05,0,2.66-2.56v.21l-2.52-1.92-.09-.07.07-.1,4.54-6.16,1.25-1.66.33-.43.12-.14s0,.06-.09.16l-.3.45-1.2,1.7-4.45,6.23,0-.18,2.54,1.9.12.09-.11.12-2.64,2.57.05-.12c.36,4.93.91,10.66,1.75,16.73a129.46,129.46,0,0,0,2.38,13,57.54,57.54,0,0,0,1.69,5.53c.6,1.71,1.15,3.31,1.66,4.77,1,2.92,1.76,5.3,2.26,7,.25.82.44,1.47.56,1.91l.12.5C342,228.61,342,228.66,342,228.67Z" style="fill:#263238"></path><g style="opacity:0.30000000000000004"><polygon points="322.62 260.19 335.72 265.32 336.59 262.4 343.08 267.81 343.43 259.74 337.73 251.74 323.58 256.33 322.62 260.19"></polygon></g><path d="M367.11,260.08l-5.31-3.22-4.67-4.23a11.81,11.81,0,0,0,3.63,2,3,3,0,0,0,3.42-1.28s-1.91-1.21-2.57-1.57-7.28-5.31-9-5.67-12.76-2.63-12.76-2.63l-.17.58-5.48,11.67,4.87,1.3a33.44,33.44,0,0,1,2.48,4.09c1.09,2.19,6.4,4.35,8.45,5.42s4.35-.81,4.35-.81c2.35.54,2.93-2,2.93-2,2.7-.37,2.93-3.31,2.93-3.31a65,65,0,0,0,6.41,2.17.93.93,0,0,0,1.12-.59A1.56,1.56,0,0,0,367.11,260.08Z" style="fill:#ffbf9d"></path><path d="M360.25,260.41a13.1,13.1,0,0,1-3.1-1.39,10,10,0,0,1-2.76-2c.06-.08,1.3.79,2.93,1.68A21.68,21.68,0,0,1,360.25,260.41Z" style="fill:#ff9a6c"></path><path d="M351.64,260a14,14,0,0,1,3.05,1.81,29.42,29.42,0,0,1,2.88,2.07,13.24,13.24,0,0,1-3.07-1.78A25.25,25.25,0,0,1,351.64,260Z" style="fill:#ff9a6c"></path><path d="M349.53,262.24c.06-.07,1.09.79,2.46,1.71a13.75,13.75,0,0,1,2.4,1.81,12.55,12.55,0,0,1-2.6-1.52A7.86,7.86,0,0,1,349.53,262.24Z" style="fill:#ff9a6c"></path><path d="M350.89,248a3,3,0,0,1,1.19.26,9,9,0,0,1,2.55,1.42,12.32,12.32,0,0,1,2.05,2.08,3.42,3.42,0,0,1,.64,1,40.07,40.07,0,0,0-2.91-2.82A15.52,15.52,0,0,0,350.89,248Z" style="fill:#ff9a6c"></path><path d="M299.62,246.39a5,5,0,0,1-2.34-4.06,44.2,44.2,0,0,1,.4-6.91c.93-7.79,11.28-53,11.28-53l15.24,35.26L319.79,233l22.45,10.75L336,261.38S306.16,250.46,299.62,246.39Z" style="fill:#455a64"></path><path d="M425.57,193.11l-11.73,18.28-18.22-34.64L389.33,200l3.59,16.39,13.36,20c2.24,3.33,9.34,4.56,13.93-.7L440,202.82Z" style="fill:#455a64"></path><path d="M393.06,187.92a3.89,3.89,0,0,1,0,.5c0,.35,0,.82,0,1.41,0,1.27.06,3,.1,5.21.05,4.4.08,10.47,0,17.18s-.2,12.79-.34,17.19c-.08,2.17-.15,3.94-.2,5.2,0,.59,0,1.06-.07,1.42a2.75,2.75,0,0,1-.05.49,2.66,2.66,0,0,1,0-.49c0-.36,0-.83,0-1.42,0-1.27.05-3,.08-5.21.08-4.39.18-10.47.25-17.18S393,199.44,393,195c0-2.17,0-3.94,0-5.21,0-.58,0-1.06,0-1.41A1.61,1.61,0,0,1,393.06,187.92Z" style="fill:#263238"></path><path d="M314.93,192.81a2,2,0,0,1,.14.39l.34,1.16c.3,1,.71,2.48,1.21,4.25,1,3.59,2.37,8.56,3.77,14.08s2.5,10.56,3.19,14.22c.35,1.84.62,3.33.77,4.36.08.48.14.88.18,1.18a1.91,1.91,0,0,1,0,.42,1.63,1.63,0,0,1-.11-.4l-.24-1.18c-.21-1.06-.51-2.53-.88-4.33-.75-3.65-1.89-8.67-3.29-14.19s-2.73-10.49-3.67-14.1c-.45-1.77-.83-3.23-1.1-4.28-.11-.48-.21-.86-.28-1.17A1.84,1.84,0,0,1,314.93,192.81Z" style="fill:#263238"></path><path d="M307.06,250l.14.05.42.15,1.62.6,6,2.32,20.78,8.09-.22.1c1.31-3.69,2.72-7.69,4.19-11.83l2.06-5.81.08.22L320,233.19h0a13.34,13.34,0,0,0-5.24-.6,13,13,0,0,0-3.87,1,16.89,16.89,0,0,0-2.26,1.18l-.55.37c-.13.08-.19.12-.2.11l.18-.14.54-.4a15,15,0,0,1,2.23-1.25,12.91,12.91,0,0,1,9.25-.49h0l22.23,10.63.14.06-.05.15-2.06,5.81-4.2,11.82-.05.17-.16-.07-20.74-8.21-6-2.4-1.6-.66-.41-.18C307.1,250,307.05,250,307.06,250Z" style="fill:#263238"></path><path d="M357.46,180.85a4.57,4.57,0,0,1-.63-.57l-1.68-1.67-5.65-5.77h.25a7,7,0,0,0-1.46,3.1,7.12,7.12,0,0,0-.14,1.82l0,.39-.3-.25c-2.86-2.32-5.17-4.59-6.91-6.14l-2-1.83a6.93,6.93,0,0,1-.73-.67,5,5,0,0,1,.81.58c.51.39,1.24,1,2.12,1.75,1.77,1.51,4.12,3.75,7,6l-.27.15a6.9,6.9,0,0,1,.14-1.91,7.17,7.17,0,0,1,1.54-3.25l.12-.14.13.13,5.56,5.86,1.61,1.73A4.53,4.53,0,0,1,357.46,180.85Z" style="fill:#263238"></path><path d="M365,168.22a1.86,1.86,0,0,1,0,.53c0,.35,0,.85-.07,1.49a31.55,31.55,0,0,1-.84,5.09l-.1.42-.2-.38a12.61,12.61,0,0,0-2.19-3c-.25-.25-.51-.49-.76-.71l.28-.09a47.42,47.42,0,0,1-2.05,6.75c-.32.83-.6,1.49-.81,1.94a4.08,4.08,0,0,1-.36.68,3.83,3.83,0,0,1,.24-.73l.71-2a59.44,59.44,0,0,0,1.93-6.75l.06-.28.22.19a10.56,10.56,0,0,1,.78.73,12.3,12.3,0,0,1,2.24,3.12l-.3,0a38.73,38.73,0,0,0,.95-5C364.93,169,365,168.22,365,168.22Z" style="fill:#263238"></path><polygon points="385.51 257.01 387.53 263.26 398.91 262.21 395.36 256.24 385.51 257.01" style="fill:#455a64"></polygon><path d="M385.52,257a4.26,4.26,0,0,1,.67-.08l2-.2c1.72-.17,4.2-.4,7.16-.65h.1l.05.08,3.56,6,.14.24-.27,0-.59.06-10.8,1h-.11l0-.1c-.61-2-1.09-3.55-1.41-4.63l-.37-1.25c-.08-.28-.12-.42-.1-.42s.07.17.17.46.26.75.44,1.26l1.53,4.49-.15-.09,10.8-1,.59,0-.14.26-3.53-6,.14.08c-2.88.21-5.32.36-7.06.47l-2,.12C385.79,257,385.53,257,385.52,257Z" style="fill:#263238"></path><rect x="378.43" y="207.44" width="12.23" height="3.95" style="fill:#455a64"></rect><path d="M390.66,211.39s0-.11,0-.29,0-.48,0-.79c0-.72,0-1.68-.06-2.87l.11.12c-2.91,0-7.31.06-12.23.06.08-.08-.17.17.17-.18h0v3.92l-.17-.17c3.49,0,6.52.05,8.7.08l2.57,0c.61,0,.95,0,1,0a6.83,6.83,0,0,1-.88,0l-2.53,0c-2.18,0-5.26.07-8.82.08h-.17v-4.09h0l.17-.17c4.92,0,9.32,0,12.23.06h.12v.11q0,1.83-.06,2.94A6.33,6.33,0,0,1,390.66,211.39Z" style="fill:#263238"></path><g style="opacity:0.30000000000000004"><path d="M376.55,177.07l1.88,2.59s-.52,39.28-2.52,49Z"></path></g><path d="M384.49,147.89l3.61-6.14a22.63,22.63,0,1,1,3.94,7.09h0Z" style="fill:#fff"></path><path d="M384.49,147.89l.51.05,1.46.16,5.6.67-.1.12h0a.09.09,0,0,1,0-.12.09.09,0,0,1,.11,0,22.64,22.64,0,0,0,8.95,6.53,22,22,0,0,0,7,1.57,22.41,22.41,0,0,0,15.84-5.23,22.35,22.35,0,0,0,5.29-27.8,22,22,0,0,0-7.24-8,22.78,22.78,0,0,0-9.62-3.62,22.21,22.21,0,0,0-9.65.89,22.52,22.52,0,0,0-14.52,28.56.08.08,0,0,1,0,.07l-2.71,4.52c-.31.5-.54.89-.71,1.17s-.26.41-.26.41l.21-.39.67-1.17,2.65-4.62v.07a22.55,22.55,0,0,1-.91-11.12,22.82,22.82,0,0,1,25.3-18.79,23.29,23.29,0,0,1,9.8,3.68,22.62,22.62,0,0,1,7.38,8.11,22.78,22.78,0,0,1-13.36,32.6,22.41,22.41,0,0,1-8.16.94,22.07,22.07,0,0,1-7.1-1.62,22.72,22.72,0,0,1-9-6.68l.15-.09h0a.09.09,0,0,1-.05.12H392l-5.64-.78L385,148Z" style="fill:#263238"></path><path d="M403.5,134.5a2.15,2.15,0,1,1-2.15-2.15A2.15,2.15,0,0,1,403.5,134.5Z" style="fill:#263238"></path><path d="M412.1,134.5a2.15,2.15,0,1,1-2.15-2.15A2.15,2.15,0,0,1,412.1,134.5Z" style="fill:#263238"></path><path d="M420.68,133.42a2.15,2.15,0,1,1-2.93-.78A2.16,2.16,0,0,1,420.68,133.42Z" style="fill:#263238"></path><circle cx="367.82" cy="203.61" r="14.85" style="fill:#4F46E5"></circle><path d="M364.24,208v-8.77a.56.56,0,0,1,.83-.48l7.83,4.41a.56.56,0,0,1,0,1l-7.83,4.34A.55.55,0,0,1,364.24,208Z" style="fill:#fff"></path><rect x="274.68" y="274.35" width="180.34" height="15.07" style="fill:#e0e0e0"></rect><path d="M438.12,282.33H293.69v-.71H438.12a.35.35,0,0,1,.33.36h0A.34.34,0,0,1,438.12,282.33Z" style="fill:#fff"></path><path d="M317.66,282.75H294.51a1,1,0,0,1-.94-.95h0a.94.94,0,0,1,.94-.94h23.15Z" style="fill:#4F46E5"></path><path d="M319.39,281.88a2.36,2.36,0,1,1-2.36-2.36A2.36,2.36,0,0,1,319.39,281.88Z" style="fill:#4F46E5"></path><polygon points="445.98 281.62 445.37 281.62 445.37 279.88 447.11 279.88 447.11 280.48 445.98 280.48 445.98 281.62" style="fill:#263238"></polygon><polygon points="447.11 283.88 445.37 283.88 445.37 282.15 445.97 282.15 445.97 283.28 447.11 283.28 447.11 283.88" style="fill:#263238"></polygon><polygon points="449.88 283.88 448.14 283.88 448.14 283.28 449.27 283.28 449.27 282.15 449.88 282.15 449.88 283.88" style="fill:#263238"></polygon><polygon points="449.88 281.61 449.28 281.61 449.28 280.48 448.14 280.48 448.14 279.88 449.88 279.88 449.88 281.61" style="fill:#263238"></polygon><path d="M283.31,284.87v-5.79a.37.37,0,0,1,.55-.32l5.17,2.92a.37.37,0,0,1,0,.64l-5.18,2.87A.36.36,0,0,1,283.31,284.87Z" style="fill:#263238"></path><rect x="291.37" y="350.22" width="26.28" height="26.28" rx="7.44" style="fill:#4F46E5"></rect><path d="M301,368.1v-9.49a.6.6,0,0,1,.9-.52l8.48,4.78a.6.6,0,0,1,0,1.05l-8.48,4.71A.61.61,0,0,1,301,368.1Z" style="fill:#fff"></path><path d="M323.87,391.9a1.37,1.37,0,0,1,1.44-1.39,1.36,1.36,0,0,1,1,.42l-.26.25a1,1,0,0,0-.76-.32,1,1,0,1,0,0,2.09,1,1,0,0,0,.76-.33l.26.25a1.45,1.45,0,0,1-2.48-1Z" style="fill:#263238"></path><path d="M329.24,390.54v2.72h-.39v-1.21h-1.56v1.21h-.39v-2.72h.39v1.17h1.56v-1.17Z" style="fill:#263238"></path><path d="M331.79,392.58h-1.45l-.3.68h-.4l1.24-2.72h.38l1.24,2.72h-.41Zm-.13-.31-.59-1.33-.59,1.33Z" style="fill:#263238"></path><path d="M335.1,391.49c0,.59-.43.95-1.13.95h-.68v.82h-.39v-2.72H334C334.67,390.54,335.1,390.9,335.1,391.49Zm-.39,0c0-.39-.26-.61-.76-.61h-.66v1.22H334C334.45,392.1,334.71,391.88,334.71,391.49Z" style="fill:#263238"></path><path d="M336.13,390.88h-.94v-.34h2.26v.34h-.94v2.38h-.38Z" style="fill:#263238"></path><path d="M339.84,392.93v.33h-2v-2.72h1.92v.34h-1.53v.84h1.36v.33h-1.36v.88Z" style="fill:#263238"></path><path d="M342.29,393.26l-.58-.83h-.85v.82h-.39v-2.72h1.06c.71,0,1.14.36,1.14.95a.87.87,0,0,1-.6.86l.65.91Zm0-1.77c0-.39-.26-.61-.76-.61h-.66v1.23h.66C342,392.11,342.28,391.88,342.28,391.49Z" style="fill:#263238"></path><path d="M346,392.46c0,.46-.34.84-1,.84a1.58,1.58,0,0,1-1-.33l.18-.31a1.21,1.21,0,0,0,.82.29c.4,0,.64-.19.64-.48s-.21-.48-.67-.48h-.22v-.27l.68-.84h-1.31v-.34h1.8v.27l-.71.87C345.71,391.74,346,392,346,392.46Z" style="fill:#263238"></path><path d="M324,399.72a3.19,3.19,0,0,1,5.53-2l-.86.79a1.88,1.88,0,0,0-1.46-.67,1.85,1.85,0,1,0,0,3.7,1.84,1.84,0,0,0,1.46-.69l.86.8a3.19,3.19,0,0,1-5.53-2Z" style="fill:#263238"></path><path d="M329.85,400.39a2.44,2.44,0,1,1,2.45,2.29A2.29,2.29,0,0,1,329.85,400.39Zm3.58,0a1.14,1.14,0,1,0-1.13,1.23A1.12,1.12,0,0,0,333.43,400.39Z" style="fill:#263238"></path><path d="M343.11,400.07v2.54h-1.29v-2.35c0-.72-.32-1.05-.84-1.05s-1,.38-1,1.17v2.23H338.7v-2.35c0-.72-.3-1.05-.84-1.05s-1,.38-1,1.17v2.23h-1.29v-4.45h1.24v.52a1.79,1.79,0,0,1,1.39-.58,1.69,1.69,0,0,1,1.47.72,2,2,0,0,1,1.6-.72A1.72,1.72,0,0,1,343.11,400.07Z" style="fill:#263238"></path><path d="M349.11,400.39a2.16,2.16,0,0,1-2.22,2.29,1.73,1.73,0,0,1-1.34-.54v2.08h-1.29v-6.06h1.24v.52a1.71,1.71,0,0,1,1.39-.58A2.16,2.16,0,0,1,349.11,400.39Zm-1.31,0a1.13,1.13,0,1,0-1.13,1.23A1.12,1.12,0,0,0,347.8,400.39Z" style="fill:#263238"></path><path d="M349.64,400.39a2.45,2.45,0,1,1,2.45,2.29A2.29,2.29,0,0,1,349.64,400.39Zm3.58,0a1.14,1.14,0,1,0-1.13,1.23A1.12,1.12,0,0,0,353.22,400.39Z" style="fill:#263238"></path><path d="M355,402.2l.43-.93a3,3,0,0,0,1.55.43c.6,0,.82-.15.82-.4,0-.73-2.69,0-2.69-1.76,0-.85.76-1.44,2.06-1.44a3.63,3.63,0,0,1,1.71.39l-.43.91a2.63,2.63,0,0,0-1.28-.33c-.58,0-.83.19-.83.42,0,.76,2.69,0,2.69,1.77,0,.83-.77,1.42-2.1,1.42A3.89,3.89,0,0,1,355,402.2Z" style="fill:#263238"></path><path d="M359.61,396.82a.75.75,0,0,1,.81-.72.72.72,0,0,1,.8.7.81.81,0,0,1-1.61,0Zm.16,1.34h1.29v4.45h-1.29Z" style="fill:#263238"></path><path d="M365.13,402.4a1.85,1.85,0,0,1-1.05.28,1.47,1.47,0,0,1-1.66-1.6v-1.82h-.69v-1h.69v-1.08h1.29v1.08h1.11v1h-1.11v1.81a.51.51,0,0,0,.55.58.85.85,0,0,0,.52-.16Z" style="fill:#263238"></path><path d="M365.7,396.82a.74.74,0,0,1,.8-.72.72.72,0,0,1,.8.7.8.8,0,0,1-1.6,0Zm.16,1.34h1.29v4.45h-1.29Z" style="fill:#263238"></path><path d="M368,400.39a2.45,2.45,0,1,1,2.45,2.29A2.29,2.29,0,0,1,368,400.39Zm3.59,0a1.14,1.14,0,1,0-1.14,1.23A1.12,1.12,0,0,0,371.6,400.39Z" style="fill:#263238"></path><path d="M378.31,400.07v2.54H377v-2.35c0-.72-.33-1.05-.9-1.05s-1.07.38-1.07,1.2v2.2h-1.29v-4.45H375v.52a2,2,0,0,1,1.47-.58A1.75,1.75,0,0,1,378.31,400.07Z" style="fill:#263238"></path><rect x="291.37" y="386.76" width="26.28" height="26.28" rx="7.44" style="fill:#e0e0e0"></rect><path d="M301,404.64v-9.48a.6.6,0,0,1,.9-.53l8.48,4.78a.6.6,0,0,1,0,1l-8.48,4.71A.61.61,0,0,1,301,404.64Z" style="fill:#fff"></path><path d="M424.39,373.59c0,.14-21.85.26-48.8.26s-48.79-.12-48.79-.26,21.84-.26,48.79-.26S424.39,373.45,424.39,373.59Z" style="fill:#263238"></path><path d="M409,408.78c0,.14-19,.26-42.31.26s-42.32-.12-42.32-.26,18.94-.26,42.32-.26S409,408.64,409,408.78Z" style="fill:#263238"></path><path d="M435.53,467.58l.71-.05a14.71,14.71,0,0,0,2.09-.2,19.16,19.16,0,0,0,7.69-2.86,19.56,19.56,0,0,0,8.1-10.37c.24-.62.35-1.29.54-2s.22-1.37.34-2.07.08-1.44.13-2.17,0-1.5,0-2.27c0-3.06,0-6.33,0-9.78,0-27.67-.05-67.69-.08-117.14S455,210.37,455,145V107.54a39.08,39.08,0,0,0-.27-6.32,19,19,0,0,0-2-6,19.5,19.5,0,0,0-9.08-8.59A19.93,19.93,0,0,0,437.48,85c-2.13-.16-4.33-.08-6.51-.1H294.39a19.6,19.6,0,0,0-12.76,4.77,19.14,19.14,0,0,0-6.47,11.89,53.22,53.22,0,0,0-.22,6.93v20.79q0,27.56,0,54.28c0,35.58,0,69.91,0,102.61s0,63.77,0,92.85q0,21.81,0,42.08,0,10.13,0,19.83v4.83a33.86,33.86,0,0,0,.18,4.74,19.37,19.37,0,0,0,3.33,8.57,20.16,20.16,0,0,0,6.7,6,19.77,19.77,0,0,0,8.47,2.31c5.86.08,11.6,0,17.17.05l31.46,0,50.4,0,31.84,0,8.28,0,2.83,0-2.83,0-8.28,0-31.84.05-50.4,0-31.46,0c-5.57,0-11.29.05-17.19,0a20,20,0,0,1-8.62-2.35,20.44,20.44,0,0,1-6.83-6.1,19.78,19.78,0,0,1-3.4-8.74,33.37,33.37,0,0,1-.19-4.79V421.08q0-20.25,0-42.08c0-29.08,0-60.15,0-92.85s0-67,0-102.61V108.47a53,53,0,0,1,.22-7,19.95,19.95,0,0,1,19.75-17.11H431c2.19,0,4.35-.06,6.56.11a20.6,20.6,0,0,1,6.32,1.73A20,20,0,0,1,453.16,95a19.67,19.67,0,0,1,2,6.13,39.15,39.15,0,0,1,.27,6.39v12.62q0,12.57,0,24.82c0,65.39,0,124.28-.05,173.74s-.07,89.47-.09,117.14c0,3.45,0,6.72,0,9.78v2.27c-.05.74-.06,1.47-.13,2.19s-.19,1.41-.36,2.09a20.16,20.16,0,0,1-.55,2,19.89,19.89,0,0,1-3.59,6.41,19.65,19.65,0,0,1-4.6,4,19.19,19.19,0,0,1-7.73,2.83,14,14,0,0,1-2.1.17Z" style="fill:#263238"></path></g><g id="freepik--Character--inject-25"><path d="M187.92,180.91a35.73,35.73,0,0,1-11.41,27l-5.1-14.77" style="fill:#263238"></path><path d="M149.48,151.52c4.37-2.39,9.66-2.73,14.55-1.75a45.8,45.8,0,0,1,13.77,5.69,22.48,22.48,0,0,1,6.58,5.13c3.18,4,6.32,10.57,6.63,15.67.25,4.12-1.33,14.44-3.08,18.19-1.59,3.44-9.08,6.05-12.77,6.9l-33.9-39.43A17.12,17.12,0,0,1,149.48,151.52Z" style="fill:#263238"></path><path d="M143.63,156.84l8.13-1.45c-4.44,10.58-5.65,34.77-8.19,46-3-4.35-9.95-17.59-9.58-22.85S134,155.94,143.63,156.84Z" style="fill:#263238"></path><path d="M139,174.09c.53-8.12,5.94-18.07,14-17.2l18.72,4.78a13.88,13.88,0,0,1,10.44,12.78c0,.31.05-.07.05.17L178,223.08,164,251h0l-12.39-26.41c0-4,0-9.93,0-9.91s-10.37-1.74-12.49-15.28C138,192.62,138.4,183.11,139,174.09Z" style="fill:#ffbf9d"></path><path d="M144.78,185.19a1.75,1.75,0,0,0,1.67,1.76,1.67,1.67,0,0,0,1.8-1.56,1.74,1.74,0,0,0-1.67-1.76A1.67,1.67,0,0,0,144.78,185.19Z" style="fill:#263238"></path><path d="M141,179.39c.21.23,1.53-.74,3.4-.73s3.23.94,3.43.71-.12-.51-.71-.94a4.75,4.75,0,0,0-2.75-.86,4.61,4.61,0,0,0-2.71.87C141.11,178.88,140.91,179.29,141,179.39Z" style="fill:#263238"></path><path d="M160.44,185.19a1.74,1.74,0,0,0,1.67,1.76,1.66,1.66,0,0,0,1.79-1.56,1.73,1.73,0,0,0-1.67-1.76A1.66,1.66,0,0,0,160.44,185.19Z" style="fill:#263238"></path><path d="M158.75,179.39c.22.23,1.54-.74,3.4-.73s3.24.94,3.44.71-.12-.51-.71-.94a4.75,4.75,0,0,0-2.75-.86,4.58,4.58,0,0,0-2.71.87C158.85,178.88,158.65,179.29,158.75,179.39Z" style="fill:#263238"></path><path d="M152.92,194.06a12.51,12.51,0,0,0-3-.56c-.47-.05-.93-.14-1-.47a2.3,2.3,0,0,1,.32-1.41l1.42-3.63c2-5.16,3.39-9.41,3.18-9.49s-2,4.05-3.94,9.21l-1.36,3.65a2.78,2.78,0,0,0-.25,1.87,1.17,1.17,0,0,0,.78.7,3.24,3.24,0,0,0,.81.12A12.31,12.31,0,0,0,152.92,194.06Z" style="fill:#263238"></path><path d="M169.53,209.82s-4.41,9.3-17.95,8v-3.18A34,34,0,0,0,169.53,209.82Z" style="fill:#ff9a6c"></path><path d="M159.34,172.64c.18.51,2,.27,4.24.54s4,.87,4.25.42c.13-.22-.17-.7-.89-1.19a7.44,7.44,0,0,0-6.47-.73C159.67,172,159.26,172.4,159.34,172.64Z" style="fill:#263238"></path><path d="M141.63,173.68c.32.42,1.61,0,3.16,0s2.85.29,3.16-.15c.13-.22-.08-.64-.65-1.05a4.57,4.57,0,0,0-5.09.15C141.66,173,141.48,173.47,141.63,173.68Z" style="fill:#263238"></path><path d="M142.66,161.73a5.94,5.94,0,0,1,5.26-3.37,11.56,11.56,0,0,1,6.24,1.82c8.06,4.66,12.2,15.91,20.17,20.73,2,1.18,4.51.1,6.17,1.67s2.75,4.08,1.83,6.17a18.85,18.85,0,0,0,2.76-4.67,6.37,6.37,0,0,0-.22-5.27c-.69-1.2-1.91-2.11-2.24-3.45-.3-1.17.17-2.4.12-3.62a8.12,8.12,0,0,0-1.24-3.45c-3.12-5.52-7.41-10.51-12.94-13.61a22.89,22.89,0,0,0-11.88-3.07,17.48,17.48,0,0,0-11.3,4.49c-1.78,1.66-3.65,3.37-2.73,5.63" style="fill:#263238"></path><path d="M180.31,184.26c.14-.39,7.2-2.94,7.29,4.56.09,7.29-7.26,5.86-7.28,5.65S180.31,184.26,180.31,184.26Z" style="fill:#ffbf9d"></path><path d="M182.55,191.69s.12.08.34.18a1.27,1.27,0,0,0,1,0,3.15,3.15,0,0,0,1.43-2.83,4.26,4.26,0,0,0-.38-1.82,1.43,1.43,0,0,0-1-1,.65.65,0,0,0-.75.35c-.09.21,0,.35-.08.37s-.16-.12-.1-.43a.8.8,0,0,1,.28-.46,1,1,0,0,1,.7-.19,1.82,1.82,0,0,1,1.34,1.12,4.4,4.4,0,0,1,.46,2c0,1.47-.78,2.85-1.83,3.16a1.35,1.35,0,0,1-1.16-.18C182.56,191.86,182.52,191.7,182.55,191.69Z" style="fill:#ff9a6c"></path><path d="M183.21,180.51a2.06,2.06,0,0,1-.44-.25c-.28-.17-.71-.41-1.22-.77a25.42,25.42,0,0,1-3.94-3.58,69.36,69.36,0,0,1-4.81-6.26,57.27,57.27,0,0,0-6-7.49,23.67,23.67,0,0,0-3.88-3.07,19.52,19.52,0,0,0-4.19-1.9,20.92,20.92,0,0,0-7.73-.95,19.89,19.89,0,0,0-5.17,1c-.6.18-1,.38-1.35.5a3,3,0,0,1-.48.17,3.14,3.14,0,0,1,.45-.23,11.39,11.39,0,0,1,1.34-.56A18.41,18.41,0,0,1,151,156a20.53,20.53,0,0,1,7.83.89,19,19,0,0,1,4.27,1.92,22.43,22.43,0,0,1,3.94,3.11,55.92,55.92,0,0,1,6,7.55,75.75,75.75,0,0,0,4.74,6.27,26.46,26.46,0,0,0,3.83,3.63c.5.38.92.63,1.18.83Z" style="fill:#455a64"></path><path d="M181.37,182.57c.12,2,.21,4.1-.71,5.87s-3.24,3-5,2c-1.41-.81-1.84-2.62-2.07-4.23-.7-4.64-1-9.33-1.74-14Z" style="fill:#263238"></path><path d="M157.51,197.61a3.61,3.61,0,0,1-1.81,5.64,2.18,2.18,0,0,1-1.36,0,3,3,0,0,1-1.44-1.88l-.76-1.89a.85.85,0,0,1-.07-.66.88.88,0,0,1,.61-.36l4.68-1.13" style="fill:#ff9a6c"></path><path d="M154.45,203a4.13,4.13,0,0,0,2.12-.27,3.34,3.34,0,0,0,1.86-1.51,2.49,2.49,0,0,0,.29-1.45,4.35,4.35,0,0,0-.37-1.5,3.85,3.85,0,0,0-.88-1.21l-.12-.12-.16.06c-3.1,1.09-5.52,1.64-5.5,1.78a19.25,19.25,0,0,0,5.68-1.26l-.28-.06a3.51,3.51,0,0,1,.75,1.05A3,3,0,0,1,158,201a3.07,3.07,0,0,1-1.56,1.38C155.26,202.88,154.42,202.94,154.45,203Z" style="fill:#263238"></path><path d="M144.46,158.26s.64-.12,1.81-.16a12.44,12.44,0,0,1,4.82.88,15.83,15.83,0,0,1,3,1.56,30.07,30.07,0,0,1,3.12,2.38,37.76,37.76,0,0,1,6.11,6.58c.92,1.3,1.74,2.64,2.63,3.88a18.57,18.57,0,0,0,2.92,3.28,32.84,32.84,0,0,0,6.16,4.12c1.87,1,3.43,1.68,4.5,2.16l1.25.53a3.05,3.05,0,0,0,.45.16,1.81,1.81,0,0,0-.41-.24l-1.22-.6c-1.05-.52-2.59-1.25-4.43-2.26a34,34,0,0,1-6.05-4.15,18.32,18.32,0,0,1-2.84-3.24c-.87-1.22-1.69-2.56-2.63-3.88a37,37,0,0,0-6.19-6.63,32,32,0,0,0-3.18-2.38,16.3,16.3,0,0,0-3.11-1.54,12,12,0,0,0-4.93-.77,8.82,8.82,0,0,0-1.35.19A1.93,1.93,0,0,0,144.46,158.26Z" style="fill:#455a64"></path><path d="M181.58,178.07a2.91,2.91,0,0,0,.64.43l1.85,1.09.62.36a2.15,2.15,0,0,0,.8.26.76.76,0,0,0,.49-.12.61.61,0,0,0,.27-.48,1.63,1.63,0,0,0-.34-.92l-2.15-3.43-.28.27a7.55,7.55,0,0,0,5,1.47,1.94,1.94,0,0,0,.66-.11.87.87,0,0,0,.56-.49.79.79,0,0,0-.12-.74,3.11,3.11,0,0,0-.41-.46,15.06,15.06,0,0,1-2.49-3.13,24.41,24.41,0,0,1-1.57-3.35,3.15,3.15,0,0,0,.23,1,13,13,0,0,0,1.09,2.52,15,15,0,0,0,2.47,3.25c.27.26.54.56.44.79s-.5.34-.88.34a7,7,0,0,1-2.47-.3,7.35,7.35,0,0,1-2.23-1.09l-.87-.64.59.9,2.18,3.41a1.36,1.36,0,0,1,.31.71c0,.21-.18.33-.42.31a3.75,3.75,0,0,1-1.31-.54l-1.9-1A3.51,3.51,0,0,0,181.58,178.07Z" style="fill:#455a64"></path><polygon points="91.94 429.01 85.92 468.19 92.8 468.19 104.43 429.01 91.94 429.01" style="fill:#263238"></polygon><polygon points="241.51 429.01 247.54 468.19 240.65 468.19 229.02 429.01 241.51 429.01" style="fill:#263238"></polygon><path d="M60.63,325.09c.64,18.36,1.79,95.66,17.78,110.51h13c5.18,0,4.89-2.45,4.7-7.62L92.33,326.8a8.94,8.94,0,0,0-2-5.34c-2.61-3.22-7.84-8.19-15-7.71a21.24,21.24,0,0,0-10.87,3.6A9,9,0,0,0,60.63,325.09Z" style="fill:#455a64"></path><polygon points="240.61 436.73 91.41 435.6 91.41 389.5 240.61 389.5 240.61 436.73" style="fill:#455a64"></polygon><polygon points="240.02 389.5 90.55 390.73 90.55 363.07 240.61 360.26 240.02 389.5" style="fill:#455a64"></polygon><path d="M63.45,319.91s1.11-38.38,43.35-40.37,104.93,0,104.93,0,53.07-2,54.3,31.44l-10.55,64.08H91.64Z" style="fill:#455a64"></path><path d="M272.3,329.17c-1.12,26.46-3.56,104.05-22,107.56H236.66l4.22-113.35s6.35-11.06,16.92-10.35l.32,0A15.48,15.48,0,0,1,272.3,329.17Z" style="fill:#455a64"></path><path d="M264.76,314.64l-.5-.12-1.43-.39-1-.29-1.3-.2c-.46-.06-1-.15-1.5-.21l-1.73,0a18.72,18.72,0,0,0-8.49,2.12l-.58.29-.56.34-1.14.72a25.45,25.45,0,0,0-2.2,1.77,22.72,22.72,0,0,0-4,4.61l0-.08c-.55,11.71-1.24,26.51-2,42.56-.88,19.54-1.51,37.23-1.86,50L236.1,431c0,1.77-.08,3.16-.1,4.12,0,.46,0,.82,0,1.08s0,.36,0,.36,0-.12,0-.36v-1.08c0-1,0-2.35,0-4.12,0-3.59.11-8.77.25-15.18.28-12.82.86-30.52,1.74-50.06.71-16.06,1.47-30.86,2.07-42.55h0s0,0,0-.07a22.86,22.86,0,0,1,4.06-4.66,27.7,27.7,0,0,1,2.24-1.78l1.16-.72.57-.35.59-.29a18.75,18.75,0,0,1,8.61-2.07l1.74.06c.54.06,1.05.16,1.52.23l1.29.22,1.05.31,1.42.44C264.6,314.57,264.76,314.64,264.76,314.64Z" style="fill:#263238"></path><path d="M63.45,318.67a3.68,3.68,0,0,1,.45-.16l1.32-.43,1-.32c.36-.11.76-.17,1.2-.27l1.4-.3c.5-.12,1-.13,1.62-.21a22.08,22.08,0,0,1,8.31.55A20,20,0,0,1,88.16,323a.09.09,0,0,1,0,.08h0c.6,11.51,1.27,26.28,1.82,42.34.65,19,1,36.21,1.2,48.67.07,6.22.13,11.25.17,14.76,0,1.72,0,3.07,0,4,0,.44,0,.79,0,1s0,.36,0,.36a3.28,3.28,0,0,1,0-.36c0-.25,0-.6,0-1,0-.94-.06-2.29-.1-4-.07-3.5-.17-8.54-.3-14.75-.26-12.46-.67-29.67-1.32-48.67-.55-16.06-1.19-30.82-1.73-42.33l0,.09a19.88,19.88,0,0,0-9.27-5.43,22,22,0,0,0-8.22-.62c-.57.07-1.12.08-1.61.19l-1.4.28c-.44.09-.84.14-1.2.25l-1,.29-1.33.38C63.61,318.64,63.45,318.67,63.45,318.67Z" style="fill:#263238"></path><path d="M91.64,390.61l.74,0h2.19l8.4,0,30.91.07c26.1.1,62.16.38,102-.19l1.65,0-.21.2q.21-7.1.42-14c.07-2.31.14-4.59.21-6.86,0-1.13.07-2.26.1-3.38,0-.55,0-1.14,0-1.67a3.37,3.37,0,0,0-.43-1.51,3.82,3.82,0,0,0-2.53-1.87,7.49,7.49,0,0,0-1.66-.1h-1.72l-6.77,0-13.11.09-45.31.46c-12.89.13-23.31.19-30.51.2l-8.29,0-2.16,0c-.48,0-.73,0-.73,0l.73,0,2.16,0,8.29-.06,30.51-.32,45.31-.56,13.11-.1,6.77,0h1.72a7.56,7.56,0,0,1,1.76.1A4.27,4.27,0,0,1,238,363a3.83,3.83,0,0,1,.48,1.68c0,.6,0,1.13,0,1.7,0,1.12-.07,2.25-.1,3.39-.07,2.26-.14,4.55-.21,6.85q-.19,6.9-.42,14a.2.2,0,0,1-.21.2l-1.64,0c-39.82.57-75.88.24-102,.07l-30.91-.2-8.4-.06-2.19,0C91.89,390.63,91.64,390.61,91.64,390.61Z" style="fill:#263238"></path><g style="opacity:0.2"><path d="M90.55,390.73c34.25,7.42,50.55,6.87,82.39,7.41,28.58.49,60-4.66,64.56-7.72Z"></path></g><path d="M109.1,268.52c-.13-.66,2.58-17.61,7.55-29.29,1.83-4.27,3.15-7.25,5-9.09a22.76,22.76,0,0,1,6.21-4.27l23.48-5.29s-1.62,8.28,13.74,7.28c11.45-.74,13.42-9.08,13.42-9.08s22.7,2.55,28.19,7.59,10.8,34.41,10.8,34.41L196.16,267l-2.54,31.09,7.09,15.46s-21.33,16.06-36,15.3-40.2-9.26-40.2-9.26l9.36-19.71-6-29.3Z" style="fill:#4F46E5"></path><path d="M122,245.13a4.84,4.84,0,0,1,.26,1l.57,2.86c.48,2.42,1.17,5.75,2,9.41s1.72,7,2.36,9.34l.75,2.82a5.5,5.5,0,0,1,.23,1,4.84,4.84,0,0,1-.38-1c-.23-.65-.53-1.6-.88-2.78-.71-2.37-1.62-5.66-2.48-9.33s-1.5-7-1.91-9.45c-.2-1.21-.35-2.2-.44-2.89A5.22,5.22,0,0,1,122,245.13Z" style="fill:#263238"></path><path d="M197.79,239.86c.43-.05.22,6.3-.27,14-.25,3.88-.52,7.39-.74,9.92-.11,1.21-.21,2.22-.28,3a5.42,5.42,0,0,1-.17,1.1,7.26,7.26,0,0,1,0-1.11c0-.79.09-1.8.15-3,.16-2.62.38-6.09.62-9.92s.44-7.3.6-9.92A22.91,22.91,0,0,0,197.79,239.86Z" style="fill:#263238"></path><path d="M180.42,297a9.7,9.7,0,0,1-1.23.6c-.4.18-.9.39-1.48.61s-1.25.5-2,.74a54.4,54.4,0,0,1-5.32,1.52,57.92,57.92,0,0,1-6.7,1.09,59.24,59.24,0,0,1-6.78.24,52.87,52.87,0,0,1-5.52-.45c-.78-.09-1.48-.23-2.1-.33s-1.15-.22-1.58-.32a8.54,8.54,0,0,1-1.32-.35,12.31,12.31,0,0,1,1.36.19c.43.08,1,.17,1.58.25s1.31.2,2.09.27c1.56.18,3.43.31,5.5.36a63.67,63.67,0,0,0,6.73-.27,61.93,61.93,0,0,0,6.65-1.05c2-.45,3.83-.94,5.32-1.43.75-.22,1.42-.47,2-.67s1.09-.39,1.5-.55A7.51,7.51,0,0,1,180.42,297Z" style="fill:#263238"></path><path d="M170.68,226.41l2.65,32.3a2,2,0,0,1-1.81,2.18L151.6,263a2,2,0,0,1-2.22-1.77l-3.91-33.75a2,2,0,0,1,1.95-2.25l21.18-.68A2,2,0,0,1,170.68,226.41Z" style="fill:#263238"></path><path d="M161.58,243.61c.54,0,12.34,2.14,12.34,2.14l15.42,8.84,8.31,12.5-8.1,15.12L185.4,270a56.75,56.75,0,0,1-7.24-.15c-3.6-.35-15-1.22-15-1.22l-5.87-3.26s-1.89-3.08-1.89-3.94a1.34,1.34,0,0,1,2.06-1.2c1.2.69,9.42.86,11.48,0,0,0-12-.86-13.54-2.83s-1-3.5.86-3.5,8.74,1,10.79.85,4.63-.17,5.14-1.2-1-1.88-1-1.88L169,249.94s-8.74-1.54-9.26-3.42A2.19,2.19,0,0,1,161.58,243.61Z" style="fill:#ffbf9d"></path><path d="M157.57,243s-10,1.62-10.65,2.26-13.25,16.09-13.25,16.09L140.11,274l11.28-6.12a18.29,18.29,0,0,1,3.59-1.16s11.39-1.79,12.13-3.16.31-1.69-.53-1.9-7.66.56-9.18.84a22.94,22.94,0,0,1-4.53,0s4.73-1.1,5.8-1.48,11.66-2.74,11.49-4.64-1.48-2.59-8.12-.79a47.86,47.86,0,0,1-11.18,1.8l14.66-5.12s5.91-1.9,4-3.59-14.55,1.8-14.55,1.8l-5.59,2.11,1.58-3.38s7.95-2.36,9-3.15c1.26-1,1.44-1.9.49-2.71S157.57,243,157.57,243Z" style="fill:#ffbf9d"></path><path d="M110.21,268.64l17.09,1.75,2.41-3.1,4-5.94L140.11,274s-2.34,7.52-3.59,11.67c-3.36,11.13-8.83,23.58-15.55,23-8.06-.75-14-10.31-13.83-16.5C107.27,286.51,110.21,268.64,110.21,268.64Z" style="fill:#ffbf9d"></path><path d="M215.6,261.47l-14.23,3.61L197,266l-4-5.94-6.44,12.66s2.34,7.52,3.59,11.68c3.36,11.12,8.83,23.58,15.55,22.95,8.06-.75,14-10.31,13.82-16.5C219.47,285.25,215.6,261.47,215.6,261.47Z" style="fill:#ffbf9d"></path><path d="M133.67,261.35s.11-.16.34-.45l1-1.29,4-4.94,6.32-7.74.95-1.15.51-.58a2.16,2.16,0,0,1,.75-.36c1-.3,2-.52,3.13-.74,2.17-.44,4.46-.85,6.87-1.25h0a5.26,5.26,0,0,1,1.86-.09,2.51,2.51,0,0,1,.93.32,2.22,2.22,0,0,1,.69.74,1.3,1.3,0,0,1,.11,1,2.42,2.42,0,0,1-.56.86,3.31,3.31,0,0,1-.79.64,9.22,9.22,0,0,1-.91.42c-2.48,1-5.12,1.78-7.85,2.61l.11-.09-1.58,3.37-.23-.25,5.59-2.11h0c2.39-.64,4.86-1.22,7.41-1.69a38.31,38.31,0,0,1,3.91-.53,11.36,11.36,0,0,1,2,0,3.57,3.57,0,0,1,1,.24,1.37,1.37,0,0,1,.77.84,1.22,1.22,0,0,1-.34,1.1,4.36,4.36,0,0,1-.81.69,13.42,13.42,0,0,1-1.84,1c-1.28.53-2.6.93-3.9,1.4l-7.94,2.77-4.31,1.51-.07-.4a49.29,49.29,0,0,0,10.36-1.59,46.5,46.5,0,0,1,5-1.12,7.39,7.39,0,0,1,2.57,0,1.94,1.94,0,0,1,1.16.7,2.41,2.41,0,0,1,.39,1.29,1,1,0,0,1-.33.67,2.86,2.86,0,0,1-.5.42,8.38,8.38,0,0,1-1.09.61c-.75.35-1.51.63-2.27.9-1.52.53-3,1-4.54,1.37l-2.24.59c-.72.19-1.45.45-2.18.62-1.46.37-2.89.72-4.3,1.05l0-.35a19,19,0,0,0,5-.07c1.62-.24,3.21-.41,4.76-.56.77-.08,1.54-.14,2.3-.19l1.13,0a4.41,4.41,0,0,1,.6,0,2.4,2.4,0,0,1,.55.19.81.81,0,0,1,.43.49,1.11,1.11,0,0,1,0,.63,3.05,3.05,0,0,1-.2.53l-.12.24a.85.85,0,0,1-.21.25,6.26,6.26,0,0,1-2,.88,71.78,71.78,0,0,1-7.6,1.7l-1.74.3a14,14,0,0,0-1.64.33,11.83,11.83,0,0,0-2.93,1.07L143,272.49l-2.15,1.14-.56.29-.19.09s0-.05.17-.12.32-.17.55-.31L143,272.4l8.11-4.46a20.3,20.3,0,0,1,6.37-1.76,72.16,72.16,0,0,0,7.55-1.72,6.68,6.68,0,0,0,1.86-.83.75.75,0,0,0,.14-.17l.12-.23a3.12,3.12,0,0,0,.18-.48c.09-.34,0-.63-.26-.76a1.77,1.77,0,0,0-.49-.17,2.8,2.8,0,0,0-.52,0c-.36,0-.74,0-1.11,0-.76.05-1.52.12-2.29.19-1.54.16-3.13.34-4.74.58a19.21,19.21,0,0,1-5,.08.18.18,0,0,1,0-.35h0c1.4-.33,2.84-.68,4.28-1.06.74-.17,1.43-.42,2.19-.62l2.23-.6c1.49-.4,3-.84,4.51-1.36.75-.27,1.51-.55,2.23-.89a8.12,8.12,0,0,0,1-.58c.3-.22.65-.51.65-.78a2,2,0,0,0-.31-1,1.49,1.49,0,0,0-.93-.55,7.09,7.09,0,0,0-2.43,0,47.27,47.27,0,0,0-5,1.12,49.1,49.1,0,0,1-10.46,1.61.21.21,0,0,1-.21-.2.2.2,0,0,1,.14-.19h0l4.31-1.5,7.94-2.77c1.31-.48,2.63-.87,3.87-1.4a11,11,0,0,0,1.77-.92,4,4,0,0,0,.74-.61.84.84,0,0,0,.26-.74c-.17-.53-.83-.74-1.47-.79a11.55,11.55,0,0,0-1.95,0,35.45,35.45,0,0,0-3.86.52c-2.53.46-5,1-7.38,1.67h0l-5.59,2.1a.18.18,0,0,1-.24-.11.22.22,0,0,1,0-.14c.55-1.17,1.09-2.33,1.59-3.38a.17.17,0,0,1,.11-.09c2.72-.83,5.37-1.63,7.82-2.58a8.76,8.76,0,0,0,.88-.4,3,3,0,0,0,.71-.58,1.26,1.26,0,0,0,.41-1.52,1.83,1.83,0,0,0-1.39-.89,5.08,5.08,0,0,0-1.74.07h0c-2.41.4-4.7.8-6.86,1.22-1.08.22-2.13.44-3.11.73a2.05,2.05,0,0,0-.65.28l-.49.57-1,1.14-6.39,7.69-4,4.88-1.06,1.27Z" style="fill:#ff9a6c"></path><path d="M134.71,260.94c.11.09-4.6,6.39-10.52,14.08s-10.82,13.85-10.93,13.77,4.59-6.39,10.52-14.09S134.59,260.85,134.71,260.94Z" style="fill:#ff9a6c"></path><path d="M212.19,288.79c-.09,0-.68-1.43-1.91-3.65a74.23,74.23,0,0,0-5.47-8.28c-2.32-3.12-4.53-5.86-6.06-7.9-.77-1-1.37-1.86-1.77-2.45a4.57,4.57,0,0,1-.58-.95,4.4,4.4,0,0,1,.74.83l1.9,2.34c1.6,2,3.86,4.69,6.19,7.82A59.16,59.16,0,0,1,210.6,285a25.91,25.91,0,0,1,1.25,2.77A4.72,4.72,0,0,1,212.19,288.79Z" style="fill:#ff9a6c"></path><polygon points="111.39 424.8 106.57 409.31 131.55 401.99 135.69 419.31 111.39 424.8" style="fill:#ffbf9d"></polygon><path d="M134.46,417.63l5.37,25.46,5.1,7.74c1.94,2.93-.81,3.95-3.75,5.88l-35.82,23.63s-4.06-2.48-2.16-5.35,14.64-27.13,14.64-27.13l-6.45-23.13Z" style="fill:#e0e0e0"></path><path d="M135.81,415l1,6.42a2,2,0,0,1-1.44,2.16l-21.8,5.59a1.94,1.94,0,0,1-2.3-1.2l-2.18-5.92a1.93,1.93,0,0,1,1.32-2.54l23-6.09A1.93,1.93,0,0,1,135.81,415Z" style="fill:#e0e0e0"></path><path d="M112.71,429.47a20.25,20.25,0,0,0,3.46-.46c2.12-.36,5-.94,8.24-1.74s6-1.72,8.06-2.45c1-.36,1.83-.68,2.38-.91a3.15,3.15,0,0,0,.84-.42,29,29,0,0,0-3.34,1c-2,.64-4.9,1.48-8.07,2.28s-6.08,1.44-8.18,1.9A25.26,25.26,0,0,0,112.71,429.47Z" style="fill:#263238"></path><path d="M132.37,423.94a9.77,9.77,0,0,0-3-9.4,23.24,23.24,0,0,1,2.27,4.46A23.63,23.63,0,0,1,132.37,423.94Z" style="fill:#263238"></path><path d="M124.62,427a35.58,35.58,0,0,0-2.53-10.55,37.73,37.73,0,0,0,1.15,5.3A40.21,40.21,0,0,0,124.62,427Z" style="fill:#263238"></path><path d="M115.67,428.35a13.12,13.12,0,0,1-.71-10.06,3.37,3.37,0,0,0-.71,1.39,9.73,9.73,0,0,0-.47,3.75,9.85,9.85,0,0,0,1,3.64A3.29,3.29,0,0,0,115.67,428.35Z" style="fill:#263238"></path><path d="M138.45,458.21c.08,0-.3-.77-.64-2a11.53,11.53,0,0,1,1.67-9.73c.74-1.08,1.34-1.64,1.28-1.71a5.2,5.2,0,0,0-1.59,1.49,10.67,10.67,0,0,0-1.72,10.06A5.06,5.06,0,0,0,138.45,458.21Z" style="fill:#263238"></path><path d="M115.94,473.37a3.45,3.45,0,0,0-.53-1.54,7,7,0,0,0-2.77-2.77,9.63,9.63,0,0,0-3.77-1.07,3.8,3.8,0,0,0-1.61.07,7,7,0,0,0,1.57.31,11.56,11.56,0,0,1,3.55,1.16,7.64,7.64,0,0,1,2.71,2.5C115.61,472.83,115.85,473.4,115.94,473.37Z" style="fill:#263238"></path><path d="M159.7,334s-43.14-18.9-51.87-19.57c-13.6-1-21.94,4.7-21.36,23.58s17.81,83,17.81,83l33.54-5.22s-2.48-22.89-6.29-40.44c-3.3-15.23-1.78-12.84-1.78-12.84h0l41.36-.81Z" style="fill:#263238"></path><path d="M121.34,330a7.32,7.32,0,0,1,.77,1.14,14.76,14.76,0,0,1,.8,1.41l.46.9c.15.32.3.67.46,1a54.49,54.49,0,0,1,3.38,11.91c.87,4.76,1.37,9.1,1.78,12.24.19,1.51.35,2.76.47,3.71a8.59,8.59,0,0,1,.13,1.38,8.84,8.84,0,0,1-.29-1.35c-.16-.87-.37-2.14-.61-3.7-.49-3.13-1-7.46-1.9-12.21a60.27,60.27,0,0,0-3.24-11.86l-.43-1-.43-.91c-.27-.56-.49-1.05-.72-1.43A9.46,9.46,0,0,1,121.34,330Z" style="fill:#455a64"></path><path d="M250.29,302.3c-11.84-8.39-32.07-2.7-35.67,0s-27.27,19.93-27.87,20.38-66.62-1.88-66.62-1.88l55.39,45.93c17.55-.24,22-2.6,29.23-6.46,0,0,14.35-8,16.27-8.81,1.49-.64,28.67-14.1,31.51-19S262.12,310.69,250.29,302.3Z" style="fill:#263238"></path><path d="M179.26,344l-20.19,16-8.78,2.66c-3.33,1-1.88,3.52-.87,6.86l12.32,40.64s4.66.68,5-2.7,6-29.92,6-29.92L192.33,364Z" style="fill:#e0e0e0"></path><path d="M179.26,344s.08.1.23.32l.67,1,2.61,3.92c2.28,3.46,5.58,8.45,9.69,14.66l.08.13-.13.08-19.52,13.56.08-.12-3.58,17.24c-.62,3-1.25,6.13-1.84,9.3-.15.79-.29,1.59-.43,2.39-.06.4-.1.78-.18,1.21a2.38,2.38,0,0,1-.18.63l-.13.3-.18.28a3.6,3.6,0,0,1-2.19,1.34,8.08,8.08,0,0,1-2.55.11l-.14,0,0-.14c0-.13-.08-.27-.13-.42-3.34-11-6.53-21.58-9.43-31.18q-1.09-3.6-2.12-7c-.35-1.13-.67-2.26-1-3.35a11.09,11.09,0,0,1-.77-3.37,2.19,2.19,0,0,1,.7-1.6,4.3,4.3,0,0,1,1.51-.79l3-.91,5.73-1.73-.05,0,14.86-11.66,4-3.14,1-.8.36-.26-.36.3-1.05.85-4,3.22-14.68,11.73,0,0h0l-5.72,1.75-3,.93a3.69,3.69,0,0,0-1.36.71,1.84,1.84,0,0,0-.59,1.36,10.77,10.77,0,0,0,.77,3.23c.37,1.1.7,2.23,1.05,3.36q1,3.42,2.13,7c2.92,9.6,6.11,20.13,9.47,31.18,0,.14.09.29.13.42l-.18-.15a7.37,7.37,0,0,0,2.39-.11,3.09,3.09,0,0,0,1.93-1.16,5.27,5.27,0,0,0,.61-2.24c.13-.81.27-1.61.43-2.4.59-3.17,1.23-6.27,1.84-9.31,1.27-6.05,2.49-11.83,3.62-17.23v-.08l.07,0,19.57-13.49,0,.21-9.49-14.68c-1.11-1.72-2-3.06-2.56-4l-.67-1C179.33,344.08,179.26,344,179.26,344Z" style="fill:#263238"></path><path d="M179.86,341.12l-4.79,4.27a1.94,1.94,0,0,0-.28,2.56l13.07,18a1.91,1.91,0,0,0,2.51.54l5.4-3.12a1.91,1.91,0,0,0,.6-2.77l-13.67-19.2A1.92,1.92,0,0,0,179.86,341.12Z" style="fill:#e0e0e0"></path><path d="M188.32,366.72a21.41,21.41,0,0,1-2.34-2.54c-1.39-1.62-3.25-3.91-5.17-6.54s-3.51-5.12-4.59-7c-.54-.92-1-1.67-1.23-2.2a3.15,3.15,0,0,1-.38-.85,26,26,0,0,1,1.93,2.86c1.15,1.78,2.79,4.22,4.7,6.84s3.71,4.94,5,6.62A23.66,23.66,0,0,1,188.32,366.72Z" style="fill:#263238"></path><path d="M176.85,350.07a8.21,8.21,0,0,1,3.4-3.74,8.12,8.12,0,0,1,4.83-1.53,15.42,15.42,0,0,0-8.23,5.27Z" style="fill:#263238"></path><path d="M180.81,357.31a21.3,21.3,0,0,1,4.06-3.54,22.18,22.18,0,0,1,4.54-2.89,38,38,0,0,1-4.23,3.31A39.46,39.46,0,0,1,180.81,357.31Z" style="fill:#263238"></path><path d="M186.78,364a17.66,17.66,0,0,0,4.17-2.91,17.34,17.34,0,0,0,2.73-4.3,3.26,3.26,0,0,1-.34,1.51,9.49,9.49,0,0,1-2,3.15,9.79,9.79,0,0,1-3.06,2.15A3.16,3.16,0,0,1,186.78,364Z" style="fill:#263238"></path><path d="M150.55,372.31c0-.08.72-.4,1.78-1.14a11.46,11.46,0,0,0,4.88-8.46c.12-1.3,0-2.11.1-2.12a4.94,4.94,0,0,1,.27,2.14,10.55,10.55,0,0,1-5.05,8.75A4.85,4.85,0,0,1,150.55,372.31Z" style="fill:#263238"></path><path d="M158.1,398.09a3.39,3.39,0,0,1,1.37-.83,6.9,6.9,0,0,1,3.86-.36,9.43,9.43,0,0,1,3.54,1.57c.81.58,1.23,1,1.19,1.07a6.85,6.85,0,0,1-1.38-.76,11.74,11.74,0,0,0-3.45-1.36,7.48,7.48,0,0,0-3.64.19A8.61,8.61,0,0,1,158.1,398.09Z" style="fill:#263238"></path><path d="M225.73,304.34s-.19,0-.56,0a13.39,13.39,0,0,0-1.56.38c-1.35.38-3.28,1-5.65,1.88-1.17.42-2.51.89-3.88,1.31a14.51,14.51,0,0,0-3.59,2.93c-2.4,2.3-5,4.84-7.74,7.55-5.45,5.4-10.24,10.44-13.59,14.18-1.68,1.86-3,3.4-3.94,4.46-.43.51-.79.92-1.06,1.23a2.46,2.46,0,0,1-.39.41,3.48,3.48,0,0,1,.33-.46l1-1.28c.89-1.09,2.19-2.66,3.84-4.55,3.31-3.8,8.07-8.87,13.52-14.28,2.72-2.71,5.35-5.25,7.76-7.54a15,15,0,0,1,3.73-3c1.45-.44,2.72-.87,3.92-1.28,2.38-.8,4.33-1.41,5.7-1.76a10.66,10.66,0,0,1,1.59-.3,1.44,1.44,0,0,1,.43,0C225.69,304.32,225.73,304.33,225.73,304.34Z" style="fill:#455a64"></path><path d="M160.39,349.51a7.21,7.21,0,0,1-.55-1.28c-.16-.42-.36-.92-.63-1.5s-.54-1.24-.93-1.94-.77-1.49-1.27-2.28-1-1.64-1.63-2.51a41.06,41.06,0,0,0-4.44-5.21,42,42,0,0,0-5.29-4.35c-.89-.57-1.71-1.13-2.54-1.58s-1.59-.87-2.3-1.22-1.38-.64-2-.89a16,16,0,0,0-1.52-.61,9.19,9.19,0,0,1-1.29-.52,7.78,7.78,0,0,1,1.35.37,12.64,12.64,0,0,1,1.54.54,21.15,21.15,0,0,1,2,.83c.73.34,1.52.72,2.34,1.19s1.69,1,2.59,1.57a40.31,40.31,0,0,1,5.37,4.36,40.82,40.82,0,0,1,4.46,5.29c.59.89,1.17,1.73,1.62,2.56s.88,1.6,1.23,2.32.63,1.4.87,2a13.45,13.45,0,0,1,.57,1.54A10.91,10.91,0,0,1,160.39,349.51Z" style="fill:#455a64"></path></g></svg>