<svg xmlns="http://www.w3.org/2000/svg" viewBox="0 0 500 500"><g id="freepik--background-complete--inject-16"><rect y="382.4" width="500" height="0.25" style="fill:#ebebeb"></rect><rect x="416.78" y="398.49" width="33.12" height="0.25" style="fill:#ebebeb"></rect><rect x="322.53" y="401.21" width="8.69" height="0.25" style="fill:#ebebeb"></rect><rect x="396.59" y="389.21" width="19.19" height="0.25" style="fill:#ebebeb"></rect><rect x="52.46" y="390.89" width="43.19" height="0.25" style="fill:#ebebeb"></rect><rect x="104.56" y="390.89" width="6.33" height="0.25" style="fill:#ebebeb"></rect><rect x="131.47" y="395.11" width="93.68" height="0.25" style="fill:#ebebeb"></rect><path d="M237,337.8H43.91a5.71,5.71,0,0,1-5.7-5.71V60.66A5.71,5.71,0,0,1,43.91,55H237a5.71,5.71,0,0,1,5.71,5.71V332.09A5.71,5.71,0,0,1,237,337.8ZM43.91,55.2a5.46,5.46,0,0,0-5.45,5.46V332.09a5.46,5.46,0,0,0,5.45,5.46H237a5.47,5.47,0,0,0,5.46-5.46V60.66A5.47,5.47,0,0,0,237,55.2Z" style="fill:#ebebeb"></path><path d="M453.31,337.8H260.21a5.72,5.72,0,0,1-5.71-5.71V60.66A5.72,5.72,0,0,1,260.21,55h193.1A5.71,5.71,0,0,1,459,60.66V332.09A5.71,5.71,0,0,1,453.31,337.8ZM260.21,55.2a5.47,5.47,0,0,0-5.46,5.46V332.09a5.47,5.47,0,0,0,5.46,5.46h193.1a5.47,5.47,0,0,0,5.46-5.46V60.66a5.47,5.47,0,0,0-5.46-5.46Z" style="fill:#ebebeb"></path><polygon points="99.27 106.32 136.06 84.91 164.41 84.91 201.82 105.3 201.82 244.03 99.27 244.03 99.27 106.32" style="fill:#e0e0e0"></polygon><path d="M202.87,244H99.27V106.32l1.06-1a72.86,72.86,0,0,1,50.74-20.39h0a72.9,72.9,0,0,1,50.75,20.39l1.05,1Zm-96.72-6.88H196V109.27a66.44,66.44,0,0,0-89.85,0Z" style="fill:#fafafa"></path><polygon points="148.5 237.98 153.65 237.98 153.65 191.94 197.3 191.94 197.3 186.79 153.65 186.79 153.65 139.7 197.3 139.7 197.3 134.55 153.65 134.55 153.65 90.89 148.5 90.89 148.5 134.55 104.84 134.55 104.84 139.7 148.5 139.7 148.5 186.79 104.84 186.79 104.84 191.94 148.5 191.94 148.5 237.98" style="fill:#f0f0f0"></polygon><path d="M206.31,247.46H95.84V104.91l1-1a76.78,76.78,0,0,1,108.46,0l1,1Zm-103.6-6.87h96.72V107.78a69.89,69.89,0,0,0-96.72,0Z" style="fill:#f0f0f0"></path><path d="M383.51,129.92s1-6.6-3.81-10.83-4.39-6.75-3-7.07,2.64,3.9,4.76,5.06c0,0,.06-6-2.08-8.25s-3.28-7.94-1.24-8,2.26,3.4,2.68,5.88,2.7,6,2.7,6,.45-5.39,1.84-7.62-2.32-7.29-.89-9.52,4,2,3.76,6.77-3.39,9.84-2.65,14.81c0,0,1.4-3.49,2.66-3.81s2.53-2.62,3.37-3.48,1.91,2.11,0,4.86-6.77,10.11-6,16Z" style="fill:#e6e6e6"></path><path d="M380.64,126.92l-1.58,9.89a5,5,0,0,0,5,5.82h1.68a5,5,0,0,0,5-5.82l-1.57-9.89Z" style="fill:#e6e6e6"></path><rect x="293.07" y="138.98" width="111.4" height="5.72" style="fill:#e0e0e0"></rect><rect x="298.2" y="117.88" width="4.91" height="21.1" style="fill:#ebebeb"></rect><rect x="321.93" y="117.88" width="4.91" height="21.1" style="fill:#ebebeb"></rect><rect x="350.7" y="117.62" width="4.91" height="21.1" transform="translate(-16.64 61.84) rotate(-9.78)" style="fill:#ebebeb"></rect><rect x="304.28" y="120.66" width="4.91" height="18.32" style="fill:#ebebeb"></rect><rect x="315.56" y="120.66" width="4.91" height="18.32" style="fill:#ebebeb"></rect><rect x="344.04" y="120.66" width="4.91" height="18.32" style="fill:#ebebeb"></rect><rect x="330.42" y="120.35" width="4.91" height="18.32" transform="translate(-20.17 75.28) rotate(-12.53)" style="fill:#ebebeb"></rect><rect x="310.98" y="116.83" width="2.45" height="22.15" style="fill:#ebebeb"></rect><rect x="340.17" y="116.83" width="2.45" height="22.15" style="fill:#ebebeb"></rect><rect x="293.07" y="181.71" width="111.4" height="5.72" transform="translate(697.55 369.15) rotate(180)" style="fill:#e0e0e0"></rect><rect x="394.44" y="160.61" width="4.91" height="21.1" transform="translate(793.79 342.32) rotate(180)" style="fill:#ebebeb"></rect><rect x="370.71" y="160.61" width="4.91" height="21.1" transform="translate(746.32 342.32) rotate(180)" style="fill:#ebebeb"></rect><rect x="341.94" y="160.35" width="4.91" height="21.1" transform="translate(654.75 397.81) rotate(-170.22)" style="fill:#ebebeb"></rect><rect x="388.36" y="163.39" width="4.91" height="18.32" transform="translate(781.62 345.1) rotate(180)" style="fill:#ebebeb"></rect><rect x="377.08" y="163.39" width="4.91" height="18.32" transform="translate(759.06 345.1) rotate(180)" style="fill:#ebebeb"></rect><rect x="348.6" y="163.39" width="4.91" height="18.32" transform="translate(702.11 345.1) rotate(180)" style="fill:#ebebeb"></rect><rect x="362.22" y="163.08" width="4.91" height="18.32" transform="translate(683.3 419.47) rotate(-167.47)" style="fill:#ebebeb"></rect><rect x="384.11" y="159.56" width="2.45" height="22.15" transform="translate(770.68 341.28) rotate(180)" style="fill:#ebebeb"></rect><rect x="354.92" y="159.56" width="2.45" height="22.15" transform="translate(712.3 341.28) rotate(180)" style="fill:#ebebeb"></rect><rect x="303.76" y="165.01" width="23.91" height="16.51" transform="translate(631.44 346.53) rotate(180)" style="fill:#ebebeb"></rect></g><g id="freepik--Plant--inject-16"><path d="M98.49,370.79s7.76-9.23,12.72-4.93,2.45,13.44-3.27,13.73a14.41,14.41,0,0,1-9.45-2.89Z" style="fill:#4F46E5"></path><path d="M98.49,370.79s7.76-9.23,12.72-4.93,2.45,13.44-3.27,13.73a14.41,14.41,0,0,1-9.45-2.89Z" style="fill:#fff;isolation:isolate;opacity:0.1"></path><path d="M66.86,347.38s-6.51-6.82-10.54-5.66-3.61,17.45,8.89,10.86Z" style="fill:#4F46E5"></path><path d="M66.86,347.38s-6.51-6.82-10.54-5.66-3.61,17.45,8.89,10.86Z" style="fill:#fff;isolation:isolate;opacity:0.2"></path><path d="M90.12,398.28s21.4-29.28,4-35.21-20.47,23.55-15.5,31.76S90.12,398.28,90.12,398.28Z" style="fill:#4F46E5"></path><path d="M80.2,338.34s-13.28-30.82,6.39-31.75,21.8,30.56-.83,35.13Z" style="fill:#4F46E5"></path><path d="M90.12,398.28s21.4-29.28,4-35.21-20.47,23.55-15.5,31.76S90.12,398.28,90.12,398.28Z" style="fill:#fff;isolation:isolate;opacity:0.2"></path><path d="M80.2,338.34s-13.28-30.82,6.39-31.75,21.8,30.56-.83,35.13Z" style="fill:#fff;isolation:isolate;opacity:0.2"></path><path d="M84.91,363.58s6.45-27.22-6-29.39S54.31,356.61,80,369C80,369,84.37,366.24,84.91,363.58Z" style="fill:#4F46E5"></path><path d="M84.91,363.58s6.45-27.22-6-29.39S54.31,356.61,80,369C80,369,84.37,366.24,84.91,363.58Z" style="fill:#fff;isolation:isolate;opacity:0.1"></path><polygon points="105.52 394.13 69.6 394.13 72.6 417.11 102.52 417.11 105.52 394.13" style="fill:#4F46E5"></polygon><path d="M86.84,336.14a33.11,33.11,0,0,0,2.29-2.59,30.16,30.16,0,0,0,2.06-2.74,32,32,0,0,0,3.21-6,21.26,21.26,0,0,0,1.44-6.58l0-1.7c0-.56-.14-1.13-.19-1.69,0-.29,0-.58-.09-.86l-.2-.83c-.14-.56-.27-1.12-.39-1.69a16.42,16.42,0,0,1,1.6,6.78,18.25,18.25,0,0,1-1.28,6.93,24.73,24.73,0,0,1-3.52,6.08A25.25,25.25,0,0,1,86.84,336.14Z" style="fill:#4F46E5"></path><path d="M91.55,309.69a16.21,16.21,0,0,0-9.13,9l-.57,1.54c-.17.52-.26,1.07-.4,1.59a27.4,27.4,0,0,0-.56,3.26c-.11,1.1-.11,2.22-.16,3.33s.09,2.24.09,3.37c-.23-1.1-.39-2.22-.58-3.34s-.13-2.27-.11-3.41a19.75,19.75,0,0,1,1.37-6.72,14.87,14.87,0,0,1,6.83-7.53A12.52,12.52,0,0,1,91.55,309.69Z" style="fill:#4F46E5"></path><path d="M76.51,336.14A11.61,11.61,0,0,0,73,338.92a12.46,12.46,0,0,0-2.3,3.78,15,15,0,0,0-1,4.29,6.75,6.75,0,0,0,0,1.1c0,.36,0,.72,0,1.08a13,13,0,0,0,.46,2.13,25,25,0,0,0,4.22,7.81,41.65,41.65,0,0,0,2.89,3.48c1,1.14,2.07,2.21,3.16,3.27a38,38,0,0,1-6.65-6.27,29.75,29.75,0,0,1-2.7-3.75,19.57,19.57,0,0,1-1.88-4.26,13.71,13.71,0,0,1-.47-2.31,11.82,11.82,0,0,1,0-1.19,6.57,6.57,0,0,1,.06-1.18A14.41,14.41,0,0,1,70,342.4,11.65,11.65,0,0,1,76.51,336.14Z" style="fill:#4F46E5"></path><path d="M80.2,338.34c-.16,1.05-.33,2.09-.41,3.14a25.42,25.42,0,0,0-.2,3.13,18.47,18.47,0,0,0,.19,3.08,6.88,6.88,0,0,0,.93,2.79,11,11,0,0,1,.79,1.45A10,10,0,0,1,82,353.5a15.43,15.43,0,0,1,.4,3.23,24,24,0,0,1-.69,6.34c0-1.06.09-2.11.07-3.16a27.11,27.11,0,0,0-.15-3.13A12,12,0,0,0,79.86,351a7.76,7.76,0,0,1-1-3.19,15.36,15.36,0,0,1,0-3.25A24.45,24.45,0,0,1,80.2,338.34Z" style="fill:#4F46E5"></path><path d="M88.93,365.86A3.25,3.25,0,0,0,87.8,367a10,10,0,0,0-.72,1.47A23.72,23.72,0,0,0,86,371.61c-.58,2.13-1.09,4.27-1.53,6.44s-.85,4.34-1.27,6.51c-.21,1.09-.4,2.18-.58,3.28s-.37,2.18-.53,3.29a43.86,43.86,0,0,1,.35-6.68c.24-2.22.61-4.42,1.05-6.6a48.4,48.4,0,0,1,1.78-6.47,24.23,24.23,0,0,1,1.35-3.1,10.14,10.14,0,0,1,1-1.4A2.93,2.93,0,0,1,88.93,365.86Z" style="fill:#4F46E5"></path><path d="M95,366.81a18.58,18.58,0,0,1,1.78,6,19.4,19.4,0,0,1-.24,6.31,10.22,10.22,0,0,1-.39,1.54c-.16.51-.29,1-.49,1.51a19.87,19.87,0,0,1-3.3,5.38,9.61,9.61,0,0,1-1.1,1.11c-.38.37-.76.72-1.15,1.06a28.83,28.83,0,0,0,3.43-5.1,20.09,20.09,0,0,0,2-5.7,23,23,0,0,0,.44-6A28,28,0,0,0,95,366.81Z" style="fill:#4F46E5"></path><path d="M61.81,350.71A4.17,4.17,0,0,1,60,351a5.38,5.38,0,0,1-1.8-.39,4.3,4.3,0,0,1-1.51-1.09,3.22,3.22,0,0,1-.79-1.65,12.09,12.09,0,0,0,1.31,1.07,8.85,8.85,0,0,0,1.39.75A27.69,27.69,0,0,0,61.81,350.71Z" style="fill:#4F46E5"></path><path d="M63.14,346.21l-1.59-.74A9.5,9.5,0,0,0,60,344.9a5.22,5.22,0,0,0-1.52-.22,6.28,6.28,0,0,0-1.64.37,2.7,2.7,0,0,1,1.5-1.13,3.55,3.55,0,0,1,1.94,0,4.88,4.88,0,0,1,1.66.87A4.31,4.31,0,0,1,63.14,346.21Z" style="fill:#4F46E5"></path><path d="M102,372.16a8,8,0,0,1,1.44-2.09,8.36,8.36,0,0,1,2-1.62,4.59,4.59,0,0,1,2.58-.69,3,3,0,0,1,2.29,1.21,4,4,0,0,0-2.27-.43,5.47,5.47,0,0,0-2.11.78A36.68,36.68,0,0,0,102,372.16Z" style="fill:#4F46E5"></path><path d="M102,376.7a48.41,48.41,0,0,0,5.75-.43,8.14,8.14,0,0,0,2.61-.83,4,4,0,0,0,1.83-2,3.33,3.33,0,0,1-1.4,2.67,6.35,6.35,0,0,1-2.87,1.16,12.15,12.15,0,0,1-3,.1A10.77,10.77,0,0,1,102,376.7Z" style="fill:#4F46E5"></path><g style="opacity:0.4"><polygon points="105.52 394.13 69.6 394.13 72.6 417.11 102.52 417.11 105.52 394.13"></polygon></g></g><g id="freepik--Screen--inject-16"><path d="M263.08,110.82V387.29a4.34,4.34,0,0,1-4.4,4.34h-138a3.85,3.85,0,0,1-2.76-1.12,3.49,3.49,0,0,1-.49-.59,4,4,0,0,1-.68-2.27V110.46a3.5,3.5,0,0,1,3.36-3.63h39.19a2.62,2.62,0,0,1,1.17.28,1.41,1.41,0,0,1,.35.21,3.06,3.06,0,0,1,.59.55,2.85,2.85,0,0,1,.41.72l1.63,4,0,.09a3.18,3.18,0,0,0,.37.62,2.74,2.74,0,0,0,2.11,1H214a2.73,2.73,0,0,0,2.52-1.72l1.63-4a2.76,2.76,0,0,1,2.52-1.77h38.62A4,4,0,0,1,263.08,110.82Z" style="fill:#4F46E5"></path><path d="M263.08,110.82v15.33H116.78V110.46a3.5,3.5,0,0,1,3.36-3.63h39.19a2.62,2.62,0,0,1,1.17.28,1.41,1.41,0,0,1,.35.21,3.06,3.06,0,0,1,.59.55,2.85,2.85,0,0,1,.41.72l1.63,4,0,.09a3.18,3.18,0,0,0,.37.62,2.74,2.74,0,0,0,2.11,1H214a2.73,2.73,0,0,0,2.52-1.72l1.63-4a2.76,2.76,0,0,1,2.52-1.77h38.62A4,4,0,0,1,263.08,110.82Z" style="fill:#263238"></path><path d="M116.78,378.5h146.3v8.79a4.34,4.34,0,0,1-4.4,4.34h-138a3.85,3.85,0,0,1-2.76-1.12,3.49,3.49,0,0,1-.49-.59,4,4,0,0,1-.68-2.27Z" style="fill:#263238"></path><rect x="116.78" y="126.15" width="146.3" height="252.35" style="fill:#fff;isolation:isolate;opacity:0.30000000000000004"></rect><path d="M125.75,241h1v5.59h-1Z" style="fill:#fff"></path><path d="M132.41,244.12v2.44h-1v-2.31c0-.76-.38-1.13-1-1.13a1.13,1.13,0,0,0-1.19,1.29v2.15h-1v-4.27h.95v.56a1.87,1.87,0,0,1,1.47-.6A1.66,1.66,0,0,1,132.41,244.12Z" style="fill:#fff"></path><path d="M136.26,246.33a1.59,1.59,0,0,1-1,.29,1.31,1.31,0,0,1-1.47-1.44v-2.05h-.71v-.8h.71v-1h1v1H136v.8h-1.15v2a.56.56,0,0,0,.6.64.94.94,0,0,0,.56-.18Z" style="fill:#fff"></path><path d="M139.55,242.25v.95l-.23,0a1.17,1.17,0,0,0-1.24,1.32v2.07h-1v-4.27H138v.63A1.68,1.68,0,0,1,139.55,242.25Z" style="fill:#fff"></path><path d="M140,244.43a2.28,2.28,0,1,1,2.27,2.19A2.15,2.15,0,0,1,140,244.43Zm3.54,0a1.27,1.27,0,1,0-1.27,1.34A1.24,1.24,0,0,0,143.55,244.43Z" style="fill:#fff"></path><path d="M149.7,240.63v5.93h-1V246a1.74,1.74,0,0,1-1.41.61,2.19,2.19,0,0,1,0-4.37,1.73,1.73,0,0,1,1.37.57v-2.19Zm-1,3.8a1.27,1.27,0,1,0-1.27,1.34A1.25,1.25,0,0,0,148.72,244.43Z" style="fill:#fff"></path><path d="M155.15,242.29v4.27h-1V246a1.75,1.75,0,0,1-1.38.6,1.69,1.69,0,0,1-1.83-1.89v-2.44h1v2.31c0,.77.37,1.14,1,1.14s1.17-.43,1.17-1.29v-2.16Z" style="fill:#fff"></path><path d="M156.11,244.43a2.16,2.16,0,0,1,2.31-2.18,1.92,1.92,0,0,1,1.83,1l-.77.45a1.22,1.22,0,0,0-1.06-.6,1.34,1.34,0,0,0,0,2.68,1.22,1.22,0,0,0,1.06-.6l.77.45a2,2,0,0,1-1.83,1A2.17,2.17,0,0,1,156.11,244.43Z" style="fill:#fff"></path><path d="M163.74,246.33a1.59,1.59,0,0,1-1,.29,1.31,1.31,0,0,1-1.47-1.44v-2.05h-.71v-.8h.71v-1h1v1h1.15v.8H162.3v2a.56.56,0,0,0,.6.64.94.94,0,0,0,.56-.18Z" style="fill:#fff"></path><path d="M164.43,241a.61.61,0,0,1,.63-.6.6.6,0,0,1,.64.58.61.61,0,0,1-.64.62A.6.6,0,0,1,164.43,241Zm.13,1.3h1v4.27h-1Z" style="fill:#fff"></path><path d="M166.52,244.43a2.28,2.28,0,1,1,2.27,2.19A2.15,2.15,0,0,1,166.52,244.43Zm3.54,0a1.27,1.27,0,1,0-1.27,1.34A1.24,1.24,0,0,0,170.06,244.43Z" style="fill:#fff"></path><path d="M176.24,244.12v2.44h-1v-2.31c0-.76-.38-1.13-1-1.13a1.13,1.13,0,0,0-1.19,1.29v2.15h-1v-4.27H173v.56a1.88,1.88,0,0,1,1.48-.6A1.67,1.67,0,0,1,176.24,244.12Z" style="fill:#fff"></path><rect x="125" y="152.42" width="130.03" height="82.38" style="fill:#fff;isolation:isolate;opacity:0.7000000000000001"></rect><rect x="125" y="232.14" width="130.03" height="2.66" style="isolation:isolate;opacity:0.5"></rect><rect x="125" y="232.14" width="45.05" height="2.66" style="fill:#fff;isolation:isolate;opacity:0.6000000000000001"></rect><path d="M173.51,233.56a3.16,3.16,0,1,1-3.15-3.16A3.15,3.15,0,0,1,173.51,233.56Z" style="fill:#fff"></path><polygon points="242.23 241.65 247.42 246.84 252.6 241.65 242.23 241.65" style="fill:#fff;isolation:isolate;opacity:0.4"></polygon><rect x="125" y="258.08" width="130.03" height="46.51" style="fill:#fff;isolation:isolate;opacity:0.4"></rect><rect x="131.14" y="263.41" width="45.69" height="35.86" style="isolation:isolate;opacity:0.30000000000000004"></rect><path d="M182.84,268.11a2.27,2.27,0,0,1,3.91-1.46l-.5.47a1.47,1.47,0,0,0-1.12-.49,1.48,1.48,0,1,0,1.12,2.45l.5.49a2.27,2.27,0,0,1-3.91-1.46Z" style="fill:#fff"></path><path d="M190.59,268.37v1.84h-.75v-1.74c0-.57-.28-.85-.76-.85a.86.86,0,0,0-.9,1v1.62h-.75v-4.45h.75v1.62a1.42,1.42,0,0,1,1.07-.41A1.25,1.25,0,0,1,190.59,268.37Z" style="fill:#fff"></path><path d="M194.22,268.33v1.88h-.7v-.39a1.15,1.15,0,0,1-1,.43c-.73,0-1.19-.4-1.19-1s.36-1,1.33-1h.82v0c0-.44-.26-.7-.79-.7a1.57,1.57,0,0,0-1,.32l-.3-.55a2.28,2.28,0,0,1,1.36-.39C193.69,267,194.22,267.41,194.22,268.33Zm-.75.88v-.38h-.77c-.51,0-.65.2-.65.43s.23.44.61.44A.8.8,0,0,0,193.47,269.21Z" style="fill:#fff"></path><path d="M198.59,268.61a1.56,1.56,0,0,1-1.63,1.64,1.34,1.34,0,0,1-1-.43v1.55h-.74V267h.71v.42A1.33,1.33,0,0,1,197,267,1.56,1.56,0,0,1,198.59,268.61Zm-.77,0a.93.93,0,0,0-.94-1,1,1,0,0,0,0,2A.93.93,0,0,0,197.82,268.61Z" style="fill:#fff"></path><path d="M201.23,270a1.14,1.14,0,0,1-.72.22,1,1,0,0,1-1.11-1.08v-1.54h-.52V267h.52v-.73h.75V267H201v.6h-.86v1.52a.42.42,0,0,0,.45.48.7.7,0,0,0,.42-.13Z" style="fill:#fff"></path><path d="M204.74,268.85h-2.52a1,1,0,0,0,1,.76,1.16,1.16,0,0,0,.87-.34l.4.46a1.8,1.8,0,0,1-3.06-1.12,1.6,1.6,0,0,1,1.66-1.64,1.56,1.56,0,0,1,1.62,1.65C204.75,268.68,204.74,268.77,204.74,268.85Zm-2.52-.5H204a.92.92,0,0,0-1.81,0Z" style="fill:#fff"></path><path d="M207.32,267v.71l-.17,0a.88.88,0,0,0-.93,1v1.56h-.75V267h.71v.47A1.28,1.28,0,0,1,207.32,267Z" style="fill:#fff"></path><path d="M209.42,268.11c0-1.38.75-2.16,1.75-2.16s1.76.78,1.76,2.16-.76,2.16-1.76,2.16S209.42,269.49,209.42,268.11Zm2.72,0c0-1-.4-1.48-1-1.48s-1,.46-1,1.48.4,1.48,1,1.48S212.14,269.12,212.14,268.11Z" style="fill:#fff"></path><path d="M214.88,266v4.2h-.78v-3.55h-.89V266Z" style="fill:#fff"></path><rect x="182.58" y="274.41" width="61.86" height="2.26" rx="1.1" style="fill:#fff;isolation:isolate;opacity:0.5"></rect><rect x="182.58" y="279.41" width="50.86" height="2.26" rx="1.1" style="fill:#fff;isolation:isolate;opacity:0.5"></rect><polygon points="146.42 274.79 146.42 287.88 159.51 281.34 146.42 274.79" style="fill:#fff;isolation:isolate;opacity:0.6000000000000001"></polygon><polygon points="253.87 146.62 249.24 142.63 244.62 146.62 244.62 135.65 253.87 135.65 253.87 146.62" style="fill:#4F46E5"></polygon><path d="M237.18,135.65h-7a1.73,1.73,0,0,0-1.73,1.73v4.76a1.74,1.74,0,0,0,1.73,1.73h2.36v2.75l1.8-2.75h2.8a1.73,1.73,0,0,0,1.73-1.73v-4.76A1.72,1.72,0,0,0,237.18,135.65Z" style="fill:#4F46E5"></path><path d="M223.22,137c-1.28-2.11-3.76-1.32-5.05.31-1.27-1.64-3.75-2.46-5.06-.37-2.2,3.54,2.28,6.86,4.41,8.16l.6.37.61-.36C220.86,143.79,225.39,140.53,223.22,137Z" style="fill:#4F46E5"></path><rect x="125" y="143.38" width="49.01" height="4.99" rx="2.42" style="fill:#4F46E5;isolation:isolate"></rect><rect x="125" y="135.65" width="63.43" height="4.99" rx="2.42" style="fill:#4F46E5;isolation:isolate"></rect><rect x="125" y="310.09" width="130.03" height="46.51" style="fill:#fff;isolation:isolate;opacity:0.4"></rect><rect x="131.14" y="315.41" width="45.69" height="35.86" style="isolation:isolate;opacity:0.30000000000000004"></rect><path d="M182.84,320.11a2.27,2.27,0,0,1,3.91-1.46l-.5.48a1.47,1.47,0,0,0-1.12-.49,1.48,1.48,0,1,0,0,2.95,1.48,1.48,0,0,0,1.12-.5l.5.48a2.27,2.27,0,0,1-3.91-1.46Z" style="fill:#fff"></path><path d="M190.59,320.38v1.83h-.75v-1.74c0-.57-.28-.84-.76-.84a.85.85,0,0,0-.9,1v1.62h-.75v-4.45h.75v1.62a1.46,1.46,0,0,1,1.07-.41A1.26,1.26,0,0,1,190.59,320.38Z" style="fill:#fff"></path><path d="M194.22,320.33v1.88h-.7v-.39a1.13,1.13,0,0,1-1,.43c-.73,0-1.19-.4-1.19-1s.36-1,1.33-1h.82v0c0-.44-.26-.69-.79-.69a1.63,1.63,0,0,0-1,.31l-.3-.54a2.21,2.21,0,0,1,1.36-.4C193.69,319,194.22,319.41,194.22,320.33Zm-.75.88v-.37h-.77c-.51,0-.65.19-.65.42s.23.45.61.45A.81.81,0,0,0,193.47,321.21Z" style="fill:#fff"></path><path d="M198.59,320.61a1.56,1.56,0,0,1-1.63,1.64,1.34,1.34,0,0,1-1-.43v1.55h-.74V319h.71v.42A1.3,1.3,0,0,1,197,319,1.56,1.56,0,0,1,198.59,320.61Zm-.77,0a.93.93,0,0,0-.94-1,1,1,0,0,0,0,2A.93.93,0,0,0,197.82,320.61Z" style="fill:#fff"></path><path d="M201.23,322a1.2,1.2,0,0,1-.72.21,1,1,0,0,1-1.11-1.08v-1.54h-.52V319h.52v-.73h.75V319H201v.6h-.86v1.53a.41.41,0,0,0,.45.47.7.7,0,0,0,.42-.13Z" style="fill:#fff"></path><path d="M204.74,320.85h-2.52a1,1,0,0,0,1,.77,1.17,1.17,0,0,0,.87-.35l.4.46a1.8,1.8,0,0,1-3.06-1.12,1.6,1.6,0,0,1,1.66-1.64,1.57,1.57,0,0,1,1.62,1.66C204.75,320.69,204.74,320.78,204.74,320.85Zm-2.52-.5H204a.92.92,0,0,0-1.81,0Z" style="fill:#fff"></path><path d="M207.32,319v.72a.52.52,0,0,0-.17,0,.87.87,0,0,0-.93,1v1.55h-.75V319h.71v.47A1.26,1.26,0,0,1,207.32,319Z" style="fill:#fff"></path><path d="M209.42,320.11c0-1.38.75-2.16,1.75-2.16s1.76.78,1.76,2.16-.76,2.16-1.76,2.16S209.42,321.49,209.42,320.11Zm2.72,0c0-1-.4-1.48-1-1.48s-1,.47-1,1.48.4,1.48,1,1.48S212.14,321.12,212.14,320.11Z" style="fill:#fff"></path><path d="M216.47,321.55v.66h-3.1v-.52l1.67-1.58c.41-.39.48-.64.48-.87,0-.39-.27-.61-.78-.61a1.2,1.2,0,0,0-1,.44l-.54-.42a1.92,1.92,0,0,1,1.59-.7c.92,0,1.5.46,1.5,1.21a1.66,1.66,0,0,1-.69,1.32l-1.12,1.07Z" style="fill:#fff"></path><rect x="182.58" y="326.41" width="61.86" height="2.26" rx="1.1" style="fill:#fff;isolation:isolate;opacity:0.5"></rect><rect x="182.58" y="331.41" width="50.86" height="2.26" rx="1.1" style="fill:#fff;isolation:isolate;opacity:0.5"></rect><polygon points="146.42 326.8 146.42 339.89 159.51 333.34 146.42 326.8" style="fill:#fff;isolation:isolate;opacity:0.6000000000000001"></polygon><path d="M139.15,160.93v7.34h-1.36v-3.15H134v3.15h-1.37v-7.34H134v3h3.79v-3Z" style="fill:#4F46E5"></path><path d="M140.54,165.47a3,3,0,1,1,3,2.87A2.82,2.82,0,0,1,140.54,165.47Zm4.64,0a1.66,1.66,0,1,0-1.66,1.75A1.63,1.63,0,0,0,145.18,165.47Z" style="fill:#4F46E5"></path><path d="M156.34,162.67l-2.07,5.6H153l-1.45-3.86-1.47,3.86h-1.26l-2.05-5.6H148l1.47,4.13,1.55-4.13h1.1l1.51,4.15,1.52-4.15Z" style="fill:#4F46E5"></path><path d="M163.5,168a2,2,0,0,1-1.25.38,1.72,1.72,0,0,1-1.93-1.88v-2.7h-.93v-1h.93v-1.28h1.31v1.28h1.5v1h-1.5v2.66c0,.55.27.84.77.84a1.17,1.17,0,0,0,.74-.23Z" style="fill:#4F46E5"></path><path d="M163.94,165.47a3,3,0,1,1,3,2.87A2.81,2.81,0,0,1,163.94,165.47Zm4.64,0a1.66,1.66,0,1,0-1.67,1.75A1.63,1.63,0,0,0,168.58,165.47Z" style="fill:#4F46E5"></path><path d="M132.63,169.93H134v7.34h-1.37Z" style="fill:#4F46E5"></path><path d="M141.37,174.06v3.21h-1.31v-3c0-1-.5-1.48-1.34-1.48a1.49,1.49,0,0,0-1.56,1.69v2.83h-1.31v-5.6h1.25v.72a2.44,2.44,0,0,1,1.93-.78A2.19,2.19,0,0,1,141.37,174.06Z" style="fill:#4F46E5"></path><path d="M142.63,174.47a2.83,2.83,0,0,1,3-2.86,2.52,2.52,0,0,1,2.39,1.3l-1,.59a1.58,1.58,0,0,0-1.39-.78,1.75,1.75,0,0,0,0,3.5,1.58,1.58,0,0,0,1.39-.78l1,.59a2.54,2.54,0,0,1-2.39,1.31A2.83,2.83,0,0,1,142.63,174.47Z" style="fill:#4F46E5"></path><path d="M152.42,171.61v1.25a1.92,1.92,0,0,0-.3,0,1.53,1.53,0,0,0-1.63,1.73v2.72h-1.31v-5.6h1.25v.82A2.2,2.2,0,0,1,152.42,171.61Z" style="fill:#4F46E5"></path><path d="M158.72,174.89h-4.39a1.69,1.69,0,0,0,1.81,1.34,2,2,0,0,0,1.52-.61l.7.81a3,3,0,1,1-2.45-4.82,2.72,2.72,0,0,1,2.83,2.89C158.74,174.61,158.73,174.76,158.72,174.89Zm-4.4-.87h3.17a1.51,1.51,0,0,0-1.58-1.36A1.54,1.54,0,0,0,154.32,174Z" style="fill:#4F46E5"></path><path d="M164.53,174v3.28h-1.24v-.68a2,2,0,0,1-1.76.75c-1.28,0-2.08-.7-2.08-1.68s.63-1.66,2.32-1.66h1.45v-.09c0-.76-.46-1.21-1.39-1.21a2.81,2.81,0,0,0-1.7.55l-.52-.95a4,4,0,0,1,2.37-.69C163.6,171.61,164.53,172.37,164.53,174Zm-1.31,1.53v-.65h-1.35c-.89,0-1.13.33-1.13.74s.39.78,1.07.78A1.43,1.43,0,0,0,163.22,175.52Z" style="fill:#4F46E5"></path><path d="M165.57,176.71l.5-1a3.84,3.84,0,0,0,2,.55c.83,0,1.18-.23,1.18-.62,0-1.06-3.46-.06-3.46-2.29,0-1.06.95-1.75,2.46-1.75a4.49,4.49,0,0,1,2.1.48l-.5,1a3,3,0,0,0-1.61-.42c-.79,0-1.17.26-1.17.63,0,1.13,3.46.12,3.46,2.31,0,1-1,1.73-2.54,1.73A4.42,4.42,0,0,1,165.57,176.71Z" style="fill:#4F46E5"></path><path d="M176.85,174.89h-4.39a1.69,1.69,0,0,0,1.81,1.34,2,2,0,0,0,1.52-.61l.71.81a3.15,3.15,0,0,1-5.35-2,2.78,2.78,0,0,1,2.89-2.86,2.72,2.72,0,0,1,2.83,2.89C176.87,174.61,176.86,174.76,176.85,174.89Zm-4.4-.87h3.18a1.61,1.61,0,0,0-3.18,0Z" style="fill:#4F46E5"></path><path d="M137.75,180.67l-2.62,6.05a2.18,2.18,0,0,1-2.16,1.66,2.29,2.29,0,0,1-1.5-.52l.52-1a1.43,1.43,0,0,0,1,.39c.46,0,.73-.22,1-.78l.1-.22-2.45-5.62H133l1.76,4.14,1.77-4.14Z" style="fill:#4F46E5"></path><path d="M138,183.47a3,3,0,1,1,3,2.87A2.82,2.82,0,0,1,138,183.47Zm4.64,0a1.66,1.66,0,1,0-1.66,1.75A1.63,1.63,0,0,0,142.59,183.47Z" style="fill:#4F46E5"></path><path d="M150.59,180.67v5.6h-1.24v-.71a2.3,2.3,0,0,1-1.81.78,2.21,2.21,0,0,1-2.41-2.47v-3.2h1.31v3c0,1,.49,1.5,1.31,1.5s1.53-.57,1.53-1.69v-2.83Z" style="fill:#4F46E5"></path><path d="M155.56,180.61v1.25a1.88,1.88,0,0,0-.31,0,1.53,1.53,0,0,0-1.62,1.73v2.72h-1.31v-5.6h1.24v.82A2.21,2.21,0,0,1,155.56,180.61Z" style="fill:#4F46E5"></path><path d="M131.57,198.62l.55-1.23a4.75,4.75,0,0,0,2.83.94c1.33,0,1.89-.48,1.89-1.11,0-1.85-5.09-.64-5.09-3.82,0-1.38,1.1-2.56,3.45-2.56a5.45,5.45,0,0,1,2.86.76l-.51,1.24a4.68,4.68,0,0,0-2.36-.68c-1.32,0-1.86.52-1.86,1.17,0,1.82,5.08.63,5.08,3.78,0,1.37-1.11,2.54-3.46,2.54A5.46,5.46,0,0,1,131.57,198.62Z" style="fill:#263238"></path><path d="M142.93,195.94l-1.35,1.4v2.19H140V191h1.6v4.4l4.23-4.4h1.79l-3.6,3.83,3.82,4.74H146Z" style="fill:#263238"></path><path d="M148.9,191h1.59v8.57H148.9Z" style="fill:#263238"></path><path d="M152.8,191h1.59v7.22h4.48v1.35H152.8Z" style="fill:#263238"></path><path d="M160.13,191h1.59v7.22h4.48v1.35h-6.07Z" style="fill:#263238"></path><path d="M166.67,198.62l.55-1.23a4.78,4.78,0,0,0,2.83.94c1.33,0,1.9-.48,1.9-1.11,0-1.85-5.1-.64-5.1-3.82,0-1.38,1.11-2.56,3.46-2.56a5.44,5.44,0,0,1,2.85.76l-.5,1.24a4.74,4.74,0,0,0-2.37-.68c-1.32,0-1.86.52-1.86,1.17,0,1.82,5.08.63,5.08,3.78,0,1.37-1.11,2.54-3.46,2.54A5.46,5.46,0,0,1,166.67,198.62Z" style="fill:#263238"></path><path d="M181.13,202.81l-4.65-2.28s-1.38-3.06-1.48-3-8.9-1.81-8.9-1.81-.1,5.19.89,6.3,7,1.61,7.31,1.8,1-.43,1-.43l5,3.25Z" style="fill:#ebb376"></path><path d="M231.93,163.69s-1.93-4.45-8.16-4.45-11.42,3.71-11.12,8.46-3.27,4.3-3.86,8.9,1.63,5.78,1.78,7.71-2.37,1.34-4,4.6-3.71,7.86,3.27,14,26.7,5,31,1.33,4.16-10.83,0-12.76-.29-1.63.15-5.93-3.41-5.93-3.12-9.35S239.2,164,231.93,163.69Z" style="fill:#263238"></path><path d="M207.72,192.56v12.23s-1.05,1.31-2.62,3a40.65,40.65,0,0,1-5.42,4.94c-1.88,1.36-3.77,2.29-5.3,2.1-4.84-.63-17.9-8.13-17.9-8.13l2.18-5.77s14.83,7.63,15.72,6.84S205,193.25,207.72,192.56Z" style="fill:#4F46E5"></path><path d="M205.1,207.78a40.65,40.65,0,0,1-5.42,4.94c-.71-5.46,5.55-12.19,5.55-12.19S205.32,204,205.1,207.78Z" style="isolation:isolate;opacity:0.2"></path><path d="M232,232.14H217.31v0l-.43,0H206.39c.05-.46.09-.87.13-1.2s.07-.72.09-.94,0-.19,0-.28a.28.28,0,0,1,0-.09l1,0,1.23,0,3.16.12,5.43.2,5.35.2,1.23.05,4.66.17,2.56.1h0C231.54,231.07,231.77,231.6,232,232.14Z" style="fill:#4F46E5"></path><path d="M232,232.14H217.31v0l-.43,0H206.39c.05-.46.09-.87.13-1.2s.07-.72.09-.94,0-.19,0-.28a.28.28,0,0,1,0-.09l1,0,1.23,0,3.16.12,5.43.21,5.35.2,1.23,0,4.66.17,2.56.1h0C231.54,231.07,231.77,231.6,232,232.14Z" style="fill:#fff;isolation:isolate;opacity:0.4"></path><polygon points="231.29 232.14 222.98 232.14 222.75 232.13 217.34 231.81 211.91 231.5 208.81 231.32 207.59 231.25 206.53 231.19 206.52 231.19 206.52 230.94 206.44 226.91 206.46 226.91 206.88 226.95 207.73 227.02 208.95 227.12 222.88 228.3 224.1 228.4 228.55 228.77 231.23 229 231.26 230.55 231.26 230.56 231.29 232.14" style="fill:#263238"></polygon><polygon points="217.6 228.06 217.6 228.1 217.46 230.03 217.46 230.04 217.34 231.81 217.31 232.14 217.31 232.17 216.88 232.14 211.89 231.79 211.91 231.5 212.03 229.83 212.18 227.74 212.18 227.68 217.6 228.06" style="fill:#fff"></polygon><polygon points="224.12 227.67 224.1 228.4 224.09 228.53 224.04 230.28 224.04 230.29 223.98 232.14 222.75 232.14 222.75 232.13 222.81 230.24 222.81 230.23 222.87 228.45 222.88 228.3 222.9 227.63 224.1 227.67 224.12 227.67" style="fill:#4F46E5"></polygon><polygon points="224.12 227.67 224.1 228.4 224.09 228.53 224.04 230.28 224.04 230.29 223.98 232.14 222.75 232.14 222.75 232.13 222.81 230.24 222.81 230.23 222.87 228.45 222.88 228.3 222.9 227.63 224.1 227.67 224.12 227.67" style="fill:#fff;isolation:isolate;opacity:0.4"></polygon><polygon points="208.98 226.3 208.95 227.12 208.94 227.52 208.87 229.71 208.81 231.32 208.78 232.14 207.56 232.14 207.59 231.25 207.64 229.67 207.71 227.44 207.73 227.02 207.75 226.26 208.98 226.3" style="fill:#4F46E5"></polygon><polygon points="208.98 226.3 208.95 227.12 208.94 227.52 208.87 229.71 208.81 231.32 208.78 232.14 207.56 232.14 207.59 231.25 207.64 229.67 207.71 227.44 207.73 227.02 207.75 226.26 208.98 226.3" style="fill:#fff;isolation:isolate;opacity:0.4"></polygon><path d="M206.49,227.37,231.23,229c.39-6.15.84-8,2.69-15.38.59-2.37,1.33-5,2.29-8.07.51-1.64,1.07-3.39,1.7-5.28.47-1.43,1-3,1.54-4.56a72.46,72.46,0,0,0-10.27-2.48,76.82,76.82,0,0,0-11.11-1.17c-4.82,0-10.35.5-10.35.5s-.79.19-1.29,5.29C206,202.65,205.5,209.93,206.49,227.37Z" style="fill:#263238"></path><path d="M206.49,227.37,231.23,229c.39-6.15.84-8,2.69-15.38.59-2.37,1.33-5,2.29-8.07.51-1.64,1.07-3.39,1.7-5.28.47-1.43,1-3,1.54-4.56a72.46,72.46,0,0,0-10.27-2.48,76.82,76.82,0,0,0-11.11-1.17c-4.82,0-10.35.5-10.35.5s-.79.19-1.29,5.29C206,202.65,205.5,209.93,206.49,227.37Z" style="fill:#fff;isolation:isolate;opacity:0.4"></path><path d="M220.11,197.52c6.1-.78,7.93-3.39,7.93-3.39-3.87-3.65-.65-10-.65-10L220,185.53a20.39,20.39,0,0,1,.29,3.09c.06,4.45-2,4.5-2,4.5C217.08,195.53,220.11,197.52,220.11,197.52Z" style="fill:#ebb376"></path><path d="M220,185.53a20.39,20.39,0,0,1,.29,3.09,8.18,8.18,0,0,0,7.06-4.47Z" style="isolation:isolate;opacity:0.2"></path><path d="M224.1,165c-6.38-.35-8.62,3-9.45,9.51-1,8.19.47,14.13,8.55,12.81C234.17,185.52,234.7,165.57,224.1,165Z" style="fill:#ebb376"></path><path d="M218.8,174.37a13.36,13.36,0,0,1-2,2.54,1.77,1.77,0,0,0,1.65.82Z" style="fill:#d58745"></path><path d="M222.73,174.06c0,.52.21,1,.56,1s.67-.38.71-.9-.21-1-.56-1S222.77,173.54,222.73,174.06Z" style="fill:#263238"></path><path d="M223.58,173.2l-1.1-.54S223,173.67,223.58,173.2Z" style="fill:#263238"></path><path d="M216.23,173.44c0,.53.21,1,.56,1s.66-.37.7-.9-.2-1-.55-1S216.27,172.92,216.23,173.44Z" style="fill:#263238"></path><path d="M217.08,172.58,216,172S216.47,173.05,217.08,172.58Z" style="fill:#263238"></path><path d="M225.75,171.14a.38.38,0,0,1-.29-.15,3,3,0,0,0-2.4-1,.36.36,0,0,1-.05-.72,3.65,3.65,0,0,1,3,1.26.38.38,0,0,1-.08.51A.44.44,0,0,1,225.75,171.14Z" style="fill:#2e353a"></path><path d="M215.84,169.88a.36.36,0,0,1-.31-.18.35.35,0,0,1,.13-.49,3.34,3.34,0,0,1,2.9-.41.38.38,0,0,1,.19.48.38.38,0,0,1-.48.19,2.62,2.62,0,0,0-2.25.36A.37.37,0,0,1,215.84,169.88Z" style="fill:#2e353a"></path><path d="M219.23,180.29a15.54,15.54,0,0,1,.62,2.26l.42,0c1.87-.08,2.7-.74,3.07-1.44a2.55,2.55,0,0,0,.24-1.12,2.52,2.52,0,0,0-.08-.65,8.72,8.72,0,0,1-3.63.93C219.48,180.29,219.23,180.29,219.23,180.29Z" style="fill:#263238"></path><path d="M219.87,180.25l.2.66c1.76-.08,3-.38,3.51-.94a2.52,2.52,0,0,0-.08-.65A8.72,8.72,0,0,1,219.87,180.25Z" style="fill:#fff"></path><path d="M220.27,182.53c1.87-.08,2.7-.74,3.07-1.44a6.08,6.08,0,0,0-2.06.5A2.27,2.27,0,0,0,220.27,182.53Z" style="fill:#de5753"></path><path d="M230.49,176.13s-2.7-5.41-2-9.43c0,0-12.37-5.86-13.7,7,0,0-.61-11.47,10.38-11.13s10.06,16.4,4.13,20.87C229.28,183.39,232.16,179.51,230.49,176.13Z" style="fill:#263238"></path><path d="M231.14,164.38s-5-4.45-9.54-3.61-3.76,6.83,2.22,9.1,7.22,5.2,7.22,5.2l5.19-4.65Z" style="fill:#263238"></path><path d="M232.23,175.41l-.49-.11s.19-1.49-3.75-2.87c-4.16-1.45-8.88-3.1-9.51-6.43a3.49,3.49,0,0,1,.41-2.83,2,2,0,0,1,1.35-.77l0,.5a1.48,1.48,0,0,0-1,.58,3,3,0,0,0-.31,2.43c.57,3.05,5.15,4.64,9.19,6.05C232.56,173.5,232.24,175.33,232.23,175.41Z" style="fill:#263238"></path><path d="M229.37,177.42a2.82,2.82,0,0,1,3.16-2.39c2,.32,2.69,4.44-2.29,5.14C229.53,180.27,229.17,179.56,229.37,177.42Z" style="fill:#ebb376"></path><path d="M233.7,194.81s-7.16,5.81-13.83,5.72-9-7.59-9-7.59A38,38,0,0,1,233.7,194.81Z" style="fill:#ebb376"></path><path d="M239.45,195.71l-.63,7.54-.18,2.16-.35,4.24-1.64,19.69-.24,2.8h-7.53q-.1-.81-.18-1.68h0c-.06-.53-.1-1.07-.14-1.63a.09.09,0,0,1,0,0l0-.51c-.32-4.49-.36-9.7-.27-14.72h0c0-2.18.1-4.33.17-6.36,0-.9.07-1.78.11-2.63s.06-1.43.09-2.1c0-.05,0-.1,0-.15h0c0-.13,0-.25,0-.38,0-.88.09-1.72.13-2.5,0-.47.06-.92.08-1.34a.53.53,0,0,1,0-.13c0-.31,0-.61,0-.89.12-2,.22-3.33.25-3.71a.87.87,0,0,0,0-.11,52.61,52.61,0,0,1,7.69,1.71l1.49.44.67.21.23.07.14,0Z" style="fill:#4F46E5"></path><path d="M230.28,202.91l1.87,2.87-3.9,7.75c.18-10.6.93-20.31.93-20.31l5.95,5.54Z" style="fill:#fff;isolation:isolate;opacity:0.4"></path><path d="M215.84,192h0l0,.07,0,.06c-.07.13-.19.35-.34.66l-.12.25c-.05.09-.09.19-.14.29l-.15.32c-.42.9-1,2.14-1.58,3.75s-1.43,3.9-2.2,6.48c-.32,1.07-.64,2.21-.95,3.43-.09.31-.17.63-.25.95-.18.73-.36,1.49-.54,2.27A132.67,132.67,0,0,0,206.88,227c0,.14,0,.29,0,.43-.07.74-.13,1.49-.19,2.25a.28.28,0,0,0,0,.09c0,.09,0,.18,0,.28,0,.39-.05.79-.08,1.19l-.06.95H205.4l-1.6-.74a211.23,211.23,0,0,1,.42-22.7h0c.23-2.85.56-5.63,1-8.16.17-.92.35-1.82.56-2.66a24.11,24.11,0,0,1,1.3-4.07,0,0,0,0,1,0,0,12.4,12.4,0,0,1,.6-1.21h0l.36,0,5.2-.36h0Z" style="fill:#4F46E5"></path><path d="M215.83,192c-.16.29-3.6,6.54-6.34,18.53l-1.23-7.72,2.59-2.28-2.59-4.94Z" style="fill:#fff;isolation:isolate;opacity:0.4"></path><path d="M249.47,219a2.3,2.3,0,0,1-3.47,1.14,8.79,8.79,0,0,1-3.06-2.85c-.62-.89-1.45-2.23-2.31-3.65-1.83-3.07-3.73-6.47-3.73-6.47l2.56-11.49C243.14,197.47,250.85,216.06,249.47,219Z" style="fill:#4F46E5"></path><path d="M246,220.17a8.79,8.79,0,0,1-3.06-2.85c-.62-.89-1.45-2.23-2.31-3.65a33.44,33.44,0,0,1,2.17-3.45l1.86,5.23s3.26.74,3.78,2.44C248.64,218.54,247.53,219.45,246,220.17Z" style="isolation:isolate;opacity:0.2"></path><path d="M245.89,205.23l-6.16,23.48a1.21,1.21,0,0,1-1.29.87l-16.35-2.18a.89.89,0,0,1-.76-1.14l6.16-23.48a1.21,1.21,0,0,1,1.29-.86l16.35,2.17A.89.89,0,0,1,245.89,205.23Z" style="fill:#263238"></path><path d="M245.89,205.23l-6.16,23.48a1.21,1.21,0,0,1-1.29.87l-15.6-2.08a.9.9,0,0,1-.77-1.14l6.17-23.48a1.19,1.19,0,0,1,1.28-.86l15.61,2.07A.89.89,0,0,1,245.89,205.23Z" style="fill:#fff;opacity:0.1"></path><path d="M234.54,214.19a1.71,1.71,0,0,0-1.84,1.23,1.28,1.28,0,0,0,1.09,1.63,1.72,1.72,0,0,0,1.85-1.24A1.27,1.27,0,0,1,234.54,214.19Z" style="fill:#fff;opacity:0.30000000000000004"></path><path d="M247.22,224.57c-1.1.58-3.59-.3-4.34-.6l-.24-.09s-1.35-4.43,2.18-6.82l.08-.05c1.13-.6,4.61.18,4.72,1.35C250,223.09,248.53,223.88,247.22,224.57Z" style="fill:#4F46E5"></path><path d="M245.07,220.79a5.72,5.72,0,0,1-2.19,3.18l-.24-.09s-1.35-4.43,2.18-6.82l.08-.05C245.21,217.41,245.69,218.46,245.07,220.79Z" style="isolation:isolate;opacity:0.2"></path><path d="M240,215.18s2.27-.1,3.31,0,.72,3.45.72,3.45l.9.48s.72,2-.83,3l-.81-.27a2.27,2.27,0,0,1-.86,1.19c-.65.39-3.81-.5-3.81-.5Z" style="fill:#ebb376"></path><rect x="134.97" y="116.05" width="2.04" height="2.72" transform="translate(271.98 234.82) rotate(180)" style="fill:#fff;isolation:isolate;opacity:0.6000000000000001"></rect><rect x="131.65" y="115.15" width="2.04" height="3.62" transform="translate(265.33 233.92) rotate(180)" style="fill:#fff;isolation:isolate;opacity:0.6000000000000001"></rect><rect x="128.32" y="114.24" width="2.04" height="4.53" transform="translate(258.69 233.01) rotate(180)" style="fill:#fff;isolation:isolate;opacity:0.6000000000000001"></rect><rect x="125" y="113.33" width="2.04" height="5.44" transform="translate(252.04 232.1) rotate(180)" style="fill:#fff;isolation:isolate;opacity:0.6000000000000001"></rect><rect x="243.2" y="115.06" width="1.21" height="2.72" style="fill:#fff;isolation:isolate;opacity:0.6000000000000001"></rect><rect x="245.23" y="114.07" width="9.63" height="4.7" transform="translate(500.1 232.84) rotate(180)" style="fill:#fff;isolation:isolate;opacity:0.6000000000000001"></rect><g style="isolation:isolate;opacity:0.1"><path d="M182.6,114.33,140.48,272.09h0l-.47,1.78h0l-.76,2.84h0l-.48,1.77-22,82.38v-99.7L158,106.83h1.34a2.75,2.75,0,0,1,2.52,1.76l1.63,4a2.74,2.74,0,0,0,2.52,1.74Z" style="fill:#fff"></path><polygon points="263.08 194.9 263.08 294.6 237.18 391.63 210.56 391.63 213.73 379.76 214.43 377.15 215.82 371.94 216.52 369.33 217.91 364.11 218.6 361.51 240.5 279.49 240.5 279.48 241.51 275.69 241.51 275.68 263.08 194.9" style="fill:#fff"></polygon><path d="M197,114.33,155.16,271.11l-.25.94-2.29,8.59-.25.93L123,391.63h-2.28a3.85,3.85,0,0,1-2.76-1.12,3.49,3.49,0,0,1-.49-.59l28.93-108.35.25-.93,2.29-8.59.25-.94L191,114.33Z" style="fill:#fff"></path></g></g><g id="freepik--Character--inject-16"><path d="M424.24,277.24H314.39a9.28,9.28,0,0,0-9,8L292.64,389.39H418.45l12.79-104.17A6.91,6.91,0,0,0,424.24,277.24Z" style="fill:#263238"></path><path d="M424.24,277.24H314.39a9.28,9.28,0,0,0-9,8L292.64,389.39H418.45l12.79-104.17A6.91,6.91,0,0,0,424.24,277.24Z" style="fill:#fff;isolation:isolate;opacity:0.6000000000000001"></path><path d="M394.12,389.39h24.33l12.79-104.17a6.91,6.91,0,0,0-7-8h-8.36a9.29,9.29,0,0,0-9,8Z" style="isolation:isolate;opacity:0.2"></path><polygon points="411.4 417.11 402.87 417.11 399.39 390.5 414.01 390.5 411.4 417.11" style="fill:#263238"></polygon><polygon points="373.97 417.11 365.45 417.11 361.97 390.5 376.58 390.5 373.97 417.11" style="fill:#263238"></polygon><polygon points="310.44 417.11 301.92 417.11 298.44 390.5 313.05 390.5 310.44 417.11" style="fill:#263238"></polygon><polygon points="273.02 417.11 264.49 417.11 261.01 390.5 275.63 390.5 273.02 417.11" style="fill:#263238"></polygon><polygon points="373.97 417.11 365.45 417.11 361.97 390.5 376.58 390.5 373.97 417.11" style="fill:#fff;isolation:isolate;opacity:0.2"></polygon><polygon points="273.02 417.11 264.49 417.11 261.01 390.5 275.63 390.5 273.02 417.11" style="fill:#fff;isolation:isolate;opacity:0.2"></polygon><path d="M417.66,388.81l-.77,9.8a1.37,1.37,0,0,1-1.37,1.26H260.16a1.37,1.37,0,0,1-1.37-1.26l-.77-9.8Z" style="fill:#263238"></path><path d="M380.66,388.81l-.77,9.8a1.37,1.37,0,0,1-1.37,1.26H260.16a1.37,1.37,0,0,1-1.37-1.26l-.77-9.8Z" style="fill:#fff;isolation:isolate;opacity:0.2"></path><path d="M360.16,366.21h-48l-3.49-39.94a15.32,15.32,0,0,0-15.26-14H242.29a6.44,6.44,0,0,0-6.41,7l.8,9.19a6.45,6.45,0,0,0,5.6,5.83l1.81.23a4.8,4.8,0,0,1,4.18,4.34l4.41,50.38a7.11,7.11,0,0,0,7.08,6.49h100.4Z" style="fill:#263238"></path><path d="M360.16,366.21h-48l-3.49-39.94a15.32,15.32,0,0,0-15.26-14H242.29a6.44,6.44,0,0,0-6.41,7l.8,9.19a6.45,6.45,0,0,0,5.6,5.83l1.81.23a4.8,4.8,0,0,1,4.18,4.34l4.41,50.38a7.11,7.11,0,0,0,7.08,6.49h100.4Z" style="fill:#fff;isolation:isolate;opacity:0.6000000000000001"></path><path d="M273.27,326.27a15.31,15.31,0,0,0-15.25-14h35.39a15.32,15.32,0,0,1,15.26,14l3.49,39.94H276.77Z" style="isolation:isolate;opacity:0.2"></path><path d="M360.16,366.21H276.77l-3.5-39.94a15.31,15.31,0,0,0-15.25-14H242.29a6.44,6.44,0,0,0-6.41,7l.8,9.19a6.45,6.45,0,0,0,5.6,5.83l1.81.23a4.8,4.8,0,0,1,4.18,4.34l4.41,50.38a7.11,7.11,0,0,0,7.08,6.49h100.4Z" style="fill:#fff;isolation:isolate;opacity:0.1"></path><path d="M351.88,286.5a46.47,46.47,0,0,1-10.42-4.57,11.68,11.68,0,0,1-2.54-2.13,5.07,5.07,0,0,1-.5-.67c3.57-12.46,7.18-17.92,14.74-18.49C358.93,268.06,351.88,286.5,351.88,286.5Z" style="fill:#263238"></path><path d="M341.46,281.93a11.68,11.68,0,0,1-2.54-2.13,18.89,18.89,0,0,1,2.31-3.67A7.7,7.7,0,0,1,341.46,281.93Z" style="opacity:0.2"></path><polygon points="212.62 412.31 207.19 405.33 223.69 392.88 229.12 399.85 212.62 412.31" style="fill:#ffc3bd"></polygon><polygon points="229.12 399.85 223.68 392.88 215.18 399.3 220.62 406.28 229.12 399.85" style="opacity:0.2"></polygon><path d="M210.35,402.64l8.25,5.62a.7.7,0,0,1,.24.9l-3.51,7.16a1.43,1.43,0,0,1-2.07.51c-2.84-2-4.11-3.13-7.73-5.6-2.23-1.52-7.39-4.56-10.47-6.66s-1.17-5.26.3-4.66c6.59,2.69,10.41,2.65,13.45,2.34A2.37,2.37,0,0,1,210.35,402.64Z" style="fill:#263238"></path><path d="M205.83,400.51a1,1,0,0,0,0,.35c.26,1.08,2.14,1.95,3.23,2.37a.17.17,0,0,0,.19,0,.19.19,0,0,0,0-.19c-.14-.33-1.38-3.28-2.48-3.47a.69.69,0,0,0-.65.24A1.38,1.38,0,0,0,205.83,400.51Zm3,2.24c-1.51-.63-2.48-1.36-2.63-2a.82.82,0,0,1,.25-.77.32.32,0,0,1,.33-.13C207.45,400,208.37,401.73,208.83,402.75Z" style="fill:#4F46E5"></path><path d="M208.61,400.33a6.16,6.16,0,0,0,.39,2.81.16.16,0,0,0,.14.1.17.17,0,0,0,.16-.07c.06-.09,1.49-2.2,1.17-3.44a1.06,1.06,0,0,0-.56-.71.7.7,0,0,0-.87.08A2,2,0,0,0,208.61,400.33Zm.58,2.35c-.32-1-.4-2.85.09-3.33.08-.08.21-.15.47,0a.72.72,0,0,1,.38.49C210.35,400.66,209.56,402.08,209.19,402.68Z" style="fill:#4F46E5"></path><path d="M355.55,268.45l.13.54.09.42.15.79c.09.52.16,1,.22,1.53.11,1,.17,2,.19,3a33.32,33.32,0,0,1-.45,6,31.5,31.5,0,0,1-4.2,11.29,33.07,33.07,0,0,1-3.62,4.81c-.67.74-1.39,1.42-2.1,2.09l-1.11,1c-.4.32-.83.62-1.27.92a15.32,15.32,0,0,1-6.52,2.49,9.47,9.47,0,0,1-4.09-.4,8.18,8.18,0,0,1-1.91-1,7.58,7.58,0,0,1-.84-.68l-.39-.4-.48-.57a2.76,2.76,0,0,1,4-3.8c-.09-.12,0-.09,0-.12l0,0,.12,0,.27-.07a2.41,2.41,0,0,0,.49-.21,6.94,6.94,0,0,0,.92-.61,17.18,17.18,0,0,0,2.32-2.23l.64-.73.73-.76c.47-.53.93-1.05,1.34-1.6a23.23,23.23,0,0,0,2.22-3.42,23.79,23.79,0,0,0,2.46-7.66,26.38,26.38,0,0,0,.25-4.08c0-.68,0-1.36-.11-2l-.1-1-.11-.73-.1-.65a5.54,5.54,0,0,1,10.87-2.1Z" style="fill:#ce7a63"></path><path d="M341.71,273.19A110.73,110.73,0,0,0,339.3,288c-.86,7.24-1.48,14.41-2.31,26.38l36.25,5.74c.89-10.33,3.92-21.78,14.07-43.73a8.56,8.56,0,0,0-5.49-12.13c-1.42-.37-2.92-.74-4.47-1.06a115.51,115.51,0,0,0-16.46-2.6c-1.82-.13-3.71-.19-5.52-.23C348.83,260.22,342.91,266.84,341.71,273.19Z" style="fill:#263238"></path><path d="M375,244.49c-1.45,5.36-3.24,15.19.24,18.77,0,0-5.08-.77-15.87,5.89-3.12-4.48-.8-5.91-.8-5.91,6.09-1.42,6.27-5.86,5.54-10Z" style="fill:#ce7a63"></path><path d="M370.57,248.05l-6.44,5.16a17.66,17.66,0,0,1,.29,3c2.31-.33,5.64-2.83,6.06-5.22A7.86,7.86,0,0,0,370.57,248.05Z" style="opacity:0.2"></path><path d="M357.22,239.24c.11,2.75-1.55,5-3.69,5.13s-4-2.08-4.09-4.83,1.55-5,3.7-5.13S357.12,236.49,357.22,239.24Z" style="fill:#4F46E5"></path><path d="M360,239.29c.13,3.52-2,6.45-4.72,6.56s-5.08-2.66-5.21-6.17,2-6.45,4.72-6.56S359.81,235.78,360,239.29Z" style="fill:#263238"></path><path d="M360,239.29c.13,3.52-2,6.45-4.72,6.56s-5.08-2.66-5.21-6.17,2-6.45,4.72-6.56S359.81,235.78,360,239.29Z" style="isolation:isolate;opacity:0.2"></path><path d="M375.12,222.89s2.67-7.35,8.66-5.9,7.43,7,5.43,13.63.69,8,.69,8-7,1.15-7.61-6.87-4.74-5.52-4.74-5.52Z" style="fill:#263238"></path><path d="M374.76,231.35c.84,8.78,1.37,12.46-2.22,17.82-5.41,8.07-16.14,7.72-19.52-.49-3-7.39-3.91-20.49,3.87-25.71A11.28,11.28,0,0,1,374.76,231.35Z" style="fill:#ce7a63"></path><path d="M364.53,235.81c.1.73-.19,1.4-.65,1.5s-.91-.42-1-1.15.18-1.41.64-1.5S364.43,235.07,364.53,235.81Z" style="fill:#263238"></path><path d="M355.51,237.42c.1.73-.19,1.4-.65,1.5s-.91-.42-1-1.15.19-1.41.65-1.5S355.41,236.68,355.51,237.42Z" style="fill:#263238"></path><path d="M354.7,236.26l-1.76-.15S354,237.31,354.7,236.26Z" style="fill:#263238"></path><path d="M358.47,238.45a21.45,21.45,0,0,1-1.86,5.21,2.93,2.93,0,0,0,2.58,0Z" style="fill:#ba4d3c"></path><path d="M363.62,245.48a6.42,6.42,0,0,1-1.17.35.19.19,0,0,1-.23-.17.23.23,0,0,1,.17-.26,6.12,6.12,0,0,0,4.23-3.22.22.22,0,0,1,.28-.13.22.22,0,0,1,.1.29A6.45,6.45,0,0,1,363.62,245.48Z" style="fill:#263238"></path><path d="M365.22,230.93a.35.35,0,0,1-.33,0,3.15,3.15,0,0,0-3-.25.4.4,0,0,1-.55-.2.47.47,0,0,1,.21-.59,4,4,0,0,1,3.79.28.44.44,0,0,1,.12.6A.44.44,0,0,1,365.22,230.93Z" style="fill:#263238"></path><path d="M351.16,233.37a.41.41,0,0,1-.31,0,.44.44,0,0,1-.22-.57,4.55,4.55,0,0,1,2.88-2.79.41.41,0,0,1,.49.33.47.47,0,0,1-.34.53,3.64,3.64,0,0,0-2.26,2.23A.47.47,0,0,1,351.16,233.37Z" style="fill:#263238"></path><path d="M363.72,234.65,362,234.5S363,235.69,363.72,234.65Z" style="fill:#263238"></path><path d="M365.65,224.62a12.8,12.8,0,0,0,6.78,8.77l1.11,6.62,1.36,4.05s6.87-1.46,5.69-13c-.8-7.76-4.45-10-7-10.67a10,10,0,0,1-3.88-1.87c-1.66-1.35-5-2.67-11.16-.35-9.09,3.43-6.47,11.07-6.47,11.07a12.29,12.29,0,0,1,4.34-4.2C358.92,223.76,363.3,223.09,365.65,224.62Z" style="fill:#263238"></path><path d="M378.69,237.89a7.07,7.07,0,0,1-3.57,4.05c-2.18,1-3.57-1.07-3.22-3.5.31-2.19,1.82-5.35,4.12-5.32S379.48,235.65,378.69,237.89Z" style="fill:#ce7a63"></path><path d="M379.19,238.29c.13,3.51-2,6.45-4.72,6.55s-5.08-2.65-5.21-6.17,2-6.44,4.72-6.55S379.05,234.78,379.19,238.29Z" style="fill:#263238"></path><path d="M379.19,238.29c.13,3.51-2,6.45-4.72,6.55s-5.08-2.65-5.21-6.17,2-6.44,4.72-6.55S379.05,234.78,379.19,238.29Z" style="isolation:isolate;opacity:0.2"></path><path d="M374.89,234.23s.07-11.86-4-14.93l3.13,1.31a23.51,23.51,0,0,1,2.89,14Z" style="fill:#4F46E5"></path><path d="M374.89,234.23s.07-11.86-4-14.93l3.13,1.31a23.51,23.51,0,0,1,2.89,14Z" style="isolation:isolate;opacity:0.2"></path><path d="M379.53,238.55c.11,2.75-1.54,5-3.69,5.13s-4-2.08-4.09-4.83,1.55-5,3.7-5.13S379.43,235.8,379.53,238.55Z" style="fill:#4F46E5"></path><path d="M324.8,294.23l.38,2.36a2.79,2.79,0,0,0,1.5,2.06l3.77,1.87a5.19,5.19,0,0,0,4.76-.07l.92-.49c-.35-4-3.66-8-3.66-8l-.81-1.25a2.31,2.31,0,0,0-3.21-.76l-2.5,1.58A2.68,2.68,0,0,0,324.8,294.23Z" style="fill:#ce7a63"></path><path d="M368.85,362c-14,9.39-45.58,3.56-74.22-2.54a72,72,0,0,1-12.93,13.42C268,384.15,250,393.18,238.21,398.44c-7.36,3.3-12.32,5.12-12.32,5.12l-7.64-9.47s16.5-12.84,34.74-26.84c12.4-9.53,25.6-19.61,34.94-26.55a5.46,5.46,0,0,1,1.7-.82h.05a12.42,12.42,0,0,1,2.77-.39l2-.13,1.59-.1c9.88-.66,31.48-1.81,31.48-1.81l10.08-23.35,36.62,2.31S381,353.86,368.85,362Z" style="fill:#4F46E5"></path><polygon points="214.81 394.79 224.48 406.72 229.76 403.55 219.23 390.87 214.81 394.79" style="fill:#263238"></polygon><path d="M299.63,339.41a363.92,363.92,0,0,1-17.93,33.42C268,384.15,250,393.18,238.21,398.44A118.9,118.9,0,0,1,253,367.25c1.8-2.69,3.78-5.41,6-8.11,10.69-13.28,22.54-17.81,30.68-19.26h.05c1-.18,1.9-.3,2.77-.39,1.35-.15,2.55-.21,3.56-.23A24.12,24.12,0,0,1,299.63,339.41Z" style="opacity:0.2"></path><polygon points="246.98 407.36 238.86 403.86 247.34 385.01 255.46 388.5 246.98 407.36" style="fill:#ffc3bd"></polygon><polygon points="255.46 388.51 247.33 385.01 242.97 394.73 251.09 398.23 255.46 388.51" style="opacity:0.2"></polygon><path d="M240.34,400l9.93,1a.71.71,0,0,1,.65.67l.37,8a1.44,1.44,0,0,1-1.57,1.44c-3.46-.4-5.11-.76-9.48-1.19-2.69-.26-8.67-.44-12.38-.8s-3.55-4-2-4.23c7.08-.82,10.4-2.69,12.93-4.42A2.33,2.33,0,0,1,240.34,400Z" style="fill:#263238"></path><path d="M235.36,400.29a1,1,0,0,0,.19.29c.74.83,2.81.68,4,.52a.19.19,0,0,0,.15-.12.22.22,0,0,0-.06-.19c-.29-.22-2.79-2.21-3.84-1.85a.68.68,0,0,0-.45.53A1.2,1.2,0,0,0,235.36,400.29Zm3.69.52c-1.62.17-2.82,0-3.24-.46a.8.8,0,0,1-.15-.8.32.32,0,0,1,.22-.28C236.53,399.05,238.17,400.14,239.05,400.81Z" style="fill:#4F46E5"></path><path d="M237.7,398.8a6.32,6.32,0,0,0,1.7,2.27.17.17,0,0,0,.17,0,.18.18,0,0,0,.1-.14c0-.11.25-2.64-.62-3.57a1.05,1.05,0,0,0-.84-.36.69.69,0,0,0-.72.49A2,2,0,0,0,237.7,398.8Zm1.64,1.78c-.75-.72-1.72-2.31-1.52-3,0-.11.11-.23.4-.24a.7.7,0,0,1,.57.24C239.38,398.25,239.38,399.87,239.34,400.58Z" style="fill:#4F46E5"></path><path d="M368.85,362c-14,9.39-45.58,3.56-74.22-2.54a72,72,0,0,1-12.93,13.42C268,384.15,250,393.18,238.21,398.44c-7.36,3.3-12.32,5.12-12.32,5.12l-7.64-9.47s16.5-12.84,34.74-26.84c12.4-9.53,25.6-19.61,34.94-26.55a5.46,5.46,0,0,1,1.7-.82h.05a12.42,12.42,0,0,1,2.77-.39l2-.13,1.59-.1c9.88-.66,31.48-1.81,31.48-1.81l10.08-23.35,36.62,2.31S381,353.86,368.85,362Z" style="opacity:0.30000000000000004"></path><path d="M370.73,327.82s-54.76-9.5-75.35-8.63c-20.13.85-52.3,70.05-52.3,70.05l11.6,5c24.46-23.92,38.62-41.48,44.95-54.8,47.14,21.54,64.88,21.36,64.88,21.36Z" style="fill:#4F46E5"></path><path d="M370.73,327.82s-54.76-9.5-75.35-8.63c-20.13.85-52.3,70.05-52.3,70.05l11.6,5c24.46-23.92,38.62-41.48,44.95-54.8,47.14,21.54,64.88,21.36,64.88,21.36Z" style="opacity:0.30000000000000004"></path><polygon points="240.47 390.95 254.69 396.77 257.79 391.44 242.46 385.39 240.47 390.95" style="fill:#263238"></polygon><path d="M299.63,339.41s1.85-4.4,5-4.91S334,336.18,334,336.18Z" style="opacity:0.2"></path><path d="M340.9,299l-4-18.72a1.93,1.93,0,0,0-1.79-1.47h-9.54a1.15,1.15,0,0,0-1.16,1.47l4,18.72a1.94,1.94,0,0,0,1.8,1.48h9.54A1.16,1.16,0,0,0,340.9,299Z" style="fill:#4F46E5"></path><path d="M338.85,300.45H330.2a1.94,1.94,0,0,1-1.8-1.48l-4-18.72a1.15,1.15,0,0,1,1.16-1.47h8.65a1.93,1.93,0,0,1,1.79,1.47L340,299A1.16,1.16,0,0,1,338.85,300.45Z" style="opacity:0.2"></path><path d="M336.87,289.42l2.67-.59a3.15,3.15,0,0,1,2.82.74l3.58,3.22a5.93,5.93,0,0,1,1.93,5.1l-.14,1.18c-4.36,1.29-10-.54-10-.54l-1.67-.34a2.65,2.65,0,0,1-2.16-3.09l.63-3.33A3.06,3.06,0,0,1,336.87,289.42Z" style="fill:#ce7a63"></path><path d="M363.3,283l2.2-2a.51.51,0,0,1,.83.22l.82,2.67a.5.5,0,0,1-.59.64l-3-.62A.5.5,0,0,1,363.3,283Z" style="fill:#fff;isolation:isolate;opacity:0.6000000000000001"></path><path d="M373.57,283.45s-3.95,8.65,0,11.62S380.74,284.35,373.57,283.45Z" style="opacity:0.2"></path><path d="M387.86,282.91c-.33,1.42-.64,2.61-1,3.88s-.77,2.48-1.18,3.71q-1.27,3.67-2.88,7.25a74.1,74.1,0,0,1-3.63,7,55.8,55.8,0,0,1-4.62,6.69l-.13.16a4.27,4.27,0,0,1-.59.61,8.39,8.39,0,0,1-4.31,1.85,10.83,10.83,0,0,1-3.38-.11,20.28,20.28,0,0,1-4.78-1.59A46.6,46.6,0,0,1,354,308c-2.22-1.6-4.32-3.29-6.34-5.06s-3.94-3.57-5.81-5.56a2.76,2.76,0,0,1,.11-3.92,2.79,2.79,0,0,1,3.38-.33l.06,0c2.12,1.34,4.3,2.74,6.48,4s4.35,2.57,6.54,3.7a45.27,45.27,0,0,0,6.43,2.88,10.5,10.5,0,0,0,2.67.61c.33,0,.55,0,.51-.06a1.34,1.34,0,0,0-.78.33l-.73.78a60.77,60.77,0,0,0,3.33-5.75c1-2,1.94-4.11,2.8-6.25s1.66-4.32,2.39-6.53c.38-1.1.74-2.21,1.07-3.32s.68-2.27.95-3.23l0-.17a5.56,5.56,0,0,1,10.77,2.75Z" style="fill:#ce7a63"></path><path d="M384.62,265.52c6.19,4.38,6.48,10.92,3.14,23.44-4.47,2.24-15.33-.59-15.33-.59S375.85,268.93,384.62,265.52Z" style="fill:#263238"></path><path d="M436.2,312.29H379.82a15.32,15.32,0,0,0-15.26,14l-3.49,39.94h-4v29.54h61.67a7.12,7.12,0,0,0,7.09-6.49l4.4-50.38a4.8,4.8,0,0,1,4.18-4.34l1.81-.23a6.46,6.46,0,0,0,5.61-5.83l.8-9.19A6.44,6.44,0,0,0,436.2,312.29Z" style="fill:#263238"></path><path d="M436.2,312.29H379.82a15.32,15.32,0,0,0-15.26,14l-3.49,39.94h-4v29.54h61.67a7.12,7.12,0,0,0,7.09-6.49l4.4-50.38a4.8,4.8,0,0,1,4.18-4.34l1.81-.23a6.46,6.46,0,0,0,5.61-5.83l.8-9.19A6.44,6.44,0,0,0,436.2,312.29Z" style="fill:#fff;isolation:isolate;opacity:0.6000000000000001"></path><g style="isolation:isolate;opacity:0.2"><path d="M385.16,389.26l4.41-50.38a4.78,4.78,0,0,1,4.17-4.34l1.82-.23a6.46,6.46,0,0,0,5.6-5.83l.8-9.19a6.44,6.44,0,0,0-6.42-7H436.2a6.44,6.44,0,0,1,6.42,7l-.8,9.19a6.46,6.46,0,0,1-5.61,5.83l-1.81.23a4.8,4.8,0,0,0-4.18,4.34l-4.4,50.38a7.12,7.12,0,0,1-7.09,6.49H378.08A7.11,7.11,0,0,0,385.16,389.26Z"></path></g><path d="M395.54,312.29H379.82a15.32,15.32,0,0,0-15.26,14l-3.49,39.94h-4v29.54h21a7.11,7.11,0,0,0,7.08-6.49l4.41-50.38a4.78,4.78,0,0,1,4.17-4.34l1.82-.23a6.46,6.46,0,0,0,5.6-5.83l.8-9.19A6.44,6.44,0,0,0,395.54,312.29Z" style="fill:#fff;isolation:isolate;opacity:0.1"></path></g></svg>