<svg xmlns="http://www.w3.org/2000/svg" viewBox="0 0 500 500"><g id="freepik--Shadow--inject-55"><ellipse cx="250" cy="420" rx="212.19" ry="40.34" style="fill:#ebebeb"></ellipse></g><g id="freepik--Plant--inject-55"><path d="M111.35,236.82c-3.8-3.72-8.71-8.22-14.52-6.61-5.46,1.51-7.55,7.47-8.53,12.44C87,249.05,86.06,255.52,85,262s-2,13-2.93,19.55q-.8,5.52-1.57,11.05c-.25,1.84-.51,3.68-.76,5.52s-.56,3.62-.66,5.44c0,.58.88.66,1,.11.71-3.07,1-6.27,1.45-9.39s.9-6.27,1.36-9.4c.91-6.23,1.86-12.45,2.79-18.68s1.91-12.45,2.91-18.66c.84-5.28,1.24-11.83,5.91-15.31a9.07,9.07,0,0,1,8.75-.82c3.07,1.18,5.53,3.38,7.94,5.56C111.31,237,111.42,236.89,111.35,236.82Z" style="fill:#263238"></path><path d="M106.15,233s-7.77-2.79-11.6,2.87.75,20.08,36.1,28.21a99.72,99.72,0,0,0-8.5-32C114.57,215.62,101.06,221.88,106.15,233Z" style="fill:#4F46E5"></path><path d="M128.62,261.74a27.27,27.27,0,0,0-1.78-2.86c-.59-.92-1.19-1.82-1.79-2.73l-1.38-2c0-.16,0-.33.06-.5l.12-.92c.09-.67.19-1.33.28-2s.21-1.32.34-2a10.28,10.28,0,0,1,.46-2.08.08.08,0,1,0-.16,0,7.75,7.75,0,0,1-.31,1.17l-.24.9c-.17.67-.33,1.34-.48,2s-.26,1.24-.37,1.87c-.05.31-.09.61-.13.91-.63-.9-1.28-1.79-1.94-2.66-1.88-2.48-3.86-4.85-5.92-7.18,0,0,0,0,0-.06.19-3.71.1-7.39.92-11,0-.09-.13-.15-.15-.05a38.16,38.16,0,0,0-1.32,10.57c-.74-.83-1.48-1.64-2.23-2.45-1.73-1.85-3.48-3.68-5.27-5.46-.07-.07-.19,0-.12.11,3,3.21,5.81,6.54,8.57,9.95a60.73,60.73,0,0,0-6.47.23c-2.39.18-4.78.49-7.16.82-.1,0-.07.17,0,.15a68.11,68.11,0,0,1,7.14-.64c2.31-.09,4.6,0,6.91,0q2.24,2.76,4.41,5.58h-.33c-.54,0-1.08,0-1.62,0-1.08,0-2.15.09-3.22.19a47.83,47.83,0,0,0-6.53,1,.08.08,0,0,0,0,.16c2.17-.25,4.35-.45,6.53-.53,1,0,2.09,0,3.13,0,.54,0,1.08,0,1.63,0a2,2,0,0,0,.89-.08q1.43,1.84,2.84,3.71c.75,1,1.49,2,2.22,3s1.41,2.14,2.24,3.11C128.55,261.91,128.66,261.82,128.62,261.74Z" style="fill:#263238"></path><path d="M109.53,241.05a23.88,23.88,0,0,0-3.78-.18c-1.26,0-2.53,0-3.79.08a.08.08,0,1,0,0,.15c1.28-.09,2.56-.11,3.84-.09s2.48.14,3.71.1C109.56,241.11,109.57,241.06,109.53,241.05Z" style="fill:#263238"></path><path d="M120.62,243.9c.15-1.21.3-2.42.56-3.61a.08.08,0,1,0-.16,0c-.18,1.19-.41,2.37-.59,3.55l-.24,1.79a8.76,8.76,0,0,0-.14,1.69c0,.1.18.11.21,0a10.4,10.4,0,0,0,.18-1.68C120.49,245.05,120.56,244.47,120.62,243.9Z" style="fill:#263238"></path><path d="M118.3,230.52c-.31,1.18-.62,2.37-.83,3.56-.11.61-.21,1.22-.29,1.83a7.67,7.67,0,0,0-.12,1.79s.08.05.09,0a8.87,8.87,0,0,0,.28-1.7c.08-.59.17-1.17.27-1.76.22-1.23.44-2.45.75-3.66C118.47,230.48,118.32,230.42,118.3,230.52Z" style="fill:#263238"></path><path d="M72.26,302.22c-.19-2.22-.41-4.45-.64-6.67q-.7-6.6-1.59-13.19c-.59-4.37-1.16-8.76-1.86-13.12a31.85,31.85,0,0,0-1.35-5.95,5.65,5.65,0,0,0-3.3-3.73c-4.16-1.43-7,2.88-8.64,5.93-.05.09.08.16.14.08,1-1.45,3.78-5.5,6.94-5.32,2.12.13,3.82,1.63,4.84,6.93,2.54,13.19,4.83,40,5.09,41.71.15.93.8.89.81-.11C72.71,306.59,72.45,304.4,72.26,302.22Z" style="fill:#263238"></path><path d="M56,263.85s3.63-12.84-4.4-6.42c-13.38,10.69-13.85,33.93-13.85,33.93s23.78-13.81,26.73-22.93C68.89,254.86,56,263.85,56,263.85Z" style="fill:#4F46E5"></path><path d="M60.5,270.15c-1.87.38-3.76.63-5.64.9l-2.68.37c-.6.09-1.21.15-1.82.22,1.77-2.44,3.56-4.87,5.26-7.36a.1.1,0,0,0-.16-.12,54.44,54.44,0,0,0-4,4.59c-.35-1-.71-2-1.06-3-.4-1.15-.84-2.29-1.13-3.48,0-.1-.18-.05-.15,0,.32,1.17.55,2.37.87,3.55s.65,2.27,1,3.38c-.87,1.13-1.71,2.29-2.52,3.46-.41-1.16-.92-2.29-1.27-3.46,0-.1-.19-.06-.16,0,.43,1.31.66,2.66,1.06,4-.55.8-1.09,1.6-1.61,2.4-1,1.48-1.87,3-2.76,4.52a.36.36,0,0,0-.2.36c-1.51,2.59-2.93,5.23-4.35,7.89,0,.09.1.17.14.08,1.42-2.63,3-5.19,4.62-7.7h0a3.09,3.09,0,0,1,.77-.15l.83-.18c.61-.13,1.22-.29,1.83-.45,1.21-.29,2.4-.58,3.63-.79.1,0,0-.17-.05-.15-1.44.27-2.88.43-4.34.6-.69.08-1.37.17-2.05.28h-.1q1.27-2,2.6-3.86c.86-1.25,1.75-2.49,2.64-3.73.83-.11,1.64-.33,2.46-.49l2.76-.53c1.84-.37,3.68-.78,5.53-1.09C60.65,270.29,60.6,270.13,60.5,270.15Z" style="fill:#263238"></path><path d="M46.21,271.42c-.11-.34-.21-.68-.32-1a20.1,20.1,0,0,1-.55-2.16c0-.1-.17-.05-.15.05.15.72.32,1.45.49,2.17a13,13,0,0,0,.62,2.13.15.15,0,0,0,.28-.08C46.47,272.14,46.33,271.78,46.21,271.42Z" style="fill:#263238"></path><path d="M62.93,267.18c-1.08.16-2.17.24-3.27.33s-2.18.25-3.26.42c-.06,0-.07.1,0,.09,1.09-.07,2.18-.16,3.27-.3s2.17-.31,3.27-.38C63,267.33,63,267.16,62.93,267.18Z" style="fill:#263238"></path><path d="M89.77,286c-.43-9.45-1-18.89-2-28.3-.47-4.69-1-9.38-1.66-14A99.93,99.93,0,0,0,83.42,230a26.09,26.09,0,0,0-4.52-9.58,10.27,10.27,0,0,0-9.14-4c-4.14.51-7.47,3.12-10.35,5.95-3.23,3.18-6.19,6.65-9.18,10-.76.86-1.51,1.73-2.26,2.6-.06.08.05.19.12.11,2.93-3.36,6-6.63,9.15-9.75,2.94-2.89,6-6,10-7.24a10.45,10.45,0,0,1,5.84-.14,9.27,9.27,0,0,1,4,2.53c2.3,2.38,3.58,5.61,4.5,8.74,2.54,8.69,3.45,17.8,4.39,26.77s1.61,18.25,2.07,27.41.82,18.41,1.7,27.59c.11,1.13.26,2.26.4,3.38.1.76,1.28.76,1.22,0C90.63,305,90.19,295.47,89.77,286Z" style="fill:#263238"></path><path d="M58.89,223.44s5.4-10-1-13.19S30.19,230.87,24,265.71c0,0,34.47-15.25,46.18-30.45S68.57,216.72,58.89,223.44Z" style="fill:#4F46E5"></path><path d="M64,231.57c-3.87,0-7.74-.3-11.61-.27l2.18-2.49a37.49,37.49,0,0,0,3-3.52c0-.08-.06-.19-.14-.13a26.24,26.24,0,0,0-2.93,2.94c-1,1-1.94,2.06-2.9,3.1-1.48,1.6-2.93,3.23-4.38,4.87,0-.16,0-.32,0-.47,0-.68,0-1.36,0-2,0-1.31,0-2.63,0-3.94,0-2.67,0-5.34.2-8,0-.1-.15-.1-.16,0-.18,2.67-.46,5.34-.59,8-.06,1.32-.1,2.63-.11,4,0,.67,0,1.35,0,2,0,.37,0,.76,0,1.14-.22.26-.46.51-.68.76-3.1,3.54-6,7.19-8.9,10.91,0-.21,0-.42,0-.62,0-.41-.09-.82-.13-1.23-.1-.89-.23-1.77-.36-2.66s-.25-1.66-.39-2.49-.39-1.87-.46-2.81a.08.08,0,1,0-.16,0,24.7,24.7,0,0,1,.33,2.84c.08.85.16,1.7.23,2.56s.16,1.7.25,2.56l.12,1.23c0,.2,0,.41.07.61a1.17,1.17,0,0,0,.17.49c-.49.64-1,1.28-1.47,1.92-2,2.59-3.88,5.21-5.8,7.82-.06.08.06.19.12.11,1.82-2.37,3.69-4.7,5.58-7,1.42.06,2.87-.05,4.29-.07s3,0,4.48,0a.08.08,0,0,0,0-.16c-1.5,0-3,.05-4.49.06s-2.75-.07-4.11,0c1.66-2,3.35-4,5-6l1.85-2.19a8.33,8.33,0,0,0,1.73,0h2c1.27,0,2.54,0,3.82,0,2.63,0,5.26-.13,7.89-.14.1,0,.1-.15,0-.16-2.64,0-5.27-.14-7.91-.21-1.27,0-2.54-.07-3.82-.09l-2,0c-.39,0-.78,0-1.18,0L47,237.54a.24.24,0,0,0,.08-.09c1.41-1.67,2.82-3.33,4.25-5l.59-.67c4,.12,8-.14,12-.06C64.07,231.73,64.06,231.57,64,231.57Z" style="fill:#263238"></path><path d="M62,238.42H61a.07.07,0,0,0,0,.14H62A.08.08,0,0,0,62,238.42Z" style="fill:#263238"></path><path d="M59.89,238.43c-1.24,0-2.48,0-3.72-.08l-1.86-.06a7.14,7.14,0,0,0-1.73,0,.06.06,0,0,0,0,.12,6.7,6.7,0,0,0,1.73.12l1.87,0H59.9C60,238.59,60,238.43,59.89,238.43Z" style="fill:#263238"></path><path d="M49.06,250.06a51.51,51.51,0,0,0-7.63-.68s0,.05,0,.05c2.54.24,5.07.38,7.59.79C49.12,250.24,49.16,250.08,49.06,250.06Z" style="fill:#263238"></path><path d="M38.69,239c0-.22,0-.44-.08-.66-.06-.5-.14-1-.22-1.49-.15-.95-.31-1.9-.49-2.84,0-.08-.17-.06-.16,0,.12,1,.22,2,.32,2.92l.12,1.44a4.13,4.13,0,0,0,.19,1.37.19.19,0,0,0,.34-.05A1.94,1.94,0,0,0,38.69,239Z" style="fill:#263238"></path><path d="M89.43,210.62c-1.24-2.3-2.81-5.33-5.89-5.14-2.54.16-3.69,2.75-4.23,4.9-1.68,6.63-1.8,13.63-2.13,20.43-.69,14.37-1.31,28.75-1.4,43.14q0,6,0,12c0,4.07,0,8.16.28,12.22a.3.3,0,0,0,.6,0c0-3.48-.1-7-.11-10.44s0-6.79.06-10.19q.17-10.32.55-20.62c.26-6.83.56-13.66.85-20.49.14-3.41.28-6.83.44-10.24s.29-6.62.67-9.91c.21-1.84.48-3.68.87-5.49a7.61,7.61,0,0,1,1.59-3.69,3.47,3.47,0,0,1,4.49-.33,9.57,9.57,0,0,1,3.19,4C89.34,210.79,89.47,210.71,89.43,210.62Z" style="fill:#263238"></path><path d="M88.59,209.52s-2.53-8.94,3.07-4.47c9.32,7.44,9.65,23.63,9.65,23.63s-16.57-9.62-18.63-16C79.61,203.26,88.59,209.52,88.59,209.52Z" style="fill:#4F46E5"></path><path d="M97.82,222l-.47-.73a4.82,4.82,0,0,0,0-.76v-1.16c0-.75.05-1.51.09-2.26a.08.08,0,0,0-.16,0c0,.74-.07,1.48-.09,2.23,0,.37,0,.74,0,1.11,0,.14,0,.31,0,.48q-1-1.51-2-3l-.62-.84a17.8,17.8,0,0,1,0-2.92c0-1,0-2.08.07-3.12,0-.1-.16-.1-.16,0,0,1.08-.08,2.16-.14,3.24a19.74,19.74,0,0,0-.06,2.31c-1.6-2.18-3.3-4.27-5-6.36-.06-.07-.18,0-.12.1,1.06,1.35,2.08,2.73,3.08,4.13-2-.46-3.93-.72-5.91-1-.1,0-.14.14,0,.16,2.1.32,4.16.84,6.23,1.3h0c.79,1.12,1.57,2.24,2.35,3.37l.94,1.38h-.09l-.64-.09q-.69-.08-1.38-.12c-1-.08-1.91-.13-2.87-.18-.1,0-.1.16,0,.16.94,0,1.88.09,2.81.19l1.48.18.65.08.19,0,1.59,2.34c.94,1.39,1.77,2.87,2.77,4.2a.08.08,0,0,0,.13-.08A43.14,43.14,0,0,0,97.82,222Z" style="fill:#263238"></path><path d="M93.7,211.94v-1a16,16,0,0,1,.09-2.19.08.08,0,1,0-.16,0c0,.73-.08,1.45-.11,2.17,0,.36,0,.73,0,1.09v.5a1.51,1.51,0,0,0,0,.52.07.07,0,0,0,.14,0,1.55,1.55,0,0,0,0-.48Z" style="fill:#263238"></path><path d="M91.65,215.65c-.62-.11-1.25-.14-1.87-.19s-1.37-.12-2-.21a.08.08,0,1,0,0,.16c1.3.08,2.61.32,3.92.36C91.71,215.78,91.72,215.66,91.65,215.65Z" style="fill:#263238"></path><path d="M96.85,215.7c.05.07,0,.27,0,.35V217c0,.21,0,.42,0,.63a1.4,1.4,0,0,0,0,.54s0,0,.06,0a.46.46,0,0,0,0-.26V217c0-.21,0-.42,0-.63V216c0-.08,0-.27,0-.34S96.75,215.55,96.85,215.7Z" style="fill:#263238"></path><path d="M89.81,258.33c-3.48-2.62-6.61-6.37-11.3-6.56-3.87-.15-6.58,2.76-8.13,6a34.67,34.67,0,0,0-1.89,5.35q-1,3.66-2,7.37-1.82,7.29-3.1,14.7c-.47,2.75-.91,5.51-1.26,8.28a70.93,70.93,0,0,0-.81,8.48.44.44,0,0,0,.86.1c.48-2.32.67-4.71,1-7.05s.7-4.71,1.09-7.06q1.2-7,2.78-14c1-4.38,2-8.83,3.39-13.1,1-3.06,2.64-6.63,6-7.73,5-1.67,9.59,2.58,13.27,5.35C89.78,258.51,89.89,258.39,89.81,258.33Z" style="fill:#263238"></path><path d="M86.2,255.83s-3.21-9.17,1.44-11c7-2.69,25.18,17.83,21.61,49.27,0,0-14.07-7.76-24.47-16.48s-13-20.12-8.48-23.07S86.2,255.83,86.2,255.83Z" style="fill:#4F46E5"></path><path d="M107.15,287.39a24.09,24.09,0,0,0-1.69-3.17c-.6-1.08-1.2-2.15-1.82-3.21-1.21-2.07-2.41-4.15-3.65-6.2l-.61-1c0-.12.05-.25.07-.37l.21-.91c.16-.68.27-1.37.4-2.06.25-1.34.49-2.71.85-4,0-.09-.13-.13-.16,0-.28,1.34-.71,2.66-1.1,4-.2.65-.41,1.29-.58,1.95l-.18.67c-1.49-2.45-3-4.89-4.66-7.25a3.34,3.34,0,0,0,.17-1c0-.46.1-.92.16-1.38.12-1,.24-2.07.39-3.1.3-2,.6-4,1.1-6,0-.1-.13-.13-.16,0-.5,2-1,4-1.42,6-.18,1-.36,2-.49,3-.06.5-.12,1-.17,1.5,0,.14,0,.29-.06.45-.5-.72-1-1.43-1.53-2.12-1.61-2.12-3.28-4.18-5-6.24-.07-.08-.2,0-.13.09a111.4,111.4,0,0,1,7.92,11.56c.46.74.91,1.48,1.36,2.22l-.45-.05c-.59-.08-1.18-.11-1.77-.17l-3.56-.31c-2.37-.19-4.75-.33-7.11-.59-.11,0-.13.15,0,.16,2.4.28,4.78.66,7.17,1,1.17.17,2.35.32,3.53.48a14.07,14.07,0,0,0,2.71.27c.93,1.52,1.87,3,2.8,4.54a4.47,4.47,0,0,0-.63,0H95.68c-1.53,0-3.06,0-4.58,0-.11,0-.09.16,0,.16,1.55,0,3.09.1,4.64.18l2.2.13,1.09.08a2.25,2.25,0,0,0,1,0l2.38,3.87c.73,1.19,1.46,2.37,2.22,3.55a27.88,27.88,0,0,0,2.39,3.58C107.06,287.54,107.19,287.49,107.15,287.39Z" style="fill:#263238"></path><path d="M100.44,262a22.08,22.08,0,0,1-.63,3c-.26,1-.55,2-.88,3a.1.1,0,1,0,.19.06c.31-1,.59-2,.83-3s.4-2,.65-3.05A.08.08,0,0,0,100.44,262Z" style="fill:#263238"></path><path d="M90.1,268.12a1.18,1.18,0,0,0-.77-.29L88,267.65c-.82-.11-1.65-.2-2.47-.3-1.72-.2-3.44-.37-5.15-.58-.1,0-.13.14,0,.15,1.62.2,3.23.45,4.85.66l2.37.31,1.15.12a4,4,0,0,1,1.3.23A.07.07,0,0,0,90.1,268.12Z" style="fill:#263238"></path><path d="M100.42,281.94c-.81-.06-1.63-.09-2.44-.11l-1.23,0-.59,0a3.29,3.29,0,0,1-.77,0c-.11,0-.12.18,0,.16a4.33,4.33,0,0,1,.72,0l.63,0L98,282c.81.05,1.63.09,2.44.1C100.51,282.12,100.52,282,100.42,281.94Z" style="fill:#263238"></path><path d="M105.38,278.43l.27-1.39c.16-.9.33-1.81.49-2.71a.08.08,0,1,0-.15,0l-.6,2.65c-.1.44-.2.88-.29,1.32,0,.21-.08.41-.13.62a1.75,1.75,0,0,0-.07.64c0,.08.12.14.18.06A3.26,3.26,0,0,0,105.38,278.43Z" style="fill:#263238"></path><polygon points="57.72 298.43 58.7 309.58 62.03 347.21 91.5 347.21 95.66 309.58 96.89 298.43 57.72 298.43" style="fill:#455a64"></polygon><polygon points="57.72 298.43 58.7 309.58 95.66 309.58 96.89 298.43 57.72 298.43" style="fill:#263238"></polygon><rect x="54.8" y="295.39" width="45.01" height="9.04" transform="translate(154.61 599.83) rotate(180)" style="fill:#455a64"></rect></g><g id="freepik--Character--inject-55"><path d="M74.22,388.28c-.19,3.25,9.11,4,12.94,1.83a88.46,88.46,0,0,0,8.79-7.5c9.15-8.4,21.79-20.67,21.79-20.67l9.61,4.11,39.21,14.3,26.32-50.82s-22.7-9.11-44.27-17.25c-3.32-1.25-6.59-2.46-9.77-3.63l-.59-.22c-14.47-5.26-26.46-9.22-27.66-8.34C107.34,302.44,74.4,385,74.22,388.28Z" style="fill:#d3766a"></path><path d="M148.17,312.11c-4.24,10.92-15.78,40.65-21,53.86l-9.41-4S105.1,374.22,96,382.62c-4.16,3.81-7.58,6.81-8.79,7.5-3.83,2.17-13.13,1.41-12.94-1.84s33.12-85.84,36.37-88.19c1.2-.88,13.19,3.08,27.66,8.34l.59.22C141.88,309.78,145,310.92,148.17,312.11Z" style="fill:#ebebeb"></path><path d="M73.28,389.34c.2-3.32,33.76-87.26,37.06-89.65,1.25-.92,13.76,3.26,28.73,8.73L117.59,362.6S90.36,389,86.46,391.23,73.09,392.67,73.28,389.34Z" style="fill:#4F46E5"></path><path d="M77.12,389.48c6-13.93,28.74-70.69,33.59-84.92,0-.11,0-.14-.09,0-6.22,13.68-28.53,70.62-33.73,84.86C76.78,389.69,77,389.77,77.12,389.48Z" style="fill:#263238"></path><path d="M91.64,387a12.17,12.17,0,0,0-.07-9.79,11.81,11.81,0,0,0-6.26-6.15c-.08,0-.15.13-.06.17A14.08,14.08,0,0,1,91.46,387,.1.1,0,0,0,91.64,387Z" style="fill:#263238"></path><path d="M114,367.5c2.33-5.6,2.95-12.93-.26-18.27-.12-.2-.41,0-.39.18a83.78,83.78,0,0,1-.08,17.91A.38.38,0,0,0,114,367.5Z" style="fill:#263238"></path><path d="M110.57,371.17c2.33-5.6,3-12.93-.25-18.27-.12-.2-.42,0-.4.18a83.78,83.78,0,0,1-.08,17.91A.38.38,0,0,0,110.57,371.17Z" style="fill:#263238"></path><path d="M107.14,374.84c2.33-5.6,3-12.93-.25-18.27-.13-.2-.42,0-.4.18a83.78,83.78,0,0,1-.08,17.91A.38.38,0,0,0,107.14,374.84Z" style="fill:#263238"></path><path d="M103.71,378.51c2.33-5.6,3-12.93-.26-18.27-.12-.2-.41,0-.39.18a83.78,83.78,0,0,1-.08,17.91A.38.38,0,0,0,103.71,378.51Z" style="fill:#263238"></path><path d="M122.64,313.49c2.51-6.32-7.32-10.23-9.83-3.9S120.13,319.83,122.64,313.49Z" style="fill:#263238"></path><path d="M126.6,379.59c3.51-1.9,2.63-6.42.88-9.16a31.84,31.84,0,0,0-12.36-10.87.15.15,0,0,0-.23.11c-.45,0-1,.3-.86.83,1.17,5.12,1.79,10.74,4.5,15.34C120.11,378.53,123.29,381.4,126.6,379.59Zm-9.21-11.69c-.63-2.51-1.14-5-1.87-7.5a92.54,92.54,0,0,1,7.07,6.51,33.75,33.75,0,0,1,3,3.57c1.37,2,3.87,9.38-2.48,7.49C119.59,376.93,118.15,370.88,117.39,367.9Z" style="fill:#263238"></path><path d="M118.63,344.73c-2.71,4.6-3.34,10.22-4.52,15.34-.12.53.41.87.86.83a.16.16,0,0,0,.23.11,31.82,31.82,0,0,0,12.37-10.85c1.76-2.74,2.64-7.25-.86-9.16C123.4,339.19,120.22,342,118.63,344.73Zm4.57-2.12c6.35-1.88,3.84,5.53,2.47,7.5a35.11,35.11,0,0,1-3,3.57c-2.19,2.36-4.68,4.37-7.08,6.49.73-2.47,1.24-5,1.89-7.49C118.25,349.69,119.69,343.65,123.2,342.61Z" style="fill:#263238"></path><path d="M139.07,308.42l-5.85,14.75-37.48,8.64c7.57-18.37,13.18-31.09,14.6-32.12C111.59,298.77,124.1,303,139.07,308.42Z" style="opacity:0.1"></path><path d="M149.83,378.92s72.49,16.42,123.42,13.65q5.29-.29,10.24-.87c18-2.13,25.06-36.15,18-47-7.25-11.13-33.27-25.83-47.25-35.21-4.4-2.94-6.34-8.68-6.34-8.68H196.64s-11.17,12.7-5.51,22.59a2.73,2.73,0,0,0,.32.49L175,317.94Z" style="fill:#263238"></path><path d="M171.72,351.14c3.87-8.84,8.14-17.49,12.09-26.29.07-.17.34-.08.27.09-3.71,8.87-7.12,17.85-11,26.66s-8.08,17.5-12.15,26.25c-.11.22-.47.11-.37-.12C164.31,368.87,167.87,360,171.72,351.14Z" style="fill:#455a64"></path><path d="M53,405.06c-.19,3.25,9.11,4,12.94,1.84a90,90,0,0,0,8.8-7.51c9.14-8.39,21.78-20.67,21.78-20.67l9.61,4.11,39.21,14.3,26.32-50.82s-22.7-9.11-44.27-17.25c-3.32-1.25-6.59-2.46-9.77-3.63l-.59-.22C102.59,320,90.6,316,89.4,316.87,86.15,319.22,53.21,401.79,53,405.06Z" style="fill:#d3766a"></path><path d="M127,328.89c-4.24,10.92-15.78,40.65-21,53.86l-9.41-4S83.91,391,74.76,399.4c-4.16,3.81-7.58,6.81-8.79,7.5-3.83,2.17-13.13,1.41-12.94-1.84s33.12-85.84,36.37-88.19c1.2-.88,13.19,3.08,27.66,8.34l.59.22C120.69,326.56,123.81,327.7,127,328.89Z" style="fill:#ebebeb"></path><path d="M52.09,406.12c.2-3.32,33.76-87.26,37.06-89.65,1.25-.92,13.76,3.26,28.73,8.73L96.4,379.38S69.18,405.77,65.27,408,51.9,409.45,52.09,406.12Z" style="fill:#4F46E5"></path><path d="M55.93,406.26c6-13.93,28.75-70.69,33.59-84.91,0-.12,0-.15-.09,0C83.21,335,60.9,391.93,55.7,406.17,55.59,406.47,55.81,406.56,55.93,406.26Z" style="fill:#263238"></path><path d="M70.45,403.82a12.19,12.19,0,0,0-.07-9.8,11.76,11.76,0,0,0-6.26-6.14c-.08,0-.14.12-.06.17a14.05,14.05,0,0,1,6.21,15.7A.1.1,0,0,0,70.45,403.82Z" style="fill:#263238"></path><path d="M92.82,384.28c2.33-5.6,3-12.92-.26-18.27-.12-.2-.41,0-.39.18a83.78,83.78,0,0,1-.08,17.91A.38.38,0,0,0,92.82,384.28Z" style="fill:#263238"></path><path d="M89.38,388c2.33-5.6,3-12.92-.25-18.27-.12-.2-.42,0-.4.18a83.78,83.78,0,0,1-.08,17.91A.38.38,0,0,0,89.38,388Z" style="fill:#263238"></path><path d="M86,391.62c2.33-5.6,3-12.92-.25-18.27-.13-.2-.42,0-.4.18a83.78,83.78,0,0,1-.08,17.91A.38.38,0,0,0,86,391.62Z" style="fill:#263238"></path><path d="M82.52,395.29c2.33-5.6,3-12.92-.26-18.27-.12-.2-.41,0-.39.18a83.78,83.78,0,0,1-.08,17.91A.38.38,0,0,0,82.52,395.29Z" style="fill:#263238"></path><path d="M101.45,330.27C104,324,94.13,320,91.62,326.38S98.94,336.61,101.45,330.27Z" style="fill:#263238"></path><path d="M105.41,396.38c3.51-1.91,2.63-6.42.88-9.16a31.87,31.87,0,0,0-12.36-10.88.16.16,0,0,0-.23.11c-.45,0-1,.3-.86.83,1.17,5.12,1.79,10.74,4.5,15.35C98.92,395.32,102.1,398.18,105.41,396.38Zm-9.21-11.7c-.63-2.5-1.14-5-1.87-7.5,2.4,2.13,4.89,4.14,7.08,6.51a34.91,34.91,0,0,1,3,3.57c1.37,2,3.87,9.38-2.48,7.49C98.4,393.71,97,387.66,96.2,384.68Z" style="fill:#263238"></path><path d="M97.44,361.51c-2.71,4.61-3.34,10.22-4.52,15.34-.12.53.41.87.86.83a.15.15,0,0,0,.23.11,31.84,31.84,0,0,0,12.38-10.85c1.75-2.74,2.63-7.25-.87-9.16C102.21,356,99,358.83,97.44,361.51Zm4.57-2.12c6.35-1.87,3.84,5.53,2.47,7.5a35.11,35.11,0,0,1-3,3.57c-2.19,2.36-4.67,4.37-7.08,6.5.73-2.48,1.25-5,1.89-7.5C97.06,366.47,98.5,360.43,102,359.39Z" style="fill:#263238"></path><path d="M238.67,300.81H157.12s-10.27,25.8-4.61,35.71,63.33,23.14,63.33,23.14l-79.47-28.57-25.15,61s87.1,18.45,137.9,12.32c19.06-2.3,31.61-33.77,24.28-44.51-10.15-14.86-44.67-39.63-44.67-39.63Z" style="fill:#263238"></path><path d="M212.44,360.33q5.22,1.83,10.47,3.6c3.62,1.23,7.23,2.65,10.93,3.62.18,0,.09.34-.08.27-3.2-1.13-6.52-1.92-9.76-2.91s-6.34-2-9.5-3l-4.08-1.37.83.55c1.26.81,2.52,1.62,3.76,2.46,2.55,1.72,4.94,3.78,7.61,5.31.17.1,0,.36-.15.25-2.55-1.74-5.4-3-8-4.66-1.27-.79-2.51-1.62-3.75-2.47a25.17,25.17,0,0,1-3.3-2.45c-4-1.35-8-2.72-12-4.15-12.5-4.5-29.78-12.48-41.87-18-.68-.3-2-1.4.91-.26C166.09,341.7,195.12,354.3,212.44,360.33Z" style="fill:#37474f"></path><path d="M228.76,320.27a357.64,357.64,0,0,1,31.69,24.93c4.39,3.85,9,7.69,12.33,12.56A20.7,20.7,0,0,1,276,365a19.83,19.83,0,0,1-.44,9.09,58.63,58.63,0,0,1-9.4,19c-.11.15-.36,0-.25-.15a54.08,54.08,0,0,0,7.94-16.62,23.61,23.61,0,0,0,1.13-10,18.79,18.79,0,0,0-3-7.38c-3.12-4.76-7.65-8.55-11.85-12.31-4.79-4.28-9.66-8.49-14.68-12.5-5.64-4.5-11.33-8.95-17.13-13.24C227.92,320.65,228.33,320,228.76,320.27Z" style="fill:#37474f"></path><path d="M228.89,318.72c.32-.66.65-1.31,1-2,.69-1.35,1.41-2.68,2.14-4,1.5-2.7,3.19-5.27,4.77-7.91.1-.16.33,0,.25.15-1.35,2.73-2.56,5.52-4,8.21-.69,1.3-1.39,2.58-2.11,3.85l-1.1,1.9a6.08,6.08,0,0,1-1.29,1.86c-.16.12-.44.05-.42-.19A5.36,5.36,0,0,1,228.89,318.72Z" style="fill:#37474f"></path><path d="M131.71,363.78c3.87-8.83,8.14-17.48,12.09-26.29.07-.16.34-.08.27.1-3.71,8.86-7.12,17.85-11,26.65S125,381.75,120.93,390.5c-.11.22-.47.11-.37-.13C124.3,381.52,127.86,372.59,131.71,363.78Z" style="fill:#37474f"></path><path d="M199.75,303.52c-1.4,2-2.56,4.19-3.84,6.26a19.42,19.42,0,0,1-4.09,5.1c-3.37,2.7-7.92,3.43-12.13,3.36a70.08,70.08,0,0,1-8.55-.71.11.11,0,0,0,0,.21c1.29.31,2.56.7,3.85,1s2.59.53,3.9.7a21.58,21.58,0,0,0,7.17-.17,15.63,15.63,0,0,0,6-2.56,15.19,15.19,0,0,0,4.34-5.21c.64-1.18,3.15-6.37,3.72-7.79A.2.2,0,0,0,199.75,303.52Z" style="fill:#37474f"></path><path d="M225.25,214.85c1.39,14.41,7.51,59.91,21.71,74,9.56,9.52,47.64,12.7,63.43,16.34,4.86,1.12,12.93-41.59,7.8-43.07-12.09-3.47-46.15-2.54-49.31-5s-18-31.4-29.4-48.57C232.67,198.34,223.5,196.55,225.25,214.85Z" style="fill:#d3766a"></path><path d="M310.74,261.13c23.54,1.06,45.75,14.87,49,18,2.76,2.67,4.16,4.07,4.16,4.07,5,4.69,4.95,8.78,4.95,8.78s7.43,3.7,5.94,8.56c-1.66,5.46-11.77-.81-19.44-.86-17.57-.12-42.58,4.63-47.65,5.1Z" style="fill:#d3766a"></path><path d="M337,286.63a111.45,111.45,0,0,1,15.38,1c5.62.92,10.88,2.74,16.28,4.47a.14.14,0,0,0,.1-.26A59.9,59.9,0,0,0,337,286.18C336.75,286.2,336.74,286.62,337,286.63Z" style="fill:#263238"></path><path d="M335.53,276c5,.41,13.85,1.19,28.29,7.36,0,0,.09-.06,0-.09a53.79,53.79,0,0,0-28.27-7.77C335.27,275.51,335.2,276,335.53,276Z" style="fill:#263238"></path><path d="M334.15,300.89c-2.3.89-1.84,2.1,2.34,3.37s21.84,2.78,20.79,8.89-25.91,3.64-32.71,1-16.89-9.34-16.89-9.34C312.62,304.3,324.48,302,334.15,300.89Z" style="fill:#d3766a"></path><path d="M229.77,258.72l30.53-20s-8.25-15-17-28.05-20.25-16.15-19.61,6.85A179.59,179.59,0,0,0,229.77,258.72Z" style="fill:#4F46E5"></path><path d="M255.88,233.33c-4.59,2.53-9,5.45-13.34,8.37-2.14,1.44-4.27,2.89-6.37,4.39s-4.26,3.22-6.45,4.74a.08.08,0,0,0,.09.13c2.24-1.44,4.58-2.73,6.84-4.15s4.34-2.79,6.49-4.22c4.35-2.91,8.73-5.87,12.81-9.15A.07.07,0,1,0,255.88,233.33Z" style="fill:#263238"></path><path d="M254.85,242.26l-25.08,16.46a179.59,179.59,0,0,1-6-41.24c-.32-11.64,2.47-16.6,6.44-17C235.85,210.73,247.82,230.47,254.85,242.26Z" style="fill:#263238"></path><path d="M256.12,310.93c-1.61,1.34-50.16-2.2-80.63-4.76-13.94-1.2-24.08-2.16-24.22-2.37-1.12-1.78,25.56-83.36,57.46-103.91,11.35-7.3,25.8.71,27.22,2.75C245.32,216.12,257.58,309.68,256.12,310.93Z" style="fill:#4F46E5"></path><path d="M249.73,254.65c-.33-2.93-.73-5.86-1.2-8.77-.58-3.65-5-21.49-6.07-24.71a.05.05,0,1,0-.1,0c2.66,11.52,4.55,20.81,6.31,32.51.49,3.29,1.05,6.56,1.53,9.85,0,.09.16.1.15,0C250.22,260.58,250.07,257.6,249.73,254.65Z" style="fill:#263238"></path><path d="M255.78,303.37l-102.65-7.11c.65-2.09,1.46-4.55,2.43-7.3l99.4,6.88C255.29,298.69,255.57,301.22,255.78,303.37Z" style="fill:#263238"></path><path d="M254.29,290.46l-96.87-6.7c.84-2.3,1.77-4.74,2.77-7.28l93.12,6.45C253.66,285.56,254,288.08,254.29,290.46Z" style="fill:#263238"></path><path d="M233.28,216.79c-5.75.92-14.8-8.45-18.1-15.73-.22-.5.89-5.5,2-11.65.63-3.72,1.25-7.89,1.54-11.73l23.67,7.67s-3,7.87-3.44,14.58a8.35,8.35,0,0,0,0,1.59,1.84,1.84,0,0,1,0,.26C239.23,204.81,238.84,215.91,233.28,216.79Z" style="fill:#d3766a"></path><path d="M239,201.51c0,.07,0,.17,0,.27-16.07-2.08-18.56-17.29-18.89-23.64l22.27,7.2s-3,7.88-3.44,14.59A7.46,7.46,0,0,0,239,201.51Z" style="fill:#263238"></path><path d="M219.12,141.83c-5.06,9.39-6,35.26-.19,43.14,8.44,11.42,25.15,15.71,35.58,4.9,10.12-10.47,10.89-43.19,4.12-50.65C248.66,128.24,226.61,128,219.12,141.83Z" style="fill:#d3766a"></path><path d="M217.15,166c5.18,0,6.34-8.51,6.34-8.51s6.17-1.14,9.71-12.59c0,0,3.32,10.15,24.8,10.34a13.65,13.65,0,0,0,1.14-11.06A76.49,76.49,0,0,1,263,156.24s7.35-16.93-6.85-25.08c-5.65-3.24-14.79-3.92-29.48,1.1,0,0-1.57-8.6-3.3-7.73s.33,9,.33,9-5.81-2.67-7-1.53c-1,1,4.62,3.27,4.62,3.27s-9.66,1.75-9.51,12.64C211.94,157.9,214.59,166,217.15,166Z" style="fill:#263238"></path><path d="M253.44,155.44a19.05,19.05,0,0,1-8.26-.66,20.61,20.61,0,0,1-6.46-3.63,18.88,18.88,0,0,1-4.53-5.67c-1.29-2.45-1.58-5-2-7.65,0-.15-.26-.21-.29,0a14.83,14.83,0,0,0,1.08,7.83,15.78,15.78,0,0,0,4.59,6.46,15.57,15.57,0,0,0,6.73,3.33,27.28,27.28,0,0,0,9.11.31C253.63,155.71,253.62,155.43,253.44,155.44Z" style="fill:#263238"></path><path d="M223,135.34a11.05,11.05,0,0,0-12.4,7.79,20.48,20.48,0,0,0,.09,9.31,38.2,38.2,0,0,0,3.35,9.21c.08.16.33,0,.25-.15a29.4,29.4,0,0,1-2.55-8.6,27.17,27.17,0,0,1-.25-8.58A10.61,10.61,0,0,1,223,135.65.16.16,0,0,0,223,135.34Z" style="fill:#263238"></path><path d="M244.44,126.66a43.11,43.11,0,0,0-10.86,2.47,31.15,31.15,0,0,0-9.36,4.86.14.14,0,0,0,.16.24c5.84-3.3,12.64-5,19.25-6,6.18-.92,13.23,0,17.14,5.43a.08.08,0,1,0,.14-.09C257.52,127.94,250.6,126.18,244.44,126.66Z" style="fill:#263238"></path><path d="M242,164.47c-3.23-.35-3.7,6.15-.7,6.47S244.72,164.76,242,164.47Z" style="fill:#263238"></path><path d="M256.48,166c3.25.22,2.56,6.7-.45,6.49S253.76,165.78,256.48,166Z" style="fill:#263238"></path><path d="M240.78,160a19.32,19.32,0,0,0,2.14-.3,3.52,3.52,0,0,0,2.13-.73,1.13,1.13,0,0,0,.09-1.36,2.77,2.77,0,0,0-2.68-.82,4,4,0,0,0-2.64,1.26A1.19,1.19,0,0,0,240.78,160Z" style="fill:#263238"></path><path d="M259.38,162a20.56,20.56,0,0,1-2.05-.69,3.49,3.49,0,0,1-2-1.11,1.12,1.12,0,0,1,.16-1.35,2.77,2.77,0,0,1,2.78-.32,4.09,4.09,0,0,1,2.37,1.72A1.19,1.19,0,0,1,259.38,162Z" style="fill:#263238"></path><path d="M240.07,181.78c.27.62.48,1.4,1.13,1.73a5.32,5.32,0,0,0,2.21.34.07.07,0,0,1,0,.13,2.74,2.74,0,0,1-2.79.06,2.14,2.14,0,0,1-.8-2.25C239.87,181.67,240,181.69,240.07,181.78Z" style="fill:#263238"></path><path d="M249.71,176.08s-.06,3-.27,4.39c0,.13-.37.14-.84.09,0,0,0,0-.06,0a6.64,6.64,0,0,1-6-3.45.15.15,0,0,1,.24-.16,10.09,10.09,0,0,0,5.74,2.66c.16-.37-.07-5.2.14-5.12.9.29,2.46,1,3,1.2.07-2,0-7.49.17-11,0-.22.35-.24.37,0a93.91,93.91,0,0,1,.69,12.47C252.92,177.41,250.22,176.4,249.71,176.08Z" style="fill:#263238"></path><path d="M248.48,179.8a8.22,8.22,0,0,1-3.43,2.31,3.72,3.72,0,0,1-2.24,0c-1.58-.53-1.52-2-1.14-3.26a9,9,0,0,1,.85-1.89A10.57,10.57,0,0,0,248.48,179.8Z" style="fill:#263238"></path><path d="M245.05,182.11a3.72,3.72,0,0,1-2.24,0c-1.58-.53-1.52-2-1.14-3.26C243.38,179.13,245,180.42,245.05,182.11Z" style="fill:#ff9bbc"></path><path d="M218.88,165.23s-4.15-9-8.15-7.68-1.87,13.71,2.11,16.07a4.41,4.41,0,0,0,6.23-1.28Z" style="fill:#d3766a"></path><path d="M211.43,161.08a.06.06,0,0,0,0,.11c2.77,1.75,3.84,4.81,4.43,7.89-.69-1.27-1.8-2.1-3.47-1.31-.09,0,0,.18.05.18a2.71,2.71,0,0,1,2.77,1.46,13.39,13.39,0,0,1,1,2.63c.09.29.6.24.55-.09a.17.17,0,0,0,0-.07C217.46,168.08,215.45,162.21,211.43,161.08Z" style="fill:#263238"></path><polygon points="345.29 275.81 279.44 281.56 283.32 196.23 349.18 190.47 345.29 275.81" style="fill:#ebebeb"></polygon><polygon points="349.8 275.41 283.95 281.17 287.83 195.83 353.68 190.07 349.8 275.41" style="fill:#c7c7c7"></polygon><path d="M294.83,195.23a4.3,4.3,0,0,1-1.73,3.61c-.52.39-1-.4-.43-.77a3.15,3.15,0,0,0,1.22-2.29,3.69,3.69,0,0,0,0-.47,3.27,3.27,0,0,0-.42-1.58,1.34,1.34,0,0,0-.55-.53.14.14,0,0,1-.05,0s-.08,0-.1,0h-.13a.72.72,0,0,0-.45.07,1.41,1.41,0,0,0-.6.54,2.92,2.92,0,0,0-.37.92,4.1,4.1,0,0,0-.14.5v.12a.32.32,0,0,0,0,.17.37.37,0,0,0,0,.11l-.93.08a5.29,5.29,0,0,1,.37-1.67,2.67,2.67,0,0,1,2-1.79,1.92,1.92,0,0,1,1.9,1.19A3.88,3.88,0,0,1,294.83,195.23Z" style="fill:#a6a6a6"></path><path d="M300,194.78a4.31,4.31,0,0,1-1.72,3.61c-.52.39-.95-.4-.43-.77a3.2,3.2,0,0,0,1.22-2.29c0-.15,0-.32,0-.47a3.26,3.26,0,0,0-.41-1.58,1.5,1.5,0,0,0-.55-.54l-.06,0s-.07,0-.09,0a.42.42,0,0,1-.13,0,.77.77,0,0,0-.45.08,1.35,1.35,0,0,0-.6.54,2.94,2.94,0,0,0-.38.92,4.07,4.07,0,0,0-.13.5v.11a1.13,1.13,0,0,0,0,.18s0,.07,0,.11l-.94.08a5.6,5.6,0,0,1,.38-1.67,2.64,2.64,0,0,1,2-1.79,1.92,1.92,0,0,1,1.9,1.19A3.76,3.76,0,0,1,300,194.78Z" style="fill:#a6a6a6"></path><path d="M305.14,194.33a4.34,4.34,0,0,1-1.73,3.61c-.52.38-1-.41-.43-.77a3.18,3.18,0,0,0,1.22-2.29,2.46,2.46,0,0,0,0-.47,3.15,3.15,0,0,0-.41-1.58,1.43,1.43,0,0,0-.55-.54.15.15,0,0,1-.06,0s-.07,0-.09,0H303a.8.8,0,0,0-.45.08,1.41,1.41,0,0,0-.6.54,2.94,2.94,0,0,0-.38.92,4.07,4.07,0,0,0-.13.5v.11a.55.55,0,0,0,0,.18.37.37,0,0,0,0,.11l-.93.08a5.29,5.29,0,0,1,.37-1.67,2.67,2.67,0,0,1,2-1.79,1.92,1.92,0,0,1,1.9,1.19A3.88,3.88,0,0,1,305.14,194.33Z" style="fill:#a6a6a6"></path><path d="M310.29,193.88a4.29,4.29,0,0,1-1.73,3.61c-.52.38-.95-.41-.43-.77a3.2,3.2,0,0,0,1.23-2.29c0-.15,0-.32,0-.47a3.26,3.26,0,0,0-.41-1.58,1.45,1.45,0,0,0-.56-.54l-.05,0s-.08,0-.09,0h-.13a.77.77,0,0,0-.45.08,1.35,1.35,0,0,0-.6.54,2.72,2.72,0,0,0-.38.92c-.06.15-.09.33-.14.5v.11a.55.55,0,0,0,0,.17s0,.08,0,.12l-.94.08a5.6,5.6,0,0,1,.38-1.67,2.64,2.64,0,0,1,2-1.79,1.94,1.94,0,0,1,1.91,1.18A3.94,3.94,0,0,1,310.29,193.88Z" style="fill:#a6a6a6"></path><path d="M315.45,193.43a4.34,4.34,0,0,1-1.73,3.61c-.52.38-1-.41-.43-.77a3.22,3.22,0,0,0,1.22-2.29,3.69,3.69,0,0,0,0-.47,3.15,3.15,0,0,0-.41-1.58,1.43,1.43,0,0,0-.55-.54l-.06,0s-.07,0-.09,0h-.13a.77.77,0,0,0-.45.08,1.35,1.35,0,0,0-.6.54,2.94,2.94,0,0,0-.38.92,3.65,3.65,0,0,0-.13.5v.11a.52.52,0,0,0,0,.17s0,.08,0,.12l-.93.08a5.23,5.23,0,0,1,.37-1.67,2.66,2.66,0,0,1,2-1.79,1.93,1.93,0,0,1,1.9,1.18A4,4,0,0,1,315.45,193.43Z" style="fill:#a6a6a6"></path><path d="M320.6,193a4.31,4.31,0,0,1-1.73,3.61c-.52.38-.95-.41-.43-.77a3.18,3.18,0,0,0,1.22-2.29,3.69,3.69,0,0,0,0-.47,3.13,3.13,0,0,0-.42-1.58,1.3,1.3,0,0,0-.55-.54l-.05,0s-.08,0-.09,0h-.13a.77.77,0,0,0-.45.08,1.38,1.38,0,0,0-.61.54,2.92,2.92,0,0,0-.37.92,3.29,3.29,0,0,0-.14.5V193a.55.55,0,0,0,0,.17s0,.08,0,.12l-.94.08a5.51,5.51,0,0,1,.37-1.67,2.67,2.67,0,0,1,2-1.79,1.93,1.93,0,0,1,1.9,1.18A4,4,0,0,1,320.6,193Z" style="fill:#a6a6a6"></path><path d="M325.76,192.53a4.34,4.34,0,0,1-1.73,3.61c-.52.38-.95-.41-.43-.77a3.22,3.22,0,0,0,1.22-2.29,3.69,3.69,0,0,0,0-.47,3.13,3.13,0,0,0-.41-1.58,1.43,1.43,0,0,0-.55-.54l-.06,0s-.07,0-.09,0h-.13a.77.77,0,0,0-.45.08,1.3,1.3,0,0,0-.6.54,2.94,2.94,0,0,0-.38.92,3.31,3.31,0,0,0-.13.5v.11a1.22,1.22,0,0,0,0,.17s0,.08,0,.12l-.94.08a5.53,5.53,0,0,1,.38-1.67,2.67,2.67,0,0,1,2-1.8,2,2,0,0,1,1.9,1.19A4,4,0,0,1,325.76,192.53Z" style="fill:#a6a6a6"></path><path d="M330.91,192.07a4.35,4.35,0,0,1-1.73,3.62c-.52.38-.95-.41-.43-.77a3.18,3.18,0,0,0,1.22-2.29,3.69,3.69,0,0,0,0-.47,3.31,3.31,0,0,0-.42-1.59A1.4,1.4,0,0,0,329,190l-.05,0-.1,0h-.13a.8.8,0,0,0-.45.08,1.35,1.35,0,0,0-.6.54,2.7,2.7,0,0,0-.37.92,3.29,3.29,0,0,0-.14.5v.11a.34.34,0,0,0,0,.17s0,.08,0,.11l-.93.09a5.23,5.23,0,0,1,.37-1.67,2.7,2.7,0,0,1,2-1.8,2,2,0,0,1,1.9,1.19A3.94,3.94,0,0,1,330.91,192.07Z" style="fill:#a6a6a6"></path><path d="M336.06,191.62a4.31,4.31,0,0,1-1.72,3.62c-.52.38-.95-.41-.43-.78a3.18,3.18,0,0,0,1.22-2.28c0-.16,0-.32,0-.47a3.3,3.3,0,0,0-.41-1.59,1.43,1.43,0,0,0-.56-.53l-.05,0-.09,0h-.13a.77.77,0,0,0-.45.08,1.3,1.3,0,0,0-.6.54,3,3,0,0,0-.38.91c-.06.16-.09.33-.14.51v.11a1,1,0,0,0,0,.17s0,.08,0,.11l-.94.09a5.53,5.53,0,0,1,.38-1.67,2.67,2.67,0,0,1,2-1.8,2,2,0,0,1,1.9,1.19A3.79,3.79,0,0,1,336.06,191.62Z" style="fill:#a6a6a6"></path><path d="M341.22,191.17a4.32,4.32,0,0,1-1.73,3.61c-.52.39-.95-.4-.43-.77a3.18,3.18,0,0,0,1.22-2.28,2.57,2.57,0,0,0,0-.48,3.18,3.18,0,0,0-.41-1.58,1.47,1.47,0,0,0-.55-.53l-.06,0a.47.47,0,0,0-.09,0H339a.79.79,0,0,0-.45.08,1.35,1.35,0,0,0-.6.54,3,3,0,0,0-.38.91,3.8,3.8,0,0,0-.13.51v.11a.5.5,0,0,0,0,.17s0,.08,0,.11l-.93.09a5.23,5.23,0,0,1,.37-1.67,2.68,2.68,0,0,1,2-1.8,2,2,0,0,1,1.9,1.19A3.91,3.91,0,0,1,341.22,191.17Z" style="fill:#a6a6a6"></path><path d="M346.37,190.72a4.29,4.29,0,0,1-1.73,3.61c-.52.39-.95-.4-.43-.77a3.15,3.15,0,0,0,1.22-2.29,3.69,3.69,0,0,0,0-.47,3.29,3.29,0,0,0-.41-1.58,1.43,1.43,0,0,0-.56-.53l-.05,0-.09,0h-.13a.77.77,0,0,0-.45.07,1.4,1.4,0,0,0-.61.55,3,3,0,0,0-.37.91,4.1,4.1,0,0,0-.14.5v.12a.51.51,0,0,0,0,.17s0,.08,0,.11l-.94.08a5.25,5.25,0,0,1,.38-1.66,2.66,2.66,0,0,1,2-1.8,1.94,1.94,0,0,1,1.9,1.19A3.8,3.8,0,0,1,346.37,190.72Z" style="fill:#a6a6a6"></path><path d="M351.53,190.27a4.33,4.33,0,0,1-1.73,3.61c-.52.39-.95-.4-.43-.77a3.18,3.18,0,0,0,1.22-2.29,3.69,3.69,0,0,0,0-.47,3.18,3.18,0,0,0-.41-1.58,1.47,1.47,0,0,0-.55-.53l-.06,0s-.07,0-.09,0a.54.54,0,0,1-.13,0,.7.7,0,0,0-.45.07,1.38,1.38,0,0,0-.6.55,2.89,2.89,0,0,0-.38.91,4.07,4.07,0,0,0-.13.5v.12a.5.5,0,0,0,0,.17s0,.08,0,.11l-.93.08a5.35,5.35,0,0,1,.37-1.67,2.67,2.67,0,0,1,2-1.79,1.93,1.93,0,0,1,1.9,1.19A3.91,3.91,0,0,1,351.53,190.27Z" style="fill:#a6a6a6"></path><path d="M199.92,227.32c17,47.35,35.38,58.94,46.31,59.6,24.2,1.46,64.33-14.07,74.77-21,4.55-3-15.7-39.41-21.48-40.25s-45.48,23-49.65,21.7c-1.71-.54-16.57-12.92-30.63-28.28C204.09,202.53,191.18,203,199.92,227.32Z" style="fill:#d3766a"></path><path d="M352.59,221.11c2.35,4.29-1.15,7.95-1.15,7.95a10.44,10.44,0,0,1,4.63,5.37c1.35,4.09-4.47,8-4.47,8a12.89,12.89,0,0,1,4,6.45c.89,4-4.42,8.81-4.42,8.81a11.27,11.27,0,0,1-.06,7.88c-2.86,6.66-13.8,8.35-20.74,9.5s-27.71-2.1-31.73-2.32l-7.75-44.49s29.67-14,38-14.19C336,213.88,349.94,216.3,352.59,221.11Z" style="fill:#d3766a"></path><path d="M351,228.4c-7.53-1.63-15.12-.94-22.74-.68a.13.13,0,0,0,0,.26c7.58-.34,15.12.82,22.69.78A.18.18,0,0,0,351,228.4Z" style="fill:#263238"></path><path d="M351.36,241.86a20.06,20.06,0,0,0-5.25.07q-2.78.24-5.55.56c-3.7.44-7.38.95-11.05,1.58-.17,0-.17.28,0,.26,3.68-.42,7.37-.79,11.08-1.06q2.77-.21,5.55-.36a24.06,24.06,0,0,0,5.23-.54A.27.27,0,0,0,351.36,241.86Z" style="fill:#263238"></path><path d="M351,257.68c-1.48-.33-3.24.12-4.72.32-1.68.24-3.37.46-5.05.67-3.36.43-6.73.85-10.11,1.16-.17,0-.16.28,0,.27,3.44-.3,6.87-.55,10.31-.88,1.68-.16,3.37-.33,5.05-.51a13.06,13.06,0,0,0,4.53-.86A.09.09,0,0,0,351,257.68Z" style="fill:#263238"></path><path d="M252.93,286.93c3.33-.42,6.62-.93,9.91-1.5s6.56-1.2,9.81-1.94,6.5-1.48,9.73-2.32,6.43-1.77,9.66-2.67c-1.55.64-3.1,1.26-4.68,1.83s-3.16,1.1-4.77,1.58c-3.19,1-6.45,1.83-9.72,2.56s-6.59,1.29-9.91,1.71A82.1,82.1,0,0,1,252.93,286.93Z" style="fill:#263238"></path><path d="M248.23,246.32a4.08,4.08,0,0,0,1.63.83,4.2,4.2,0,0,0,1.76-.2c1.19-.32,2.38-.7,3.54-1.14s2.31-.93,3.46-1.44,2.26-1.07,3.41-1.61a23.85,23.85,0,0,1-3.15,2.13,24.22,24.22,0,0,1-3.46,1.62,18.63,18.63,0,0,1-3.69,1,7.81,7.81,0,0,1-1,.1,2.18,2.18,0,0,1-1-.11A3.68,3.68,0,0,1,248.23,246.32Z" style="fill:#263238"></path><path d="M214.75,264l24.35-27.22S227.28,224.44,215.49,214s-23.72-10.4-17.18,11.66A179.76,179.76,0,0,0,214.75,264Z" style="fill:#4F46E5"></path><path d="M234.24,233.1c-3.93,3.46-7.6,7.27-11.21,11.05-1.78,1.87-3.55,3.76-5.27,5.67s-3.47,4.07-5.27,6c-.07.07,0,.17.11.1,1.88-1.89,3.88-3.66,5.78-5.53s3.64-3.66,5.43-5.53c3.62-3.78,7.25-7.61,10.53-11.7A.07.07,0,0,0,234.24,233.1Z" style="fill:#263238"></path><path d="M216.19,262.39a15.36,15.36,0,0,0-1.32,1.39c-1.92-4.08-4-8.08-6-12.12-2.11-4.26-4.14-8.56-6-12.94-1-2.49-2-5-3.08-7.47-.05-.1-.21-.06-.18.05.74,2.37,1.57,4.71,2.46,7-.1-.15-.2-.29-.29-.44-.51-.79-1-1.59-1.5-2.41-.07-.12-.23,0-.18.11a18.84,18.84,0,0,0,1.91,3.28c.18.25.37.49.56.73h0c.68,1.71,1.38,3.42,2.1,5.11,1.88,4.37,3.85,8.69,6.1,12.88,1.3,2.4,3.88,7.35,3.82,7.21s1.59-2.2,1.6-2.32S216.25,262.38,216.19,262.39Z" style="fill:#263238"></path><path d="M234.8,231.63c-.44-.42-1.34-1.26-2.39-2.22a2.4,2.4,0,0,0-.17-.32c-.13-.2-.27-.38-.4-.56-.26-.36-.56-.69-.85-1a13.48,13.48,0,0,0-1.82-1.88s-.06,0,0,0c.56.68,1.12,1.36,1.64,2.08.11.16.24.32.36.48-1.52-1.38-3.09-2.79-3.93-3.47-.08-.07-.18.05-.11.11,1.13,1,11.9,11.73,11.91,11.84s-.6.82-.71.95-.08.36.15.15a12.38,12.38,0,0,0,1.19-1.14C239.74,236.37,236,232.8,234.8,231.63Z" style="fill:#263238"></path></g><g id="freepik--Backpack--inject-55"><path d="M294,291c8.11-7.27,34.79-14.77,40.9-13.05s54.95,38.27,67.4,67c2.88,6.65,6.68,51.21,3.78,54.09s-66.74,8.27-71.18,8.84-4.85-53.84-7.3-60.94S285.93,298.29,294,291Z" style="fill:#37474f"></path><path d="M334.89,350.45c-2.68-9.3-40.47-44.2-40.26-57.63,0-1.82,5.1-4.8,6.65-5.45,3.18-1.34,6.42-2.56,9.69-3.65s6.6-2,9.94-2.93c1.67-.44,3.35-.82,5-1.18a47.52,47.52,0,0,1,5.13-.91,18,18,0,0,1,3-.06,10,10,0,0,1,2.67.43c1.74.63,3.85,2.35,5.44,3.28.09.06.2-.08.11-.15-2.45-2-6.14-4.74-9.4-4.94a21.54,21.54,0,0,0-5.31.55c-1.77.34-3.54.73-5.29,1.15a121.15,121.15,0,0,0-20.74,6.94,44,44,0,0,0-5.12,2.83c-5.41,3.27-15.21,16.16-13.11,20.93,2.73,6.21,27.33,34.23,27.68,44.48,0,0-7.86,4.78-9.23,7.51s-8.71,39.64-6.49,43.05,49.3,4.59,49.3,4.59Z" style="fill:#455a64"></path><path d="M341.88,282.62c-1.48-1.34-5.28-3.88-7-4.28a12.61,12.61,0,0,0-3.61-.3,101.45,101.45,0,0,0-12.88,3c-4,1.12-22.64,7.33-23.77,11.07-1,2.38,2.95,10.59,3.79,12,2.49,4.07,5.36,7.94,8.23,11.74s6,7.65,9.14,11.34,6.31,7.1,9.52,10.61c1.65,1.81,3.27,3.61,4.83,5.51a29.91,29.91,0,0,1,4.28,6.14c.12.27.59.06.48-.22a29.88,29.88,0,0,0-6.7-11.07c-2.94-3.53-6.18-6.81-9.2-10.27-6.3-7.21-12.32-14.72-17.92-22.49-1.83-2.53-5.94-10.38-4.74-13.34,1.1-2.72,17.35-8.49,21-9.55,3.94-1.15,7.91-2.26,11.91-3.17a16,16,0,0,1,3.44-.54c2.7,0,7.28,2.76,9,4.17C341.8,283.08,342.07,282.79,341.88,282.62Z" style="fill:#263238"></path><path d="M341.93,408.77c-2.52-1.54-2.95-29.29-7-58.32-2.17-15.42,7-77.63,12-82.24,7.72-7.14,56-8.55,61.76-2s26.48,126.59,20.68,134.44S345.71,411.07,341.93,408.77Z" style="fill:#455a64"></path><path d="M346.12,269.27a50.67,50.67,0,0,0-2.77,7.1c-.72,2.45-1.33,4.93-2,7.41-1.26,5.1-2.45,10.24-3.3,15.43q-2.58,15.85-3.63,31.87c-.19,3-.31,6-.35,9,0,1.47,0,2.94,0,4.41a20.57,20.57,0,0,0,.32,4.44c0,.08.13.06.15,0a19.61,19.61,0,0,0,.51-3.84q.18-2,.33-3.93c.21-2.66.43-5.32.64-8q.66-7.9,1.54-15.78t2.11-15.72c.81-5.2,1.54-10.41,2.46-15.6a122.5,122.5,0,0,1,4.33-16.61C346.57,269.2,346.22,269.07,346.12,269.27Z" style="fill:#263238"></path><path d="M335.72,347.33l-3.11.44-.64,8.06,6.1-.47Zm-.8,7.22c-.94.06-1.74-.3-1.78-.83s.69-1,1.64-1.07,1.74.29,1.78.81S335.88,354.47,334.92,354.55Z" style="fill:#263238"></path><path d="M429.34,400.6c-4,5.4-54.42,10.37-66.69,8.87-4.91-9.8-6.75-56.19-7.36-61.82-1.61-14.94,4.6-73.91,6.37-77.27s12.72-8.08,22.67-8.38c11.55,0,21.84,1.37,24.33,4.16C414.47,272.65,435.14,392.75,429.34,400.6Z" style="fill:#37474f"></path><path d="M409,275c-6,0-11.94,0-17.91.24s-11.93.57-17.89,1c-3.39.22-6.8.44-10.18.83a.08.08,0,0,0,0,.16c6,0,11.94-.27,17.9-.51s11.93-.41,17.89-.81c3.4-.24,6.79-.51,10.19-.73C409.14,275.15,409.14,275,409,275Z" style="fill:#263238"></path><path d="M411.85,291.39c-3.41,0-6.82.13-10.22.24s-6.66.15-10,.26q-10.11.32-20.2.88c-3.82.21-7.65.48-11.47.59a.08.08,0,0,0,0,.16c3.41-.08,6.83,0,10.24,0s6.65-.08,10-.18c6.74-.19,13.46-.53,20.2-.92,3.82-.23,7.65-.42,11.46-.81A.09.09,0,1,0,411.85,291.39Z" style="fill:#263238"></path><path d="M414.67,306c-14.1,1.2-28.2,2.29-42.28,3.6l-5.94.56c-2,.19-4,.46-5.94.65-.1,0-.1.16,0,.15,1.82-.06,3.64-.05,5.46-.13s3.47-.15,5.2-.25c3.51-.19,7-.44,10.52-.72,7.06-.58,14.12-1.16,21.14-2.08,3.95-.53,7.9-1,11.84-1.58C414.79,306.22,414.79,306,414.67,306Z" style="fill:#263238"></path><path d="M419.89,326.3c-4.07.17-8.14.52-12.21.77s-8,.61-11.94,1c-8,.71-15.93,1.51-23.89,2.34-4.56.47-9.13.95-13.68,1.47-.1,0-.1.17,0,.16,16-1,32.06-2.31,48-3.95,2.24-.23,4.48-.54,6.72-.78s4.65-.49,7-.8C420,326.45,420,326.3,419.89,326.3Z" style="fill:#263238"></path><path d="M421.13,343.92c-8.25.82-16.52,1.65-24.75,2.6s-16.59,2-24.86,3.17c-4.66.65-9.31,1.43-14,2-.1,0-.1.17,0,.16,4.12-.48,8.25-.81,12.38-1.24s8.25-.89,12.37-1.37c8.3-1,16.58-2.08,24.86-3.27,4.65-.67,9.32-1.28,14-2C421.2,344,421.2,343.91,421.13,343.92Z" style="fill:#263238"></path><path d="M425.36,363.16c-8.63.64-17.27,1.34-25.88,2.25s-17.24,1.93-25.83,3.1c-2.39.32-4.78.67-7.16,1l-3.7.55c-1.24.19-2.46.49-3.7.66-.1,0-.1.17,0,.16,1.07-.14,2.15-.15,3.22-.27l3.21-.34,6.54-.71q6.44-.7,12.86-1.45,12.93-1.5,25.84-3.09l14.61-1.79C425.43,363.25,425.43,363.16,425.36,363.16Z" style="fill:#263238"></path><path d="M425.38,380.91c-4.11.55-8.23,1.14-12.34,1.67s-8.24,1-12.35,1.6Q388.42,386,376.16,388c-4.58.74-9.17,1.45-13.74,2.3-.11,0-.08.22,0,.2,8.25-.9,16.47-2.12,24.69-3.27s16.36-2.38,24.52-3.75c4.59-.77,9.18-1.47,13.77-2.21C425.6,381.19,425.56,380.89,425.38,380.91Z" style="fill:#263238"></path><path d="M378.86,267.77c-.18.42-6.7.91-6.7.43s3.34-13,4.55-14.54,11.94-7,14-6.38,10,5.38,10.08,6.93-.73,12.78-1.22,13.07-5.93.49-6.17.2,1.9-13.32,1.75-13.54-12.27-.27-12.61,0S379.1,267.18,378.86,267.77Z" style="fill:#37474f"></path><path d="M382.54,253.94a19.91,19.91,0,0,0-.93,3.06l-6.4.38c.19-.56.36-1.09.54-1.56a4.78,4.78,0,0,1,1-1.54C377.31,254,379.08,254,382.54,253.94Z" style="fill:#263238"></path><path d="M400.74,256v.07c0,.44,0,.9-.08,1.42l-5.85-.76c.22-1.61.38-2.77.34-2.83,1.55,0,4.89.05,5.27.36A4,4,0,0,1,400.74,256Z" style="fill:#263238"></path><path d="M367.32,268.86c-.69-1.45,8.12-2.62,11.8-2s24.83,46.27,24.83,76c0,30-7.53,64.63-9.14,66.1s-16.64,1.95-17,0,6.79-43.48,6.62-67.12C384.37,329.49,377.63,290.64,367.32,268.86Z" style="fill:#263238"></path><path d="M397,267c-.68-1.45,6.3-1.37,10-.76s33.83,54.88,33.83,84.59c0,30-14.6,50.81-16.2,52.28s-13.38,4.08-13.71,2.13,12.16-29.43,12.45-53.06C423.52,334.26,407.27,288.82,397,267Z" style="fill:#263238"></path><path d="M315.59,386.14c-.1-3.38-.38-6.75-.73-10.12s-.7-6.81-1.22-10.19c-.57-3.71-1.19-7.44-2.08-11.08,0,0-.09,0-.09,0,1,6.69,2,13.35,2.58,20.09.29,3.41.39,6.83.56,10.24s.26,6.68.27,10c0,3.8.12,7.64-.09,11.44,0,.1.15.09.15,0,.24-3.42.6-6.83.68-10.26S315.69,389.52,315.59,386.14Z" style="fill:#263238"></path><path d="M353.26,352.87c-1.24.33-2.42.81-3.64,1.2s-2.45.74-3.68,1.06c-2.47.65-5,1.19-7.51,1.6a81.63,81.63,0,0,1-15.46.94q-2.13-.06-4.26-.27c-1.51-.15-3-.24-4.54-.52-.1,0-.14.13,0,.15,1.33.28,2.62.64,4,.86s2.52.38,3.78.52a54.71,54.71,0,0,0,7.78.37,63.07,63.07,0,0,0,15.49-2.41c1.44-.41,2.87-.89,4.28-1.42a26.59,26.59,0,0,0,4-1.71A.2.2,0,0,0,353.26,352.87Z" style="fill:#263238"></path></g><g id="freepik--school-supplies--inject-55"><rect x="320.59" y="425.17" width="107.59" height="15.56" style="fill:#4F46E5"></rect><rect x="327.28" y="425.17" width="10.51" height="15.56" style="fill:#37474f"></rect><rect x="341.69" y="425.17" width="4.39" height="15.56" style="fill:#37474f"></rect><rect x="405" y="425.17" width="10.51" height="15.56" style="fill:#37474f"></rect><rect x="314.34" y="409.33" width="74.63" height="15.84" style="fill:#263238"></rect><rect x="388.96" y="409.33" width="32.2" height="15.84" style="fill:#263238"></rect><rect x="314.34" y="410.97" width="74.63" height="12.55" style="fill:#fff"></rect><path d="M319.17,413.55q8.71-.14,17.44-.19l17.45-.06,17.45.06q8.73,0,17.45.19-8.71.15-17.45.2l-17.45.05-17.45-.06Q327.9,413.69,319.17,413.55Z" style="fill:#dbdbdb"></path><path d="M319.17,416q8.71-.15,17.44-.2l17.45-.05,17.45.05q8.73.06,17.45.2-8.71.14-17.45.19l-17.45.05-17.45-.05Q327.9,416.15,319.17,416Z" style="fill:#dbdbdb"></path><path d="M319.17,418.48q8.71-.14,17.44-.19l17.45-.06,17.45.06q8.73,0,17.45.19-8.71.13-17.45.19l-17.45.06-17.45-.06Q327.9,418.63,319.17,418.48Z" style="fill:#dbdbdb"></path><path d="M319.17,420.94q8.71-.13,17.44-.19l17.45-.06,17.45.06q8.73,0,17.45.19-8.71.13-17.45.19l-17.45.06-17.45-.06Q327.9,421.09,319.17,420.94Z" style="fill:#dbdbdb"></path><rect x="321" y="394.56" width="98.32" height="14.83" style="fill:#c7c7c7"></rect><rect x="330.25" y="397.59" width="37.82" height="8.9" style="fill:#fff"></rect><polygon points="137.94 424.24 244.53 404.29 291.3 433.91 186.51 460.57 137.94 424.24" style="fill:#4F46E5"></polygon><path d="M144.46,424.23l44.46,33.38,98.2-24.92-45.23-28.4s-29,1.69-30.33,2-14.4,4.66-14.4,4.66-18,1.79-19.22,2.11S144.46,424.23,144.46,424.23Z" style="fill:#fff"></path><path d="M197.16,411q5.42,4.1,10.79,8.28l10.72,8.38,10.64,8.48q5.31,4.26,10.56,8.58-5.43-4.11-10.8-8.28L218.36,428l-10.64-8.47Q202.41,415.28,197.16,411Z" style="fill:#dbdbdb"></path><path d="M154.75,424.71q5.15-1.95,10.33-3.79c3.46-1.24,6.92-2.43,10.4-3.62l2.61-.85c.45-.14.87-.28,1.34-.4s.91-.14,1.36-.22l5.45-.78q5.46-.76,10.92-1.45-5.43,1-10.85,1.83l-5.43.85c-.45.08-.91.13-1.35.22s-.86.27-1.29.4l-2.61.88-10.42,3.5Q160,423,154.75,424.71Z" style="fill:#dbdbdb"></path><path d="M157.86,426.86q5.14-2,10.33-3.79c3.46-1.24,6.92-2.43,10.4-3.62l2.61-.85c.45-.14.87-.28,1.34-.4s.91-.14,1.36-.21l5.45-.79q5.46-.76,10.92-1.45-5.43,1-10.85,1.83l-5.43.85c-.44.08-.91.13-1.35.22s-.86.27-1.29.4l-2.61.88-10.42,3.5Q163.1,425.19,157.86,426.86Z" style="fill:#dbdbdb"></path><path d="M161,429q5-1.9,10.1-3.71c3.37-1.21,6.76-2.37,10.15-3.54l2.56-.84a16.6,16.6,0,0,1,2.62-.71c1.78-.28,3.55-.55,5.32-.79q5.34-.75,10.67-1.37-5.29.9-10.61,1.75l-5.3.86a15.65,15.65,0,0,0-2.55.72l-2.55.86-10.19,3.42Q166.09,427.37,161,429Z" style="fill:#dbdbdb"></path><path d="M164.08,431.16q5-1.87,9.95-3.65c3.33-1.2,6.67-2.34,10-3.49,1.69-.55,3.32-1.16,5.09-1.59s3.49-.55,5.24-.8q5.25-.72,10.52-1.34-5.22.9-10.46,1.74c-1.74.29-3.49.54-5.22.85s-3.34,1.07-5,1.6l-10,3.38Q169.14,429.54,164.08,431.16Z" style="fill:#dbdbdb"></path><path d="M167.19,433.31q5-1.86,9.92-3.64c3.31-1.19,6.64-2.33,10-3.48,1.68-.55,3.31-1.14,5.07-1.6,1.75-.29,3.48-.55,5.23-.79,3.48-.49,7-.93,10.47-1.34q-5.21.9-10.41,1.73c-1.74.29-3.49.54-5.21.86s-3.33,1.07-5,1.61l-10,3.36Q172.22,431.7,167.19,433.31Z" style="fill:#dbdbdb"></path><path d="M170.3,435.46q4.94-1.86,9.89-3.63c3.3-1.19,6.62-2.32,9.94-3.47,1.67-.55,3.3-1.13,5-1.6,1.75-.3,3.48-.55,5.22-.79q5.21-.74,10.44-1.34-5.19.9-10.38,1.73c-1.73.29-3.48.54-5.19.85-1.64.46-3.31,1.08-5,1.62l-10,3.36Q175.32,433.86,170.3,435.46Z" style="fill:#dbdbdb"></path><path d="M173.42,437.61q4.86-1.83,9.75-3.58c3.26-1.18,6.54-2.3,9.81-3.43,1.64-.56,3.27-1.11,5-1.6s3.43-.57,5.15-.83q5.15-.71,10.31-1.31c-3.42.6-6.83,1.16-10.25,1.72-1.7.29-3.45.5-5.1.87s-3.27,1.08-4.91,1.62l-9.85,3.31C180,435.48,176.71,436.55,173.42,437.61Z" style="fill:#dbdbdb"></path><path d="M176.53,439.76q4.86-1.83,9.75-3.58c3.26-1.18,6.54-2.29,9.81-3.43,1.65-.55,3.27-1.1,5-1.6s3.43-.57,5.15-.83q5.15-.7,10.31-1.31c-3.41.6-6.83,1.16-10.25,1.72-1.7.29-3.45.5-5.1.87s-3.27,1.08-4.91,1.62l-9.85,3.31C183.12,437.63,179.82,438.7,176.53,439.76Z" style="fill:#dbdbdb"></path><path d="M179.06,442.16c3.29-1.24,6.59-2.47,9.9-3.65s6.63-2.34,9.95-3.5q2.49-.86,5-1.65a22.25,22.25,0,0,1,2.62-.48l2.61-.38q5.22-.74,10.46-1.34c-3.47.61-6.93,1.18-10.4,1.74-1.72.3-3.51.5-5.16.91s-3.33,1.12-5,1.67l-10,3.38Q184.08,440.54,179.06,442.16Z" style="fill:#dbdbdb"></path><path d="M182.18,444.38q4.9-1.87,9.86-3.67c3.29-1.2,6.6-2.35,9.91-3.51,1.66-.58,3.32-1.13,5-1.66a18.82,18.82,0,0,1,2.62-.49l2.6-.39c3.47-.48,7-.93,10.44-1.33-3.46.61-6.92,1.17-10.38,1.74l-2.59.41a18.56,18.56,0,0,0-2.55.51c-1.66.53-3.31,1.12-5,1.67l-10,3.4Q187.18,442.76,182.18,444.38Z" style="fill:#dbdbdb"></path><path d="M185.29,446.76q4.76-1.86,9.55-3.65c3.19-1.2,6.41-2.34,9.62-3.5q2.4-.86,4.83-1.67c.41-.13.81-.27,1.25-.38s.85-.16,1.27-.23l2.53-.38q5.07-.72,10.15-1.29c-3.36.6-6.72,1.15-10.09,1.71l-2.52.41c-.42.07-.84.13-1.24.23s-.79.25-1.2.38l-4.82,1.68L195,443.45C191.75,444.58,188.52,445.67,185.29,446.76Z" style="fill:#dbdbdb"></path><path d="M188.4,448.77c3.23-1.11,6.46-2.21,9.71-3.27s6.5-2.1,9.76-3.13c1.63-.51,3.24-1,4.93-1.46l5-1c3.35-.66,6.71-1.3,10.07-1.9-3.32.81-6.65,1.57-10,2.31l-5,1.08c-1.62.42-3.26,1-4.89,1.45l-9.79,3Q193.32,447.34,188.4,448.77Z" style="fill:#dbdbdb"></path><path d="M236.5,436.66q4.51-1.77,9.12-3.27c.77-.25,1.54-.51,2.32-.73a18.15,18.15,0,0,1,2.38-.54l4.76-.91,9.52-1.76,9.54-1.69-9.48,2-9.5,1.91-4.75.93-1.19.23c-.37.09-.76.21-1.14.32l-2.32.71C242.69,434.81,239.6,435.77,236.5,436.66Z" style="fill:#dbdbdb"></path><path d="M233.52,434c3-1,6-1.89,9-2.71,1.51-.41,3-.86,4.57-1.15l4.6-.91,9.2-1.77c3.07-.59,6.15-1.13,9.23-1.7-3.06.66-6.11,1.36-9.17,2l-9.18,1.92-4.6.93c-1.5.32-3,.75-4.53,1.13C239.6,432.5,236.57,433.25,233.52,434Z" style="fill:#dbdbdb"></path><path d="M230.64,431.55c3-.95,5.93-1.86,8.92-2.67,1.51-.41,3-.84,4.52-1.18l4.6-.78,9.19-1.49c3.06-.5,6.14-.94,9.21-1.41-3.06.57-6.1,1.17-9.16,1.71l-9.16,1.63-4.58.81-4.5,1.14C236.68,430.11,233.67,430.85,230.64,431.55Z" style="fill:#dbdbdb"></path><path d="M228.16,429.73c2.86-1.25,5.79-2.34,8.75-3.34a11.92,11.92,0,0,1,2.3-.58l2.32-.34,4.64-.64q9.27-1.26,18.57-2.37c-6.17,1-12.34,1.89-18.51,2.8l-4.63.67-2.31.34a13.55,13.55,0,0,0-2.23.58C234.1,427.8,231.16,428.84,228.16,429.73Z" style="fill:#dbdbdb"></path><path d="M191.51,451.77q4.94-1.56,9.9-3c3.3-1,6.63-1.94,9.94-2.9,1.67-.48,3.31-.94,5-1.36l5-1.14c3.37-.73,6.75-1.45,10.14-2.12q-5,1.31-10.05,2.52l-5,1.19c-1.65.42-3.31.93-5,1.38l-10,2.78C198.18,450,194.85,450.89,191.51,451.77Z" style="fill:#dbdbdb"></path><path d="M238.67,439.25q5-1.46,10-2.83c3.33-.93,6.69-1.8,10-2.7,1.68-.44,3.35-.86,5.06-1.26l5.09-1q5.1-1,10.21-1.91c-3.37.81-6.75,1.57-10.13,2.32l-5.08,1.08c-1.67.39-3.35.86-5,1.28l-10.07,2.57Q243.72,438,238.67,439.25Z" style="fill:#dbdbdb"></path><path d="M205.17,412.12l19.32,15.64s6.47-2.69,8.8-3.25c3-.7,11.48-2.05,11.48-2.05l-19.16-14.08s-9.65.71-11.85,1.06A82.06,82.06,0,0,0,205.17,412.12Z" style="fill:#dbdbdb"></path><path d="M247,421.75c2.31-.49,4.65-.82,7-1.12s4.7-.53,7.07-.63c-2.32.49-4.66.82-7,1.12S249.35,421.65,247,421.75Z" style="fill:#dbdbdb"></path><path d="M244.14,419.47c2.3-.49,4.64-.82,7-1.12s4.7-.53,7.07-.63c-2.32.49-4.65.82-7,1.12S246.52,419.37,244.14,419.47Z" style="fill:#dbdbdb"></path><path d="M241.3,417.19c2.31-.48,4.65-.82,7-1.12s4.71-.53,7.08-.63c-2.32.49-4.66.82-7,1.12S243.68,417.09,241.3,417.19Z" style="fill:#dbdbdb"></path><path d="M238.46,414.91c2.31-.48,4.65-.82,7-1.12s4.7-.53,7.07-.63c-2.32.49-4.65.82-7,1.12S240.84,414.81,238.46,414.91Z" style="fill:#dbdbdb"></path><path d="M235.22,412.9c2.3-.49,4.64-.82,7-1.12s4.7-.53,7.07-.63c-2.32.49-4.65.82-7,1.12S237.6,412.8,235.22,412.9Z" style="fill:#dbdbdb"></path><path d="M232.2,410.62c2.31-.48,4.65-.82,7-1.12s4.7-.53,7.07-.63c-2.32.49-4.65.82-7,1.12S234.58,410.52,232.2,410.62Z" style="fill:#dbdbdb"></path><path d="M228.89,408.38c2.31-.48,4.65-.82,7-1.12s4.7-.53,7.07-.62c-2.32.48-4.66.82-7,1.12S231.27,408.28,228.89,408.38Z" style="fill:#dbdbdb"></path><path d="M284.39,418.23s7.79.08,7.31-6.47-8.16-5.08-8.16-5.08Z" style="fill:#dd6a57"></path><polygon points="229.3 411.51 230.15 423.06 284.7 418.2 283.85 406.65 229.3 411.51" style="fill:#455a64"></polygon><polygon points="281.9 405.85 282.89 419.33 285.06 419.14 284.07 405.66 281.9 405.85" style="fill:#263238"></polygon><polygon points="279.5 406.06 280.5 419.55 282.66 419.35 281.67 405.87 279.5 406.06" style="fill:#263238"></polygon><path d="M229.3,411.51l-6.42,4.94-2.12,1.62,2.34,1.25,7.05,3.75,1.27-1.29s-1.42-1-1.44-1l1.27-1.29s-1.42-1-1.44-1l1.27-1.26-1.44-1.05,1.27-1.26-1.44-1.05,1.27-1.27Z" style="fill:#fff"></path><polygon points="222.88 416.45 220.76 418.07 223.09 419.32 222.88 416.45" style="fill:#37474f"></polygon><path d="M232.88,414.39c3.74-.59,7.48-1,11.23-1.48s7.5-.76,11.26-1.14,7.51-.63,11.28-.87,7.53-.45,11.31-.52c-3.73.59-7.48,1-11.23,1.48s-7.5.76-11.25,1.14-7.52.63-11.29.86S236.66,414.31,232.88,414.39Z" style="fill:#263238"></path><path d="M233.34,419.58c3.73-.59,7.47-1.05,11.22-1.48s7.51-.76,11.26-1.15,7.52-.63,11.28-.86,7.53-.45,11.31-.53c-3.73.59-7.48,1.05-11.22,1.48s-7.51.76-11.26,1.15-7.52.62-11.28.86S237.11,419.5,233.34,419.58Z" style="fill:#263238"></path></g></svg>